<svg width="74" height="49" viewBox="0 0 74 49" fill="none" xmlns="http://www.w3.org/2000/svg">
<path d="M63.3419 31.7798C62.9844 31.7965 62.7945 31.8133 62.599 31.8133C58.1969 31.8133 53.8005 31.8077 49.3985 31.8244C48.9684 31.8244 48.6779 31.7407 48.4377 31.3386C43.5385 23.1689 38.6225 15.0048 33.7177 6.84066C33.6451 6.71781 33.5836 6.58378 33.4998 6.41625C37.0583 4.28309 40.5944 2.16109 44.1976 0C50.566 10.5765 56.9177 21.1195 63.3419 31.7798Z" fill="#24FE7C"/>
<path d="M32.3155 34.7114C31.1982 34.7114 30.1536 34.7114 29.0699 34.7114C29.0587 34.4546 29.014 34.2312 29.0419 34.019C29.243 32.4833 28.7179 31.1989 27.9023 29.9034C25.5393 26.1396 23.2881 22.3033 20.9977 18.4949C20.858 18.2659 20.7295 18.0314 20.5675 17.7522C24.1372 15.6078 27.6733 13.4858 31.2876 11.308C35.3824 18.1096 39.466 24.8888 43.6278 31.8076C39.7676 31.8076 36.0751 31.8076 32.31 31.8076C32.3155 32.824 32.3155 33.7454 32.3155 34.7114Z" fill="#24FE7C"/>
<path d="M27.4946 48.4989C26.5729 48.4989 25.7126 48.5212 24.8635 48.4765C24.6903 48.4654 24.5283 48.2029 24.2714 47.974C22.6178 48.9009 20.7296 49.1578 18.7688 48.4765C17.3778 47.9963 16.2718 47.1196 15.4562 45.8966C13.8641 43.5066 14.026 40.3738 15.8528 38.1402C17.8862 35.6552 20.7687 35.147 24.4725 36.6659C24.4725 35.0577 24.4725 33.4829 24.4725 31.8579C25.5227 31.8579 26.4891 31.8579 27.4946 31.8579C27.4946 37.3975 27.4946 42.8867 27.4946 48.4989ZM24.4892 42.3004C24.4892 40.2622 22.9474 38.693 20.9419 38.6874C18.9587 38.6818 17.3387 40.3068 17.3332 42.2948C17.3332 44.2884 18.9364 45.8687 20.9363 45.8966C22.9865 45.9246 24.7239 44.0371 24.4892 42.3004Z" fill="#24FE7C"/>
<path d="M46.5998 48.4989C45.6892 48.4989 44.8344 48.5268 43.9797 48.4766C43.8066 48.4654 43.6557 48.175 43.4379 47.9517C41.8346 48.8396 40.0637 49.1244 38.1979 48.5715C36.8069 48.1583 35.6841 47.3597 34.8126 46.215C33.092 43.9478 33.0529 40.8262 34.7064 38.5088C35.7231 37.0904 37.1029 36.2081 38.8068 35.8507C40.4939 35.4933 42.0581 35.8898 43.6223 36.7218C43.6223 35.0633 43.6223 33.4997 43.6223 31.8691C44.6334 31.8691 45.5942 31.8691 46.5942 31.8691C46.5998 37.3863 46.5998 42.8812 46.5998 48.4989ZM43.639 42.2837C43.639 40.2678 42.058 38.6763 40.0637 38.6819C38.0973 38.6875 36.4494 40.3404 36.455 42.3004C36.4661 44.2773 38.0973 45.8855 40.0805 45.8855C42.0916 45.8911 43.639 44.3219 43.639 42.2837Z" fill="#24FE7C"/>
<path d="M10.1155 36.6883C10.149 36.4705 10.1714 36.303 10.1993 36.0964C11.1546 36.0964 12.1042 36.0964 13.1153 36.0964C13.1153 40.2064 13.1153 44.2884 13.1153 48.4431C12.1768 48.4431 11.2328 48.4431 10.2217 48.4431C10.1937 48.3202 10.1491 48.1415 10.1044 47.9573C6.27216 49.6604 3.04884 49.0462 0.797562 45.3215C-0.174455 43.7077 -0.196813 41.9151 0.400922 40.1226C1.47349 36.9396 5.56265 34.2424 10.1155 36.6883ZM10.1546 42.239C10.1546 40.2678 8.59042 38.7042 6.61845 38.6874C4.65207 38.6707 3.00415 40.3069 2.99298 42.2837C2.9818 44.2605 4.60742 45.8688 6.59056 45.9023C8.62956 45.9302 10.3948 44.0483 10.1546 42.239Z" fill="#24FE7C"/>
<path d="M57.7779 36.6883C57.8115 36.4761 57.8449 36.2918 57.8729 36.0852C58.8393 36.0852 59.789 36.0852 60.789 36.0852C60.789 40.2119 60.789 44.3051 60.789 48.4486C59.8225 48.4486 58.8728 48.4486 57.8841 48.4486C57.8505 48.2979 57.8115 48.1192 57.7779 47.9796C53.4821 49.7274 50.0409 48.9289 48.1248 44.4782C47.0355 41.9486 47.7226 39.4915 49.7225 37.5985C52.1134 35.3369 54.8619 35.1805 57.7779 36.6883ZM57.8282 42.3451C57.8282 40.2622 56.264 38.6651 54.2474 38.6874C52.2698 38.7097 50.6331 40.3627 50.6554 42.3227C50.6778 44.3051 52.3034 45.8966 54.2977 45.8911C56.2864 45.8855 57.8226 44.3331 57.8282 42.3451Z" fill="#24FE7C"/>
<path d="M62.2359 44.4224C63.3364 44.4224 64.3866 44.4224 65.4425 44.4224C66.2134 46.0195 67.6602 46.6561 69.3305 46.0139C69.7439 45.852 70.2188 45.3773 70.2914 44.9808C70.3417 44.7184 69.783 44.1711 69.3975 44.0315C68.4311 43.6853 67.4088 43.501 66.4089 43.2441C66.0067 43.138 65.5933 43.0487 65.2022 42.9091C63.9062 42.4456 62.8615 41.7252 62.6884 40.2231C62.504 38.5925 63.0404 37.2299 64.476 36.3923C65.1352 36.007 65.9396 35.711 66.6882 35.6943C67.9954 35.6663 69.3473 35.7278 70.6154 36.0405C72.3583 36.4649 73.1907 37.7493 73.2521 39.7037C72.7214 39.7037 72.1963 39.7037 71.6656 39.7037C71.1517 39.7037 70.6377 39.7037 70.1406 39.7037C69.4479 38.1848 68.1965 37.6432 66.6547 38.2574C66.3139 38.397 65.9564 38.8382 65.8894 39.1956C65.8447 39.4245 66.2525 39.9048 66.5541 40.0109C67.5429 40.3571 68.582 40.586 69.5987 40.8652C70.1406 41.016 70.6992 41.1389 71.2243 41.3343C72.4924 41.809 73.4812 42.5852 73.6096 44.0427C73.7549 45.6398 73.2186 46.952 71.7885 47.7953C70.3249 48.6552 68.7105 48.8395 67.0793 48.6106C66.0737 48.4654 65.0458 48.2029 64.1353 47.7618C62.8337 47.1196 62.2024 45.958 62.2359 44.4224Z" fill="#24FE7C"/>
<path d="M23.9194 31.8133C22.9697 31.8133 22.21 31.8133 21.4502 31.8133C17.618 31.8133 13.7858 31.8077 9.95918 31.8244C9.48435 31.8244 9.19384 31.7072 8.9648 31.2772C8.57935 30.5457 8.12129 29.8476 7.65762 29.0714C11.2329 26.9271 14.7802 24.8051 18.3945 22.6384C20.2212 25.6762 22.0256 28.6694 23.9194 31.8133Z" fill="#24FE7C"/>
<path d="M32.2821 35.7725C32.2821 40.0165 32.2821 44.2102 32.2821 48.4542C31.2039 48.4542 30.1649 48.4542 29.0811 48.4542C29.0811 44.2214 29.0811 40.0276 29.0811 35.7725C30.1202 35.7725 31.1648 35.7725 32.2821 35.7725Z" fill="#24FE7C"/>
</svg>
