<svg width="143" height="31" viewBox="0 0 143 31" fill="none" xmlns="http://www.w3.org/2000/svg">
<path d="M13.8438 8.1753L19.0056 16.2724C19.1117 16.4399 19.2961 16.5405 19.4916 16.5405H31.7591C31.9602 16.5405 32.139 16.4399 32.2451 16.2724L37.1555 8.47126C37.2728 8.28698 37.2728 8.05245 37.1611 7.86817L33.8875 2.47382C33.7814 2.30071 33.597 2.19461 33.3959 2.19461H17.7766C17.5755 2.19461 17.3855 2.30071 17.285 2.47382L13.8438 8.1753ZM18.6089 23.4091L19.6759 27.0611C19.877 27.7536 20.5195 28.2394 21.2345 28.2394H30.167C30.8877 28.2394 31.5245 27.7591 31.7256 27.0667L32.7814 23.4091H18.6089ZM35.5355 22.3257C35.5858 22.3927 35.6305 22.4597 35.6751 22.5267L39.0325 27.9602C39.1387 28.1333 39.323 28.2338 39.5241 28.2338H48.5851C48.8924 28.2338 49.0376 28.0272 49.0879 27.9378C49.1382 27.8485 49.2331 27.614 49.0711 27.3515L45.116 20.9967C44.5909 20.1479 44.563 19.1204 45.049 18.2437C45.535 17.3725 46.4232 16.8476 47.4232 16.8476H54.5848C55.501 16.8476 56.244 16.1049 56.244 15.1891V12.6259C56.244 10.4034 54.9032 8.22555 52.976 7.33208C52.9033 7.29857 52.8251 7.26507 52.7525 7.23156C51.8252 6.85184 50.7638 6.67314 49.5013 6.70106C48.4678 6.72339 47.5796 6.86859 46.8031 7.15897C45.5685 7.61129 44.6579 8.23114 43.9373 9.10228C43.8256 9.2363 43.6468 9.47643 43.5183 9.64954L43.4848 9.69421L35.5355 22.3257ZM48.5795 30.434H39.5185C38.5465 30.434 37.6639 29.9426 37.1555 29.1161L34.6137 24.9949L33.8372 27.6698C33.368 29.2948 31.8597 30.4284 30.167 30.4284H21.2345C19.5419 30.4284 18.0336 29.2948 17.5643 27.6698L16.7822 25.0061L14.246 29.1161C13.7377 29.9426 12.855 30.434 11.883 30.434H2.77733C1.76062 30.434 0.861223 29.9091 0.364041 29.0268C-0.133141 28.1445 -0.121969 27.1002 0.403145 26.2291L15.4024 1.34023C15.8996 0.513761 16.8102 0 17.7822 0H33.4071C34.3735 0 35.2785 0.513756 35.7813 1.33464L39.0549 6.72899C39.6023 7.63363 39.5967 8.75047 39.0325 9.64395L34.1221 17.4451C33.6138 18.2548 32.7312 18.7406 31.7759 18.7406H19.4916C18.5363 18.7406 17.6649 18.2604 17.1509 17.4563L12.5813 10.2805L2.28573 27.3682C2.12932 27.6251 2.22987 27.8596 2.28015 27.949C2.33042 28.0383 2.47567 28.2394 2.78292 28.2394H11.8942C12.0953 28.2394 12.2797 28.1389 12.3858 27.9658L15.7432 22.5323C16.2515 21.7059 17.1342 21.2144 18.1062 21.2144H33.3289C33.435 21.2144 33.5412 21.22 33.6473 21.2312L41.6749 8.45451L41.7586 8.34282C41.9095 8.14179 42.0938 7.89051 42.2447 7.70623C43.2223 6.52237 44.4289 5.69032 46.0434 5.09839C47.0545 4.72425 48.1717 4.53439 49.4566 4.50646C51.004 4.47854 52.3894 4.71308 53.5849 5.20449C53.691 5.24917 53.7916 5.29385 53.8977 5.33852C56.6127 6.60056 58.4394 9.52668 58.4394 12.6259V15.1891C58.4394 17.3167 56.7076 19.0477 54.5792 19.0477H47.4232C47.1494 19.0477 47.0154 19.232 46.9707 19.3102C46.926 19.3884 46.8366 19.6006 46.9818 19.8351L50.937 26.19C51.4788 27.0555 51.5012 28.1109 51.004 29.0044C50.5068 29.9035 49.6018 30.434 48.5795 30.434Z" fill="white"/>
<path d="M50.3951 10.9004C50.3951 11.5426 49.8756 12.0564 49.2387 12.0564C48.6019 12.0564 48.0824 11.537 48.0824 10.9004C48.0824 10.2638 48.6019 9.74451 49.2387 9.74451C49.8756 9.74451 50.3951 10.2583 50.3951 10.9004Z" fill="white"/>
<path d="M93.6275 23.6995C93.8231 23.5096 93.9236 23.2639 93.9236 22.9679C93.9236 22.6664 93.8231 22.4207 93.6275 22.2308C93.432 22.0409 93.203 21.946 92.9404 21.946C92.6611 21.946 92.4265 22.0409 92.2365 22.2308C92.0522 22.4207 91.9572 22.6664 91.9572 22.9735C91.9572 23.2807 92.0522 23.5264 92.2421 23.7106C92.4321 23.8949 92.6667 23.9898 92.9404 23.9898C93.203 23.9843 93.432 23.8893 93.6275 23.6995ZM94.3314 25.1904H93.9236V23.867C93.6778 24.1909 93.3315 24.3528 92.879 24.3528C92.5215 24.3528 92.2086 24.2244 91.9516 23.9675C91.6947 23.7107 91.5662 23.3756 91.5662 22.9735C91.5662 22.5659 91.6947 22.2364 91.9516 21.9795C92.2086 21.7226 92.5159 21.5942 92.879 21.5942C93.3315 21.5942 93.6778 21.7562 93.9236 22.0801V21.6557H94.3314V25.1904Z" fill="white"/>
<path d="M97.3984 24.2746H96.985V23.8502C96.7615 24.1797 96.4319 24.3472 95.9906 24.3472C95.6722 24.3472 95.4208 24.2467 95.2253 24.0401C95.0298 23.8335 94.9348 23.5654 94.9348 23.2304V21.6556H95.3482V23.1578C95.3482 23.4035 95.4152 23.5989 95.5493 23.7497C95.6834 23.9005 95.8566 23.9731 96.0744 23.9731C96.3537 23.9731 96.5772 23.8837 96.7392 23.6995C96.9012 23.5152 96.985 23.2583 96.985 22.9232V21.6556H97.3984V24.2746Z" fill="white"/>
<path d="M98.605 22.1582C98.4207 22.3034 98.3089 22.4988 98.2698 22.7445H100.102C100.069 22.4933 99.9681 22.2978 99.8061 22.1526C99.6441 22.013 99.4486 21.9404 99.2251 21.9404C98.9961 21.9404 98.7894 22.013 98.605 22.1582ZM100.516 23.0461H98.2587C98.2754 23.3309 98.376 23.5598 98.5603 23.7329C98.7447 23.906 98.957 23.9898 99.1972 23.9898C99.6273 23.9898 99.929 23.7999 100.097 23.4258L100.46 23.5096C100.359 23.7776 100.197 23.9898 99.9793 24.1294C99.7614 24.2746 99.4988 24.3472 99.2028 24.3472C98.8396 24.3472 98.5268 24.2188 98.2643 23.9619C98.0017 23.705 97.8676 23.3755 97.8676 22.9679C97.8676 22.5602 98.0017 22.2252 98.2698 21.9683C98.538 21.7114 98.8564 21.583 99.2307 21.583C99.5882 21.583 99.8899 21.7058 100.136 21.946C100.381 22.1917 100.51 22.5044 100.521 22.8953V23.0461H100.516Z" fill="white"/>
<path d="M102.51 20.4382H102.102V24.2802H102.51V20.4382Z" fill="white"/>
<path d="M105.08 23.6994C105.275 23.5095 105.37 23.2638 105.37 22.9623C105.37 22.6663 105.275 22.4262 105.08 22.2363C104.884 22.0465 104.649 21.9515 104.376 21.9515C104.096 21.9515 103.862 22.0465 103.666 22.2363C103.471 22.4262 103.37 22.6719 103.37 22.9623C103.37 23.2638 103.471 23.5039 103.666 23.6994C103.862 23.8893 104.096 23.9898 104.376 23.9898C104.649 23.9898 104.884 23.8893 105.08 23.6994ZM105.364 21.9794C105.633 22.2363 105.767 22.5658 105.767 22.9623C105.767 23.3587 105.633 23.6882 105.364 23.9507C105.096 24.2131 104.767 24.3416 104.376 24.3416C103.979 24.3416 103.649 24.2131 103.381 23.9507C103.113 23.6882 102.979 23.3587 102.979 22.9623C102.979 22.5658 103.113 22.2363 103.381 21.9794C103.649 21.7226 103.979 21.5942 104.376 21.5942C104.767 21.5886 105.096 21.717 105.364 21.9794Z" fill="white"/>
<path d="M109.437 23.705C109.627 23.5207 109.722 23.2694 109.722 22.9679C109.722 22.6607 109.627 22.415 109.437 22.2252C109.247 22.0353 109.012 21.9404 108.739 21.9404C108.482 21.9404 108.253 22.0353 108.051 22.2252C107.856 22.415 107.755 22.6607 107.755 22.9623C107.755 23.2638 107.856 23.504 108.051 23.6938C108.247 23.8837 108.476 23.9786 108.739 23.9786C109.018 23.9842 109.247 23.8949 109.437 23.705ZM109.727 21.9739C109.984 22.2308 110.113 22.5658 110.113 22.9679C110.113 23.3755 109.984 23.705 109.727 23.9619C109.47 24.2188 109.163 24.3472 108.8 24.3472C108.348 24.3472 108.001 24.1853 107.755 23.8614V24.2802H107.348V20.4382H107.755V22.0688C108.001 21.7449 108.348 21.583 108.8 21.583C109.163 21.583 109.47 21.7114 109.727 21.9739Z" fill="white"/>
<path d="M112.984 24.2746H112.571V23.8502C112.347 24.1797 112.018 24.3472 111.576 24.3472C111.258 24.3472 111.007 24.2467 110.811 24.0401C110.616 23.8335 110.521 23.5654 110.521 23.2304V21.6556H110.934V23.1578C110.934 23.4035 111.001 23.5989 111.135 23.7497C111.269 23.9005 111.442 23.9731 111.66 23.9731C111.94 23.9731 112.163 23.8837 112.325 23.6995C112.487 23.5152 112.571 23.2583 112.571 22.9232V21.6556H112.984V24.2746Z" fill="white"/>
<path d="M114.191 22.1582C114.006 22.3034 113.895 22.4988 113.856 22.7445H115.688C115.654 22.4933 115.554 22.2978 115.386 22.1526C115.224 22.013 115.029 21.9404 114.805 21.9404C114.582 21.9404 114.375 22.013 114.191 22.1582ZM116.101 23.0461H113.844C113.861 23.3309 113.962 23.5598 114.146 23.7329C114.33 23.906 114.543 23.9898 114.783 23.9898C115.213 23.9898 115.515 23.7999 115.682 23.4258L116.045 23.5096C115.945 23.7776 115.783 23.9898 115.565 24.1294C115.347 24.2746 115.085 24.3472 114.789 24.3472C114.425 24.3472 114.113 24.2188 113.85 23.9619C113.587 23.705 113.453 23.3755 113.453 22.9679C113.453 22.5602 113.587 22.2252 113.856 21.9683C114.124 21.7114 114.442 21.583 114.816 21.583C115.174 21.583 115.476 21.7058 115.721 21.946C115.967 22.1917 116.096 22.5044 116.107 22.8953V23.0461H116.101Z" fill="white"/>
<path d="M118.738 21.8957C118.934 22.1023 119.029 22.3704 119.029 22.7054V24.2802H118.621V22.778C118.621 22.5323 118.554 22.3369 118.42 22.1805C118.286 22.0298 118.107 21.9516 117.889 21.9516C117.61 21.9516 117.386 22.0465 117.224 22.2308C117.062 22.415 116.978 22.6775 116.978 23.0126V24.2802H116.571V21.65H116.978V22.0856C117.202 21.7505 117.531 21.583 117.973 21.583C118.286 21.583 118.543 21.6891 118.738 21.8957Z" fill="white"/>
<path d="M121.537 23.6994C121.732 23.5095 121.827 23.2638 121.827 22.9623C121.827 22.6663 121.732 22.4262 121.537 22.2363C121.341 22.0465 121.107 21.9515 120.833 21.9515C120.554 21.9515 120.319 22.0465 120.123 22.2363C119.928 22.4262 119.827 22.6719 119.827 22.9623C119.827 23.2638 119.928 23.5039 120.123 23.6994C120.319 23.8893 120.554 23.9898 120.833 23.9898C121.107 23.9898 121.341 23.8893 121.537 23.6994ZM121.822 21.9794C122.09 22.2363 122.224 22.5658 122.224 22.9623C122.224 23.3587 122.09 23.6882 121.822 23.9507C121.554 24.2131 121.224 24.3416 120.833 24.3416C120.436 24.3416 120.107 24.2131 119.839 23.9507C119.57 23.6882 119.436 23.3587 119.436 22.9623C119.436 22.5658 119.57 22.2363 119.839 21.9794C120.107 21.7226 120.442 21.5942 120.833 21.5942C121.224 21.5886 121.554 21.717 121.822 21.9794Z" fill="white"/>
<path d="M125.894 23.705C126.084 23.5207 126.179 23.2694 126.179 22.9679C126.179 22.6608 126.084 22.415 125.894 22.2252C125.704 22.0353 125.475 21.9404 125.196 21.9404C124.939 21.9404 124.71 22.0353 124.509 22.2252C124.313 22.415 124.213 22.6607 124.213 22.9623C124.213 23.2638 124.313 23.504 124.509 23.6938C124.704 23.8837 124.933 23.9786 125.196 23.9786C125.47 23.9842 125.704 23.8949 125.894 23.705ZM126.185 21.9739C126.442 22.2308 126.57 22.5658 126.57 22.9679C126.57 23.3755 126.442 23.705 126.185 23.9619C125.928 24.2188 125.62 24.3472 125.257 24.3472C124.805 24.3472 124.458 24.1853 124.213 23.8614V25.1848H123.805V21.6444H124.213V22.0688C124.458 21.7449 124.805 21.583 125.257 21.583C125.62 21.583 125.928 21.7115 126.185 21.9739Z" fill="white"/>
<path d="M127.548 22.1582C127.363 22.3034 127.252 22.4988 127.212 22.7445H129.045C129.011 22.4933 128.911 22.2978 128.743 22.1526C128.581 22.013 128.386 21.9404 128.162 21.9404C127.933 21.9404 127.732 22.013 127.548 22.1582ZM129.453 23.0461H127.196C127.212 23.3309 127.313 23.5598 127.497 23.7329C127.682 23.906 127.894 23.9898 128.134 23.9898C128.564 23.9898 128.866 23.7999 129.034 23.4258L129.397 23.5096C129.296 23.7776 129.134 23.9898 128.916 24.1294C128.698 24.2746 128.436 24.3472 128.14 24.3472C127.777 24.3472 127.464 24.2188 127.201 23.9619C126.939 23.705 126.805 23.3755 126.805 22.9679C126.805 22.5602 126.939 22.2252 127.207 21.9683C127.475 21.7114 127.793 21.583 128.168 21.583C128.525 21.583 128.827 21.7058 129.073 21.946C129.319 22.1917 129.447 22.5044 129.458 22.8953V23.0461H129.453Z" fill="white"/>
<path d="M131.581 21.6444L131.548 22.0353C131.514 22.0298 131.464 22.0297 131.391 22.0297C131.05 22.0297 130.793 22.1414 130.609 22.3704C130.425 22.5993 130.335 22.8953 130.335 23.2695V24.2858H129.922V21.6556H130.335V22.3034C130.581 21.8566 130.933 21.6332 131.391 21.6332C131.469 21.6221 131.531 21.6277 131.581 21.6444Z" fill="white"/>
<path d="M133.615 23.6995C133.81 23.5096 133.911 23.2639 133.911 22.9679C133.911 22.6664 133.81 22.4207 133.615 22.2308C133.419 22.0409 133.19 21.946 132.927 21.946C132.648 21.946 132.413 22.0409 132.224 22.2308C132.039 22.4207 131.944 22.6664 131.944 22.9735C131.944 23.2807 132.039 23.5264 132.229 23.7106C132.419 23.8949 132.654 23.9899 132.927 23.9899C133.19 23.9843 133.419 23.8893 133.615 23.6995ZM134.318 24.2802H133.911V23.8614C133.665 24.1853 133.318 24.3473 132.866 24.3473C132.508 24.3473 132.196 24.2188 131.939 23.9619C131.682 23.7051 131.553 23.37 131.553 22.9679C131.553 22.5603 131.682 22.2308 131.939 21.974C132.196 21.7171 132.503 21.5886 132.866 21.5886C133.318 21.5886 133.665 21.7506 133.911 22.0745V20.4438H134.318V24.2802Z" fill="white"/>
<path d="M137.424 24.2746H137.011V23.8502C136.788 24.1797 136.458 24.3472 136.017 24.3472C135.698 24.3472 135.447 24.2467 135.251 24.0401C135.056 23.8335 134.961 23.5654 134.961 23.2304V21.6556H135.374V23.1578C135.374 23.4035 135.441 23.5989 135.575 23.7497C135.709 23.9005 135.883 23.9731 136.1 23.9731C136.38 23.9731 136.603 23.8837 136.765 23.6995C136.927 23.5152 137.011 23.2583 137.011 22.9232V21.6556H137.424V24.2746Z" fill="white"/>
<path d="M139.787 21.6444L139.754 22.0353C139.72 22.0298 139.67 22.0297 139.597 22.0297C139.257 22.0297 139 22.1414 138.815 22.3704C138.631 22.5993 138.542 22.8953 138.542 23.2695V24.2858H138.128V21.6556H138.542V22.3034C138.787 21.8566 139.139 21.6332 139.597 21.6332C139.676 21.6221 139.737 21.6277 139.787 21.6444Z" fill="white"/>
<path d="M140.536 22.1582C140.352 22.3034 140.24 22.4988 140.201 22.7445H142.033C141.999 22.4933 141.899 22.2978 141.731 22.1526C141.569 22.013 141.374 21.9404 141.15 21.9404C140.927 21.9404 140.72 22.013 140.536 22.1582ZM142.446 23.0461H140.19C140.206 23.3309 140.307 23.5598 140.491 23.7329C140.676 23.906 140.888 23.9898 141.128 23.9898C141.558 23.9898 141.86 23.7999 142.027 23.4258L142.391 23.5096C142.29 23.7776 142.128 23.9898 141.91 24.1294C141.692 24.2746 141.43 24.3472 141.134 24.3472C140.77 24.3472 140.458 24.2188 140.195 23.9619C139.933 23.705 139.798 23.3755 139.798 22.9679C139.798 22.5602 139.933 22.2252 140.201 21.9683C140.469 21.7114 140.787 21.583 141.162 21.583C141.519 21.583 141.821 21.7058 142.067 21.946C142.312 22.1917 142.441 22.5044 142.452 22.8953V23.0461H142.446Z" fill="white"/>
<path d="M73.9973 4.38916H76.3547V6.58934H73.9973V4.38916ZM73.9917 7.75644H76.3603V16.5125H73.9917V7.75644Z" fill="white"/>
<path d="M82.0695 14.5246C83.4437 14.5246 84.4549 13.5027 84.4549 12.1401C84.4549 10.7664 83.4437 9.7389 82.0695 9.7389C80.6953 9.7389 79.6841 10.7664 79.6841 12.1401C79.6841 13.4915 80.6953 14.5246 82.0695 14.5246ZM86.8681 12.1345C86.8681 14.787 84.9353 16.7583 82.265 16.7583C81.198 16.7583 80.254 16.3953 79.5221 15.781L79.2428 16.5125H77.4943V4.60144H79.8629V8.23118C80.5389 7.77327 81.36 7.51081 82.265 7.51081C84.9353 7.51081 86.8681 9.48203 86.8681 12.1345Z" fill="white"/>
<path d="M92.8511 7.70618V9.93986H91.8232C90.4881 9.93986 89.963 10.5318 89.963 11.9613V16.5125H87.5944V7.75643H89.1138L89.5328 8.82861C90.1585 8.0524 90.9461 7.70618 92.0746 7.70618H92.8511Z" fill="white"/>
<path d="M100.437 12.1233C100.437 10.7496 99.4262 9.72209 98.052 9.72209C96.6778 9.72209 95.6666 10.7496 95.6666 12.1233C95.6666 13.497 96.6778 14.5245 98.052 14.5245C99.4262 14.5245 100.437 13.497 100.437 12.1233ZM102.756 7.74529V16.5013H100.901L100.7 15.7195C99.9458 16.3785 98.9682 16.7638 97.8621 16.7638C95.2253 16.7638 93.2645 14.7758 93.2645 12.1233C93.2645 9.48198 95.2253 7.51074 97.8621 7.51074C98.9849 7.51074 99.9849 7.90723 100.739 8.58292L100.99 7.74529H102.756Z" fill="white"/>
<path d="M109.906 9.82824H107.705V16.5126H105.336V9.82824H103.817V7.87377H105.348V7.08082C105.348 5.40555 106.286 4.33337 108.13 4.33337H109.895V6.1985H108.61C107.984 6.1985 107.649 6.52239 107.649 7.14224V7.87377H109.917L109.906 9.82824Z" fill="white"/>
<path d="M117.263 12.1345C117.263 10.7161 116.297 9.73327 114.928 9.73327C113.565 9.73327 112.593 10.7161 112.593 12.1345C112.593 13.5529 113.56 14.5357 114.928 14.5357C116.291 14.5357 117.263 13.5529 117.263 12.1345ZM110.191 12.1345C110.191 9.47639 112.213 7.51074 114.928 7.51074C117.626 7.51074 119.665 9.48197 119.665 12.1345C119.665 14.7758 117.632 16.7582 114.928 16.7582C112.213 16.7638 110.191 14.7758 110.191 12.1345Z" fill="white"/>
<path d="M125.643 7.70618V9.93986H124.615C123.28 9.93986 122.755 10.5318 122.755 11.9613V16.5125H120.386V7.75643H121.906L122.325 8.82861C122.95 8.0524 123.738 7.70618 124.866 7.70618H125.643Z" fill="white"/>
<path d="M132.732 14.4073V16.5182H131.05C129.123 16.5182 127.939 15.3343 127.939 13.391V9.66632H126.352V9.15256L129.81 5.47815H130.263V7.76209H132.681V9.66632H130.302V13.0783C130.302 13.9271 130.788 14.4129 131.654 14.4129H132.732V14.4073Z" fill="white"/>
<path d="M135.832 11.1796H140.078C139.743 10.1074 138.972 9.52669 137.91 9.52669C136.855 9.53227 136.106 10.1465 135.832 11.1796ZM142.446 12.1066C142.446 12.3355 142.43 12.5701 142.402 12.799H135.771C135.977 13.9941 136.765 14.653 137.91 14.653C138.732 14.653 139.408 14.2621 139.771 13.6367H142.262C141.625 15.5465 139.949 16.7638 137.916 16.7638C135.329 16.7638 133.374 14.7647 133.374 12.1401C133.374 9.50435 135.318 7.51637 137.916 7.51637C140.603 7.51078 142.446 9.58253 142.446 12.1066Z" fill="white"/>
<path d="M72.9526 6.79043H68.3104V9.46527H72.5001V11.8497H68.3104V16.5126H65.6792V4.33337H72.9526V6.79043Z" fill="white"/>
</svg>
