<svg width="81" height="275" viewBox="0 0 81 275" fill="none" xmlns="http://www.w3.org/2000/svg">
<path d="M149.111 273C67.5305 273 2 257.355 2 237.921C2 222.276 43.4409 209.176 101.337 204.52C43.412 199.864 2 186.33 2 171.118C2 155.473 43.4409 142.373 101.337 137.717C43.412 133.061 2 119.527 2 104.315C2 88.6703 43.4409 75.1362 101.337 70.914C43.412 66.258 2 52.7239 2 37.0788C2 17.6452 67.5305 2 149.111 2C230.287 2 296.222 17.6452 296.222 37.0788C296.222 52.7239 254.781 66.258 196.451 70.914C254.781 75.1362 296.222 88.6703 296.222 104.315C296.222 119.527 254.781 133.061 196.451 137.717C254.781 142.373 296.222 155.473 296.222 171.118C296.222 186.33 254.781 199.864 196.451 204.52C254.781 209.176 296.222 222.276 296.222 237.921C296.251 257.355 230.287 273 149.111 273Z" stroke="#24FE7C" stroke-width="3.24186" stroke-miterlimit="10"/>
</svg>
