<svg width="412" height="814" viewBox="0 0 412 814" fill="none" xmlns="http://www.w3.org/2000/svg">
<path d="M125.851 492.088C149.003 517.878 163.635 552.823 164.557 589.943C166.802 675.99 99.1963 747.247 14.0684 749.417C-71.9784 751.661 -143.236 684.056 -145.409 597.938C-146.403 560.748 -133.601 525.271 -111.786 498.175C-94.8449 472.299 -85.9129 441.717 -86.6751 409.405C-87.5115 376.174 -99.162 344.187 -117.357 320.216C-140.513 293.436 -154.148 260.467 -155.074 222.357C-157.314 137.3 -89.5634 67.0327 -3.51662 64.7885C81.5403 62.5482 152.723 129.235 154.963 214.292C155.961 252.472 144.07 286.035 123.319 313.905C105.385 338.795 95.4703 371.361 96.3068 404.592C97.0695 437.045 107.652 467.127 125.851 492.088Z" stroke="#24FE7C" stroke-width="4" stroke-miterlimit="10"/>
</svg>
