<svg width="102" height="82" viewBox="0 0 102 82" fill="none" xmlns="http://www.w3.org/2000/svg">
<path d="M86.372 13.1549C78.8164 4.55665 69.6701 0 59.9076 0C50.2643 0 40.8596 4.67552 33.4631 13.1351C31.276 15.6313 29.2877 18.3059 27.5579 21.1389C25.828 18.3059 23.8596 15.6313 21.6725 13.1351C18.2924 9.29161 14.5146 6.30007 10.4982 4.10099V0.911329H0V11.3718H10.4982V9.39067C13.2222 11.1737 15.8269 13.3926 18.2327 16.1464C20.8175 19.0983 23.0842 22.3276 24.9929 25.7946C20.3204 35.1457 17.8947 45.9826 17.8947 57.8101C17.8947 72.4904 21.6924 82 27.5778 82C33.4632 82 37.2608 72.5103 37.2608 57.8101C37.2608 46.0024 34.8351 35.1655 30.1625 25.7946C32.0713 22.3276 34.338 19.0983 36.9427 16.1464C43.5637 8.55858 51.517 4.55665 59.9474 4.55665C68.338 4.55665 76.3111 8.55858 82.9521 16.1464C92.4164 26.9239 97.4269 41.3269 97.4269 57.7903C97.4269 71.282 90.8257 77.4037 84.7017 77.4037C78.5778 77.4037 71.9766 71.2621 71.9766 57.7903C71.9766 52.5798 72.5135 47.5477 73.5076 42.7731L79.8304 45.0713L78.6772 21.555L62.6316 38.8504L69.1532 41.208C68 46.4779 67.3836 52.0449 67.3836 57.7903C67.3836 65.0611 69.1731 71.2225 72.5532 75.6009C75.6749 79.6424 80.1087 81.9604 84.7017 81.9604C93.0327 81.9604 102 74.3924 102 57.7705C101.96 40.2175 96.572 24.7842 86.372 13.1549ZM32.6479 57.8101C32.6479 72.6093 28.8503 77.4235 27.538 77.4235C26.2257 77.4235 22.4281 72.5895 22.4281 57.8101C22.4281 48.0826 24.1579 39.0684 27.538 31.1239C30.8982 39.0882 32.6479 48.0826 32.6479 57.8101Z" fill="#24FE7C"/>
</svg>
