<svg width="296" height="764" viewBox="0 0 296 764" fill="none" xmlns="http://www.w3.org/2000/svg">
<path d="M414.283 761.486C185.651 761.486 2 717.64 2 663.177C2 619.331 118.14 582.617 280.395 569.568C118.059 556.52 2 518.59 2 475.96C2 432.114 118.14 395.4 280.395 382.351C118.059 369.303 2 331.373 2 288.742C2 244.896 118.14 206.967 280.395 195.134C118.059 182.085 2 144.155 2 100.309C2 45.8461 185.651 2 414.283 2C641.781 2 826.567 45.8461 826.567 100.309C826.567 144.155 710.427 182.085 546.956 195.134C710.427 206.967 826.567 244.896 826.567 288.742C826.567 331.373 710.427 369.303 546.956 382.351C710.427 395.4 826.567 432.114 826.567 475.96C826.567 518.59 710.427 556.52 546.956 569.568C710.427 582.617 826.567 619.331 826.567 663.177C826.648 717.64 641.781 761.486 414.283 761.486Z" stroke="#24FE7C" stroke-width="3.24186" stroke-miterlimit="10"/>
</svg>
