<svg width="21" height="21" viewBox="0 0 21 21" fill="none" xmlns="http://www.w3.org/2000/svg">
<path fill-rule="evenodd" clip-rule="evenodd" d="M5.94767 0.0607187C7.02681 0.0110397 7.37088 0 10.1198 0C12.8687 0 13.2128 0.0119597 14.291 0.0607187C15.3692 0.109478 16.1052 0.281514 16.7492 0.530828C17.4235 0.785663 18.0353 1.18401 18.5413 1.6992C19.0565 2.20427 19.4539 2.81514 19.7078 3.4904C19.958 4.13439 20.1292 4.87037 20.1788 5.94675C20.2285 7.02773 20.2396 7.3718 20.2396 10.1198C20.2396 12.8687 20.2276 13.2127 20.1788 14.2919C20.1301 15.3683 19.958 16.1042 19.7078 16.7482C19.4539 17.4236 19.0558 18.0355 18.5413 18.5413C18.0353 19.0565 17.4235 19.4539 16.7492 19.7078C16.1052 19.958 15.3692 20.1292 14.2928 20.1788C13.2127 20.2285 12.8687 20.2396 10.1198 20.2396C7.37088 20.2396 7.02681 20.2276 5.94767 20.1788C4.87129 20.1301 4.13531 19.958 3.49132 19.7078C2.81599 19.4539 2.20411 19.0558 1.69828 18.5413C1.18344 18.0359 0.785032 17.4243 0.530828 16.7492C0.281514 16.1052 0.110398 15.3692 0.0607187 14.2928C0.0110397 13.2118 0 12.8678 0 10.1198C0 7.37088 0.0119597 7.02681 0.0607187 5.94859C0.109478 4.87037 0.281514 4.13439 0.530828 3.4904C0.785408 2.81521 1.18412 2.20364 1.6992 1.69828C2.20431 1.18356 2.81557 0.785151 3.4904 0.530828C4.13439 0.281514 4.87037 0.110398 5.94675 0.0607187H5.94767ZM14.2091 1.88228C13.1419 1.83352 12.8218 1.8234 10.1198 1.8234C7.4178 1.8234 7.09764 1.83352 6.03047 1.88228C5.04333 1.92736 4.5079 2.09203 4.15095 2.23095C3.679 2.41495 3.34137 2.63298 2.98717 2.98717C2.65142 3.31381 2.39303 3.71146 2.23095 4.15095C2.09203 4.5079 1.92736 5.04333 1.88228 6.03047C1.83352 7.09764 1.8234 7.4178 1.8234 10.1198C1.8234 12.8218 1.83352 13.1419 1.88228 14.2091C1.92736 15.1962 2.09203 15.7317 2.23095 16.0886C2.39287 16.5274 2.65138 16.9258 2.98717 17.2524C3.31377 17.5882 3.71212 17.8467 4.15095 18.0086C4.5079 18.1475 5.04333 18.3122 6.03047 18.3573C7.09764 18.406 7.41688 18.4162 10.1198 18.4162C12.8227 18.4162 13.1419 18.406 14.2091 18.3573C15.1962 18.3122 15.7317 18.1475 16.0886 18.0086C16.5606 17.8246 16.8982 17.6066 17.2524 17.2524C17.5882 16.9258 17.8467 16.5274 18.0086 16.0886C18.1475 15.7317 18.3122 15.1962 18.3573 14.2091C18.406 13.1419 18.4162 12.8218 18.4162 10.1198C18.4162 7.4178 18.406 7.09764 18.3573 6.03047C18.3122 5.04333 18.1475 4.5079 18.0086 4.15095C17.8246 3.679 17.6066 3.34137 17.2524 2.98717C16.9257 2.65145 16.5281 2.39306 16.0886 2.23095C15.7317 2.09203 15.1962 1.92736 14.2091 1.88228ZM8.82721 13.2394C9.54908 13.5399 10.3529 13.5805 11.1013 13.3542C11.8498 13.1279 12.4964 12.6487 12.9309 11.9986C13.3653 11.3485 13.5606 10.5677 13.4833 9.7896C13.406 9.01151 13.061 8.28439 12.5071 7.73243C12.1541 7.3796 11.7272 7.10943 11.2572 6.94138C10.7872 6.77333 10.2858 6.71158 9.78904 6.76058C9.29231 6.80957 8.81263 6.96809 8.38452 7.22472C7.9564 7.48135 7.59052 7.82971 7.3132 8.24472C7.03588 8.65973 6.85402 9.13107 6.78073 9.62479C6.70743 10.1185 6.74451 10.6224 6.88931 11.1C7.0341 11.5777 7.283 12.0173 7.6181 12.3873C7.95319 12.7572 8.36613 13.0482 8.82721 13.2394ZM6.4417 6.4417C6.92471 5.95869 7.49813 5.57554 8.12922 5.31414C8.7603 5.05273 9.4367 4.91819 10.1198 4.91819C10.8029 4.91819 11.4793 5.05273 12.1103 5.31414C12.7414 5.57554 13.3148 5.95869 13.7979 6.4417C14.2809 6.92471 14.664 7.49813 14.9254 8.12922C15.1868 8.7603 15.3214 9.4367 15.3214 10.1198C15.3214 10.8029 15.1868 11.4793 14.9254 12.1103C14.664 12.7414 14.2809 13.3148 13.7979 13.7979C12.8224 14.7733 11.4993 15.3214 10.1198 15.3214C8.74023 15.3214 7.41719 14.7733 6.4417 13.7979C5.46621 12.8224 4.91819 11.4993 4.91819 10.1198C4.91819 8.74023 5.46621 7.41719 6.4417 6.4417ZM16.475 5.69284C16.5947 5.57993 16.6905 5.44415 16.7568 5.29354C16.8231 5.14293 16.8585 4.98056 16.8609 4.81603C16.8633 4.6515 16.8326 4.48817 16.7708 4.33569C16.7089 4.18322 16.6171 4.0447 16.5007 3.92835C16.3844 3.812 16.2459 3.72018 16.0934 3.65832C15.9409 3.59646 15.7776 3.56582 15.613 3.56822C15.4485 3.57062 15.2861 3.606 15.1355 3.67228C14.9849 3.73856 14.8491 3.83438 14.7362 3.95407C14.5166 4.18686 14.3964 4.49605 14.4011 4.81603C14.4058 5.13601 14.5349 5.44157 14.7612 5.66785C14.9875 5.89413 15.2931 6.02332 15.613 6.02798C15.933 6.03265 16.2422 5.91242 16.475 5.69284Z" fill="#3822E4"/>
</svg>
