<svg width="196" height="72" viewBox="0 0 196 72" fill="none" xmlns="http://www.w3.org/2000/svg">
<path d="M137.24 59.4948H139.336L141.727 56.9663H139.446L137.24 59.4948Z" fill="#E4EDF5"/>
<path d="M195.003 45.0341C162.941 48.9192 58.6498 54.4009 25.72 54.4009C-7.20971 54.4009 0.203403 45.2464 3.8038 45.0341C6.78566 44.8588 195.003 45.0341 195.003 45.0341Z" fill="#E4EDF5"/>
<path d="M21.4642 14.5714L18.4177 41.2413H26.754L29.302 23.6429C29.4312 22.5262 29.6897 21.7234 30.0682 21.225C30.456 20.7359 31.0376 20.4868 31.8315 20.4868C32.6162 20.4868 33.1516 20.7359 33.4194 21.225C33.6963 21.7141 33.7609 22.5262 33.6409 23.6429L31.6376 41.2413H39.9739L42.8081 21.1328C42.9743 19.6839 42.9281 18.5027 42.6696 17.5799C42.4111 16.657 42.0049 15.9188 41.4418 15.3651C40.8786 14.8021 40.1863 14.433 39.3554 14.23C38.5615 13.9993 37.666 13.8885 36.6782 13.8885C33.5209 13.8885 31.2222 15.199 29.7728 17.829H29.6713L29.7451 14.5714H21.4642Z" fill="#E4EDF5"/>
<path d="M44.756 14.5715L44.0728 20.533H47.027L45.4114 34.7261C45.2452 36.2026 45.236 37.4023 45.393 38.3251C45.5868 39.2111 45.9561 39.8847 46.4915 40.3461C47.0639 40.8076 47.8209 41.1029 48.7533 41.2321C49.695 41.3336 50.8397 41.3797 52.1876 41.3797C52.9446 41.3797 53.7385 41.3428 54.5693 41.2782C55.391 41.2413 55.6772 41.2321 56.4988 41.2321L57.7082 35.3167H56.3234C55.6033 35.3167 55.0771 35.1691 54.7448 34.8738C54.4493 34.5415 53.8123 34.0063 53.8954 33.2496L55.8895 20.533H59.3883L60.0715 14.5715H56.268L56.8681 9.71741H49.1872L47.7194 14.5715H44.756Z" fill="#E4EDF5"/>
<path d="M100.904 0H109.785L104.338 41.2505H95.9185L100.904 0Z" fill="#E4EDF5"/>
<path fill-rule="evenodd" clip-rule="evenodd" d="M116.985 27.8418C117.235 26.1715 117.475 24.7965 117.696 23.726C117.927 22.6463 118.186 21.8065 118.472 21.1882C118.758 20.5699 119.072 20.1546 119.404 19.9424C119.764 19.7209 120.198 19.6286 120.687 19.6378C121.177 19.6563 121.574 19.7855 121.869 20.0254C122.164 20.2654 122.349 20.6991 122.414 21.3266C122.515 21.9542 122.525 22.8124 122.423 23.8921C122.331 24.9718 122.155 26.3468 121.906 28.0172C121.657 29.6875 121.417 31.0625 121.195 32.133C120.974 33.1758 120.715 34.0063 120.429 34.6246C120.17 35.2429 119.866 35.6582 119.497 35.8704C119.136 36.0919 118.703 36.1842 118.213 36.175C117.724 36.1565 117.327 36.0273 117.032 35.7874C116.773 35.5474 116.588 35.1137 116.487 34.4862C116.385 33.8587 116.376 33.0189 116.468 31.9669C116.57 30.8872 116.736 29.5121 116.985 27.8418ZM130.796 27.9341C131.018 25.9962 131.11 24.1874 131.073 22.5079C131.073 20.8006 130.769 19.3056 130.15 18.0229C129.541 16.7402 128.516 15.7435 127.094 15.0145C125.663 14.2578 123.66 13.8794 121.057 13.8794C118.555 13.8794 116.505 14.2854 114.899 15.1067C113.33 15.9004 112.074 16.9432 111.132 18.2628C110.191 19.5733 109.498 21.0682 109.046 22.7478C108.621 24.4273 108.317 26.1346 108.114 27.8695C107.892 29.8075 107.781 31.6347 107.781 33.3419C107.818 35.0214 108.141 36.498 108.751 37.7807C109.36 39.0265 110.385 40.014 111.816 40.7338C113.247 41.4259 115.268 41.7673 117.862 41.7673C120.364 41.7673 122.395 41.389 123.955 40.6322C125.562 39.8478 126.827 38.8051 127.759 37.5315C128.701 36.2211 129.375 34.7261 129.799 33.0466C130.27 31.3855 130.593 29.6783 130.796 27.9341Z" fill="#E4EDF5"/>
<path d="M132.818 14.5715L132.135 20.533H135.098L133.483 34.7261C133.316 36.2026 133.307 37.4023 133.464 38.3251C133.658 39.2111 134.027 39.8847 134.563 40.3461C135.135 40.8076 135.892 41.1029 136.825 41.2321C137.766 41.3336 138.911 41.3797 140.259 41.3797C141.016 41.3797 141.81 41.3428 142.641 41.2782C143.462 41.2413 143.748 41.2321 144.57 41.2321L145.779 35.3167H144.395C143.674 35.3167 143.148 35.1691 142.816 34.8738C142.521 34.5415 141.884 34.0063 141.967 33.2496L143.961 20.533H147.46L148.143 14.5715H144.358L144.958 9.71741H137.277L135.772 14.5715H132.818Z" fill="#E4EDF5"/>
<path fill-rule="evenodd" clip-rule="evenodd" d="M62.3887 14.5715H70.6696L70.4849 18.8073C71.2604 17.1924 72.1836 15.9835 73.3653 15.1621C74.5469 14.3039 76.9656 13.8794 78.2766 13.8794L85.1635 13.9071L85.9851 13.8794C87.5268 13.8794 88.93 14.0086 90.1856 14.2762C91.478 14.5069 92.5397 14.9499 93.389 15.6051C94.2752 16.2326 94.8938 17.1001 95.263 18.2167C95.6692 19.3056 95.7708 20.7176 95.5677 22.4525L94.0814 35.4644C93.9429 36.7102 93.4444 40.3185 93.3705 41.2321H85.6805C85.5697 40.7707 85.505 40.2908 85.4958 39.8017L85.3758 38.2237C84.748 39.4049 83.8618 40.2908 82.7078 40.8814C81.5908 41.472 80.3353 41.7673 78.9597 41.7673C77.6119 41.7673 76.4856 41.5828 75.5716 41.2229C74.6854 40.8906 73.993 40.3831 73.476 39.691C72.9591 38.9988 72.6267 38.1775 72.479 37.227C72.3221 36.2765 72.3128 35.2245 72.4421 34.0709C72.5806 32.8251 72.8206 31.7362 73.1622 30.8133C73.5314 29.8905 74.0299 29.1061 74.6669 28.4509C75.3039 27.7588 76.1256 27.1866 77.1318 26.7252C78.1381 26.2361 79.3751 25.8208 80.8245 25.4978L84.4249 24.658C85.4035 24.4273 86.1143 24.1043 86.5575 23.6706C86.8437 23.4122 87.176 22.9877 87.2406 22.2772C87.3791 20.7729 86.8344 20.3853 85.3296 20.3853C85.0804 20.3853 84.0926 20.5792 82.8094 20.7822C75.6824 21.8988 71.1958 22.7939 70.0972 28.8754L67.7062 41.2229H59.3699L62.3887 14.5715ZM82.9755 35.9627C82.3201 35.9627 81.8216 35.7043 81.4892 35.1783C81.1569 34.6523 81.0369 33.9417 81.1384 33.0558C81.24 32.1699 81.4523 31.4593 81.7754 30.9333C82.0985 30.3796 82.6247 29.9274 83.354 29.6044C84.0464 29.3091 86.1974 28.737 86.5021 28.3771L86.2344 31.5793C86.0682 33.0558 85.7266 34.1632 85.2189 34.883C84.7111 35.6028 83.9633 35.9627 82.9755 35.9627Z" fill="#E4EDF5"/>
<path d="M10.2476 14.5715L7.51495 41.2414H15.8513L19.0085 14.5715H10.2476Z" fill="#E4EDF5"/>
<path fill-rule="evenodd" clip-rule="evenodd" d="M90.7764 71.0027L90.878 69.9783H90.8318C90.5733 70.2183 90.3333 70.4121 90.121 70.5689C89.9086 70.7258 89.7055 70.8366 89.4932 70.9289C89.2993 71.0119 89.1055 71.0673 88.9116 71.095C88.7085 71.1226 88.4962 71.1411 88.2561 71.1411C87.7392 71.1411 87.296 71.0119 86.936 70.7443C86.576 70.4674 86.2805 70.0983 86.059 69.6553C85.8559 69.1939 85.7174 68.6587 85.6528 68.0588C85.5882 67.459 85.5882 66.8223 85.6528 66.1486C85.7266 65.3919 85.8466 64.6813 86.0128 64.0076C86.1975 63.3247 86.4375 62.7249 86.7421 62.1989C87.0652 61.6636 87.4437 61.2484 87.8961 60.9438C88.3577 60.6393 88.9116 60.4824 89.5394 60.4824C90.0009 60.4824 90.3887 60.5562 90.6933 60.7131C91.0164 60.87 91.3026 61.1007 91.5703 61.4052L92.1058 56.0713H95.3369L93.8414 71.0119H90.7764V71.0027ZM91.4226 62.8356C91.3396 62.6972 91.2103 62.5865 91.0349 62.5034C90.878 62.4019 90.6749 62.3558 90.4441 62.3558C90.1763 62.3558 89.9548 62.4665 89.7794 62.688C89.6224 62.9002 89.484 63.1678 89.3824 63.5093C89.2901 63.8323 89.2255 64.183 89.1701 64.5613C89.1332 64.9212 89.0962 65.2627 89.0685 65.5672C89.0131 66.1117 88.967 66.61 88.9393 67.053C88.9116 67.4867 88.9116 67.8558 88.9301 68.1604C88.9578 68.4557 89.0224 68.6864 89.1332 68.8525C89.2439 69.0186 89.4009 69.1016 89.6132 69.1016C89.8532 69.1016 90.084 69.0278 90.3056 68.8894C90.5272 68.7325 90.721 68.5387 90.8687 68.2988L91.4226 62.8356Z" fill="#E4EDF5"/>
<path fill-rule="evenodd" clip-rule="evenodd" d="M98.8265 66.4899C98.8081 66.7114 98.7896 66.9698 98.7896 67.2651C98.7988 67.5604 98.845 67.828 98.9189 68.0864C98.9927 68.3355 99.1127 68.557 99.2974 68.7416C99.4728 68.9077 99.722 68.9908 100.027 68.9908C100.433 68.9908 100.793 68.8616 101.116 68.594C101.439 68.3263 101.67 67.9756 101.808 67.5419L103.904 68.3817C103.849 68.5109 103.729 68.7324 103.544 69.0554C103.369 69.3599 103.11 69.6829 102.759 70.0243C102.418 70.3473 101.984 70.6334 101.458 70.8826C100.941 71.1317 100.331 71.2609 99.6112 71.2609C98.845 71.2609 98.1803 71.1133 97.6356 70.818C97.1094 70.5134 96.6848 70.1074 96.3709 69.5998C96.057 69.0831 95.8447 68.4832 95.7339 67.8188C95.6231 67.1451 95.5954 66.4437 95.6693 65.7239C95.7431 64.9857 95.9093 64.2843 96.1493 63.6291C96.417 62.9555 96.7494 62.3741 97.1648 61.8665C97.5895 61.359 98.0972 60.9622 98.6696 60.6668C99.2604 60.3715 99.9251 60.2239 100.664 60.2239C101.448 60.2239 102.085 60.3807 102.593 60.7037C103.092 61.0267 103.479 61.4512 103.747 61.9865C104.033 62.5033 104.209 63.1031 104.283 63.7675C104.375 64.4228 104.384 65.0964 104.31 65.7793L104.236 66.4899H98.8265ZM101.439 64.4781C101.467 64.2289 101.476 63.9706 101.476 63.7214C101.476 63.4722 101.439 63.2508 101.375 63.0477C101.328 62.8355 101.227 62.6694 101.07 62.5402C100.931 62.411 100.719 62.3556 100.442 62.3556C100.221 62.3556 100.027 62.4202 99.8605 62.5402C99.6943 62.6694 99.5558 62.8355 99.4358 63.0477C99.3158 63.2415 99.2235 63.463 99.1589 63.7214C99.1035 63.9706 99.0666 64.2289 99.0389 64.4781H101.439Z" fill="#E4EDF5"/>
<path fill-rule="evenodd" clip-rule="evenodd" d="M116.432 60.2978C116.348 61.1468 116.136 61.8759 115.795 62.4849C115.471 63.0848 115.047 63.5739 114.539 63.9522C114.022 64.3306 113.45 64.6074 112.803 64.7735C112.157 64.9396 111.474 65.0227 110.763 65.0227C110.523 65.0227 110.292 65.0135 110.071 65.0042C109.859 64.995 109.637 64.9673 109.406 64.9396L108.797 71.0026H105.206L106.701 56.062H112.037C112.711 56.062 113.33 56.1451 113.902 56.3112C114.474 56.4773 114.954 56.7357 115.361 57.0864C115.758 57.4186 116.062 57.8523 116.256 58.3876C116.441 58.9228 116.505 59.5595 116.432 60.2978ZM112.683 60.5562C112.72 60.2055 112.674 59.9102 112.563 59.6703C112.462 59.4303 112.305 59.2458 112.093 59.1074C111.899 58.9689 111.668 58.8674 111.409 58.8121C111.151 58.7382 110.892 58.7105 110.643 58.7105H110.015L109.646 62.3834H110.274C110.523 62.3834 110.791 62.3557 111.059 62.3003C111.326 62.245 111.576 62.1435 111.797 62.005C112.037 61.8666 112.231 61.6728 112.379 61.4421C112.554 61.193 112.656 60.8976 112.683 60.5562Z" fill="#E4EDF5"/>
<path fill-rule="evenodd" clip-rule="evenodd" d="M119.33 66.4899C119.312 66.7114 119.293 66.9698 119.293 67.2651C119.303 67.5604 119.349 67.828 119.423 68.0864C119.497 68.3355 119.626 68.557 119.801 68.7416C119.977 68.9077 120.226 68.9908 120.53 68.9908C120.937 68.9908 121.297 68.8616 121.62 68.594C121.943 68.3263 122.174 67.9756 122.312 67.5419L124.408 68.3817C124.352 68.5109 124.232 68.7324 124.048 69.0554C123.872 69.3599 123.614 69.6829 123.254 70.0243C122.912 70.3473 122.478 70.6334 121.952 70.8826C121.435 71.1317 120.826 71.2609 120.106 71.2609C119.34 71.2609 118.675 71.1133 118.13 70.818C117.604 70.5134 117.179 70.1074 116.865 69.5998C116.552 69.0831 116.339 68.4832 116.228 67.8188C116.118 67.1451 116.09 66.4437 116.164 65.7239C116.238 64.9857 116.395 64.2843 116.644 63.6291C116.902 62.9555 117.244 62.3741 117.659 61.8665C118.084 61.359 118.592 60.9622 119.164 60.6668C119.755 60.3715 120.42 60.2239 121.158 60.2239C121.943 60.2239 122.58 60.3807 123.078 60.7037C123.577 61.0267 123.965 61.4512 124.232 61.9865C124.519 62.5033 124.694 63.1031 124.768 63.7675C124.86 64.4228 124.869 65.0964 124.796 65.7793L124.722 66.4899H119.33ZM121.952 64.4781C121.98 64.2289 121.989 63.9706 121.989 63.7214C121.989 63.4722 121.952 63.2508 121.888 63.0477C121.841 62.8355 121.74 62.6694 121.583 62.5402C121.444 62.411 121.232 62.3556 120.955 62.3556C120.734 62.3556 120.54 62.4202 120.374 62.5402C120.207 62.6694 120.06 62.8355 119.949 63.0477C119.829 63.2415 119.737 63.463 119.672 63.7214C119.617 63.9706 119.58 64.2289 119.552 64.4781H121.952Z" fill="#E4EDF5"/>
<path fill-rule="evenodd" clip-rule="evenodd" d="M132.504 63.6568C132.292 63.5738 132.079 63.5 131.876 63.4446C131.673 63.3892 131.452 63.3615 131.212 63.3615C130.676 63.3615 130.288 63.4354 130.039 63.5738C129.799 63.7122 129.578 63.9152 129.365 64.1829L128.682 71.0026H125.451L126.503 60.4731H129.67L129.513 62.0696H129.559C129.688 61.7374 129.873 61.4513 130.104 61.2298C130.353 60.9899 130.621 60.8053 130.916 60.6669C131.221 60.51 131.544 60.3993 131.876 60.3347C132.209 60.2608 132.532 60.2332 132.855 60.2332L132.504 63.6568Z" fill="#E4EDF5"/>
<path fill-rule="evenodd" clip-rule="evenodd" d="M137.48 71.0026L137.618 69.5999H137.572C137.185 70.1352 136.732 70.5412 136.206 70.8365C135.689 71.1134 135.135 71.2518 134.544 71.2518C133.898 71.2518 133.4 71.0395 133.058 70.6243C132.726 70.1905 132.596 69.6091 132.661 68.8801L133.501 60.4639H136.732L135.984 67.9111C135.957 68.188 135.984 68.4187 136.058 68.6032C136.151 68.7694 136.354 68.8524 136.668 68.8524C137.018 68.8524 137.314 68.7048 137.554 68.4095L137.748 68.1603L138.514 60.4639H141.745L140.693 70.9934H137.48V71.0026Z" fill="#E4EDF5"/>
</svg>
