<svg width="196" height="72" viewBox="0 0 196 72" fill="none" xmlns="http://www.w3.org/2000/svg">
<path d="M137.24 59.4948H139.336L141.727 56.9663H139.447L137.24 59.4948Z" fill="#24FE7C"/>
<path d="M195.003 45.0342C162.941 48.9194 58.6498 54.401 25.72 54.401C-7.20971 54.401 0.203403 45.2465 3.8038 45.0342C6.78566 44.8589 195.003 45.0342 195.003 45.0342Z" fill="#24FE7C"/>
<path d="M21.4645 14.5716L18.418 41.2414H26.7543L29.3022 23.643C29.4315 22.5264 29.69 21.7235 30.0685 21.2252C30.4562 20.7361 31.0378 20.4869 31.8317 20.4869C32.6164 20.4869 33.1519 20.7361 33.4196 21.2252C33.6966 21.7143 33.7612 22.5264 33.6412 23.643L31.6379 41.2414H39.9742L42.8083 21.1329C42.9745 19.684 42.9283 18.5028 42.6699 17.58C42.4114 16.6572 42.0052 15.9189 41.442 15.3652C40.8789 14.8023 40.1865 14.4331 39.3556 14.2301C38.5617 13.9994 37.6662 13.8887 36.6784 13.8887C33.5212 13.8887 31.2224 15.1991 29.7731 17.8292H29.6715L29.7454 14.5716H21.4645Z" fill="#24FE7C"/>
<path d="M44.7564 14.5714L44.0732 20.5329H47.0274L45.4118 34.726C45.2457 36.2025 45.2364 37.4022 45.3934 38.325C45.5873 39.2109 45.9565 39.8846 46.492 40.346C47.0643 40.8074 47.8213 41.1028 48.7538 41.2319C49.6954 41.3335 50.8401 41.3796 52.188 41.3796C52.945 41.3796 53.7389 41.3427 54.5698 41.2781C55.3914 41.2412 55.6776 41.2319 56.4992 41.2319L57.7086 35.3166H56.3238C55.6037 35.3166 55.0775 35.1689 54.7452 34.8736C54.4498 34.5414 53.8128 34.0062 53.8959 33.2494L55.8899 20.5329H59.3888L60.0719 14.5714H56.2684L56.8685 9.71729H49.1877L47.7198 14.5714H44.7564Z" fill="#24FE7C"/>
<path d="M100.904 0H109.785L104.338 41.2505H95.9189L100.904 0Z" fill="#24FE7C"/>
<path fill-rule="evenodd" clip-rule="evenodd" d="M116.985 27.8418C117.235 26.1715 117.475 24.7965 117.696 23.726C117.927 22.6463 118.185 21.8065 118.472 21.1882C118.758 20.5699 119.072 20.1546 119.404 19.9424C119.764 19.7209 120.198 19.6286 120.687 19.6378C121.177 19.6563 121.574 19.7855 121.869 20.0254C122.164 20.2654 122.349 20.6991 122.414 21.3266C122.515 21.9542 122.524 22.8124 122.423 23.8921C122.331 24.9718 122.155 26.3468 121.906 28.0172C121.657 29.6875 121.417 31.0625 121.195 32.133C120.973 33.1758 120.715 34.0063 120.429 34.6246C120.17 35.2429 119.866 35.6582 119.496 35.8704C119.136 36.0919 118.702 36.1842 118.213 36.175C117.724 36.1565 117.327 36.0273 117.031 35.7874C116.773 35.5474 116.588 35.1137 116.487 34.4862C116.385 33.8587 116.376 33.0189 116.468 31.9669C116.57 30.8872 116.736 29.5121 116.985 27.8418ZM130.796 27.9341C131.018 25.9962 131.11 24.1874 131.073 22.5079C131.073 20.8006 130.768 19.3056 130.15 18.0229C129.541 16.7402 128.516 15.7435 127.094 15.0145C125.663 14.2578 123.66 13.8794 121.057 13.8794C118.555 13.8794 116.505 14.2854 114.899 15.1067C113.33 15.9004 112.074 16.9432 111.132 18.2628C110.191 19.5733 109.498 21.0682 109.046 22.7478C108.621 24.4273 108.317 26.1346 108.114 27.8695C107.892 29.8075 107.781 31.6347 107.781 33.3419C107.818 35.0214 108.141 36.498 108.751 37.7807C109.36 39.0265 110.385 40.014 111.816 40.7338C113.246 41.4259 115.268 41.7673 117.862 41.7673C120.364 41.7673 122.395 41.389 123.955 40.6322C125.562 39.8478 126.826 38.8051 127.759 37.5315C128.7 36.2211 129.374 34.7261 129.799 33.0466C130.27 31.3855 130.593 29.6783 130.796 27.9341Z" fill="#24FE7C"/>
<path d="M132.818 14.5714L132.135 20.5329H135.098L133.483 34.726C133.316 36.2025 133.307 37.4022 133.464 38.325C133.658 39.2109 134.027 39.8846 134.563 40.346C135.135 40.8074 135.892 41.1028 136.825 41.2319C137.766 41.3335 138.911 41.3796 140.259 41.3796C141.016 41.3796 141.81 41.3427 142.641 41.2781C143.462 41.2412 143.748 41.2319 144.57 41.2319L145.779 35.3166H144.395C143.674 35.3166 143.148 35.1689 142.816 34.8736C142.521 34.5414 141.884 34.0062 141.967 33.2494L143.961 20.5329H147.46L148.143 14.5714H144.358L144.958 9.71729H137.277L135.772 14.5714H132.818Z" fill="#24FE7C"/>
<path fill-rule="evenodd" clip-rule="evenodd" d="M62.3889 14.5715H70.6698L70.4852 18.8073C71.2607 17.1924 72.1838 15.9835 73.3655 15.1621C74.5472 14.3039 76.9659 13.8794 78.2768 13.8794L85.1637 13.9071L85.9853 13.8794C87.527 13.8794 88.9303 14.0086 90.1858 14.2762C91.4783 14.5069 92.5399 14.9499 93.3892 15.6051C94.2755 16.2326 94.894 17.1001 95.2633 18.2167C95.6695 19.3056 95.771 20.7176 95.5679 22.4525L94.0816 35.4644C93.9431 36.7102 93.4446 40.3185 93.3708 41.2321H85.6807C85.5699 40.7707 85.5053 40.2908 85.4961 39.8017L85.376 38.2237C84.7483 39.4049 83.862 40.2908 82.7081 40.8814C81.591 41.472 80.3355 41.7673 78.96 41.7673C77.6121 41.7673 76.4858 41.5828 75.5719 41.2229C74.6856 40.8906 73.9933 40.3831 73.4763 39.691C72.9593 38.9988 72.627 38.1775 72.4792 37.227C72.3223 36.2765 72.3131 35.2245 72.4423 34.0709C72.5808 32.8251 72.8208 31.7362 73.1624 30.8133C73.5317 29.8905 74.0302 29.1061 74.6672 28.4509C75.3042 27.7588 76.1258 27.1866 77.1321 26.7252C78.1383 26.2361 79.3754 25.8208 80.8248 25.4978L84.4252 24.658C85.4037 24.4273 86.1146 24.1043 86.5577 23.6706C86.8439 23.4122 87.1762 22.9877 87.2409 22.2772C87.3793 20.7729 86.8347 20.3853 85.3299 20.3853C85.0806 20.3853 84.0928 20.5792 82.8096 20.7822C75.6827 21.8988 71.196 22.7939 70.0974 28.8754L67.7064 41.2229H59.3701L62.3889 14.5715ZM82.9758 35.9627C82.3203 35.9627 81.8218 35.7043 81.4895 35.1783C81.1571 34.6523 81.0371 33.9417 81.1387 33.0558C81.2402 32.1699 81.4525 31.4593 81.7757 30.9333C82.0988 30.3796 82.625 29.9274 83.3543 29.6044C84.0467 29.3091 86.1977 28.737 86.5023 28.3771L86.2346 31.5793C86.0684 33.0558 85.7269 34.1632 85.2191 34.883C84.7114 35.6028 83.9636 35.9627 82.9758 35.9627Z" fill="#24FE7C"/>
<path d="M10.2473 14.5715L7.51465 41.2414H15.8509L19.0082 14.5715H10.2473Z" fill="#24FE7C"/>
<path fill-rule="evenodd" clip-rule="evenodd" d="M90.7766 71.0027L90.8781 69.9783H90.832C90.5735 70.2183 90.3335 70.4121 90.1211 70.5689C89.9088 70.7258 89.7057 70.8366 89.4934 70.9289C89.2995 71.0119 89.1056 71.0673 88.9118 71.095C88.7087 71.1226 88.4964 71.1411 88.2563 71.1411C87.7393 71.1411 87.2962 71.0119 86.9362 70.7443C86.5761 70.4674 86.2807 70.0983 86.0592 69.6553C85.8561 69.1939 85.7176 68.6587 85.653 68.0588C85.5883 67.459 85.5883 66.8223 85.653 66.1486C85.7268 65.3919 85.8468 64.6813 86.013 64.0076C86.1976 63.3247 86.4377 62.7249 86.7423 62.1989C87.0654 61.6636 87.4439 61.2484 87.8963 60.9438C88.3579 60.6393 88.9118 60.4824 89.5395 60.4824C90.0011 60.4824 90.3889 60.5562 90.6935 60.7131C91.0166 60.87 91.3028 61.1007 91.5705 61.4052L92.106 56.0713H95.3371L93.8416 71.0119H90.7766V71.0027ZM91.4228 62.8356C91.3397 62.6972 91.2105 62.5865 91.0351 62.5034C90.8781 62.4019 90.675 62.3558 90.4443 62.3558C90.1765 62.3558 89.955 62.4665 89.7796 62.688C89.6226 62.9002 89.4841 63.1678 89.3826 63.5093C89.2903 63.8323 89.2257 64.183 89.1703 64.5613C89.1333 64.9212 89.0964 65.2627 89.0687 65.5672C89.0133 66.1117 88.9672 66.61 88.9395 67.053C88.9118 67.4867 88.9118 67.8558 88.9302 68.1604C88.9579 68.4557 89.0226 68.6864 89.1333 68.8525C89.2441 69.0186 89.4011 69.1016 89.6134 69.1016C89.8534 69.1016 90.0842 69.0278 90.3058 68.8894C90.5273 68.7325 90.7212 68.5387 90.8689 68.2988L91.4228 62.8356Z" fill="#24FE7C"/>
<path fill-rule="evenodd" clip-rule="evenodd" d="M98.8264 66.4899C98.8079 66.7114 98.7895 66.9698 98.7895 67.2651C98.7987 67.5604 98.8449 67.828 98.9187 68.0864C98.9926 68.3355 99.1126 68.557 99.2972 68.7416C99.4726 68.9077 99.7219 68.9908 100.027 68.9908C100.433 68.9908 100.793 68.8616 101.116 68.594C101.439 68.3263 101.67 67.9756 101.808 67.5419L103.904 68.3817C103.849 68.5109 103.728 68.7324 103.544 69.0554C103.368 69.3599 103.11 69.6829 102.759 70.0243C102.418 70.3473 101.984 70.6334 101.457 70.8826C100.94 71.1317 100.331 71.2609 99.6111 71.2609C98.8449 71.2609 98.1802 71.1133 97.6355 70.818C97.1093 70.5134 96.6846 70.1074 96.3708 69.5998C96.0569 69.0831 95.8446 68.4832 95.7338 67.8188C95.623 67.1451 95.5953 66.4437 95.6691 65.7239C95.743 64.9857 95.9092 64.2843 96.1492 63.6291C96.4169 62.9555 96.7493 62.3741 97.1647 61.8665C97.5894 61.359 98.0971 60.9622 98.6695 60.6668C99.2603 60.3715 99.925 60.2239 100.664 60.2239C101.448 60.2239 102.085 60.3807 102.593 60.7037C103.091 61.0267 103.479 61.4512 103.747 61.9865C104.033 62.5033 104.209 63.1031 104.282 63.7675C104.375 64.4228 104.384 65.0964 104.31 65.7793L104.236 66.4899H98.8264ZM101.439 64.4781C101.467 64.2289 101.476 63.9706 101.476 63.7214C101.476 63.4722 101.439 63.2508 101.374 63.0477C101.328 62.8355 101.227 62.6694 101.07 62.5402C100.931 62.411 100.719 62.3556 100.442 62.3556C100.22 62.3556 100.027 62.4202 99.8604 62.5402C99.6942 62.6694 99.5557 62.8355 99.4357 63.0477C99.3157 63.2415 99.2234 63.463 99.1588 63.7214C99.1034 63.9706 99.0664 64.2289 99.0388 64.4781H101.439Z" fill="#24FE7C"/>
<path fill-rule="evenodd" clip-rule="evenodd" d="M116.432 60.2978C116.349 61.1468 116.136 61.8759 115.795 62.4849C115.472 63.0848 115.047 63.5739 114.539 63.9522C114.022 64.3306 113.45 64.6074 112.804 64.7735C112.158 64.9396 111.474 65.0227 110.764 65.0227C110.524 65.0227 110.293 65.0135 110.071 65.0042C109.859 64.995 109.637 64.9673 109.407 64.9396L108.797 71.0026H105.206L106.702 56.062H112.038C112.711 56.062 113.33 56.1451 113.902 56.3112C114.475 56.4773 114.955 56.7357 115.361 57.0864C115.758 57.4186 116.063 57.8523 116.256 58.3876C116.441 58.9228 116.506 59.5595 116.432 60.2978ZM112.684 60.5562C112.721 60.2055 112.675 59.9102 112.564 59.6703C112.462 59.4303 112.305 59.2458 112.093 59.1074C111.899 58.9689 111.668 58.8674 111.41 58.8121C111.151 58.7382 110.893 58.7105 110.644 58.7105H110.016L109.647 62.3834H110.274C110.524 62.3834 110.791 62.3557 111.059 62.3003C111.327 62.245 111.576 62.1435 111.798 62.005C112.038 61.8666 112.231 61.6728 112.379 61.4421C112.555 61.193 112.656 60.8976 112.684 60.5562Z" fill="#24FE7C"/>
<path fill-rule="evenodd" clip-rule="evenodd" d="M119.331 66.4899C119.312 66.7114 119.294 66.9698 119.294 67.2651C119.303 67.5604 119.349 67.828 119.423 68.0864C119.497 68.3355 119.626 68.557 119.802 68.7416C119.977 68.9077 120.226 68.9908 120.531 68.9908C120.937 68.9908 121.297 68.8616 121.62 68.594C121.943 68.3263 122.174 67.9756 122.313 67.5419L124.408 68.3817C124.353 68.5109 124.233 68.7324 124.048 69.0554C123.873 69.3599 123.614 69.6829 123.254 70.0243C122.913 70.3473 122.479 70.6334 121.953 70.8826C121.436 71.1317 120.826 71.2609 120.106 71.2609C119.34 71.2609 118.675 71.1133 118.131 70.818C117.604 70.5134 117.18 70.1074 116.866 69.5998C116.552 69.0831 116.34 68.4832 116.229 67.8188C116.118 67.1451 116.09 66.4437 116.164 65.7239C116.238 64.9857 116.395 64.2843 116.644 63.6291C116.903 62.9555 117.244 62.3741 117.66 61.8665C118.084 61.359 118.592 60.9622 119.165 60.6668C119.755 60.3715 120.42 60.2239 121.159 60.2239C121.943 60.2239 122.58 60.3807 123.079 60.7037C123.577 61.0267 123.965 61.4512 124.233 61.9865C124.519 62.5033 124.694 63.1031 124.768 63.7675C124.861 64.4228 124.87 65.0964 124.796 65.7793L124.722 66.4899H119.331ZM121.953 64.4781C121.98 64.2289 121.99 63.9706 121.99 63.7214C121.99 63.4722 121.953 63.2508 121.888 63.0477C121.842 62.8355 121.74 62.6694 121.583 62.5402C121.445 62.411 121.232 62.3556 120.956 62.3556C120.734 62.3556 120.54 62.4202 120.374 62.5402C120.208 62.6694 120.06 62.8355 119.949 63.0477C119.829 63.2415 119.737 63.463 119.672 63.7214C119.617 63.9706 119.58 64.2289 119.552 64.4781H121.953Z" fill="#24FE7C"/>
<path fill-rule="evenodd" clip-rule="evenodd" d="M132.504 63.6568C132.292 63.5738 132.08 63.5 131.876 63.4446C131.673 63.3892 131.452 63.3615 131.212 63.3615C130.676 63.3615 130.289 63.4354 130.039 63.5738C129.799 63.7122 129.578 63.9152 129.365 64.1829L128.682 71.0026H125.451L126.504 60.4731H129.67L129.513 62.0696H129.559C129.689 61.7374 129.873 61.4513 130.104 61.2298C130.353 60.9899 130.621 60.8053 130.916 60.6669C131.221 60.51 131.544 60.3993 131.876 60.3347C132.209 60.2608 132.532 60.2332 132.855 60.2332L132.504 63.6568Z" fill="#24FE7C"/>
<path fill-rule="evenodd" clip-rule="evenodd" d="M137.48 71.0026L137.618 69.5999H137.572C137.184 70.1352 136.732 70.5412 136.206 70.8365C135.689 71.1134 135.135 71.2518 134.544 71.2518C133.898 71.2518 133.399 71.0395 133.058 70.6243C132.725 70.1905 132.596 69.6091 132.661 68.8801L133.501 60.4639H136.732L135.984 67.9111C135.956 68.188 135.984 68.4187 136.058 68.6032C136.15 68.7694 136.353 68.8524 136.667 68.8524C137.018 68.8524 137.313 68.7048 137.553 68.4095L137.747 68.1603L138.514 60.4639H141.745L140.692 70.9934H137.48V71.0026Z" fill="#24FE7C"/>
</svg>
