<svg width="196" height="72" viewBox="0 0 196 72" fill="none" xmlns="http://www.w3.org/2000/svg">
<path d="M137.24 59.4953H139.336L141.727 56.9668H139.447L137.24 59.4953Z" fill="#3822E4"/>
<path d="M195.003 45.034C162.941 48.9191 58.6498 54.4008 25.72 54.4008C-7.20971 54.4008 0.203403 45.2462 3.8038 45.034C6.78566 44.8586 195.003 45.034 195.003 45.034Z" fill="#3822E4"/>
<path d="M21.4645 14.5716L18.418 41.2414H26.7543L29.3022 23.643C29.4315 22.5264 29.69 21.7235 30.0685 21.2252C30.4562 20.7361 31.0378 20.4869 31.8317 20.4869C32.6164 20.4869 33.1519 20.7361 33.4196 21.2252C33.6966 21.7143 33.7612 22.5264 33.6412 23.643L31.6379 41.2414H39.9742L42.8083 21.1329C42.9745 19.684 42.9283 18.5028 42.6699 17.58C42.4114 16.6572 42.0052 15.9189 41.442 15.3652C40.8789 14.8023 40.1865 14.4331 39.3556 14.2301C38.5617 13.9994 37.6662 13.8887 36.6784 13.8887C33.5212 13.8887 31.2224 15.1991 29.7731 17.8292H29.6715L29.7454 14.5716H21.4645Z" fill="#3822E4"/>
<path d="M44.7564 14.5719L44.0732 20.5333H47.0274L45.4118 34.7265C45.2457 36.203 45.2364 37.4027 45.3934 38.3255C45.5873 39.2114 45.9565 39.8851 46.492 40.3465C47.0643 40.8079 47.8213 41.1032 48.7538 41.2324C49.6954 41.334 50.8401 41.3801 52.188 41.3801C52.945 41.3801 53.7389 41.3432 54.5698 41.2786C55.3914 41.2417 55.6776 41.2324 56.4992 41.2324L57.7086 35.3171H56.3238C55.6037 35.3171 55.0775 35.1694 54.7452 34.8741C54.4498 34.5419 53.8128 34.0067 53.8959 33.2499L55.8899 20.5333H59.3888L60.0719 14.5719H56.2684L56.8685 9.71777H49.1877L47.7198 14.5719H44.7564Z" fill="#3822E4"/>
<path d="M100.904 0H109.785L104.338 41.2505H95.9189L100.904 0Z" fill="#3822E4"/>
<path fill-rule="evenodd" clip-rule="evenodd" d="M116.985 27.8413C117.235 26.171 117.475 24.796 117.696 23.7255C117.927 22.6458 118.185 21.806 118.472 21.1877C118.758 20.5694 119.072 20.1542 119.404 19.9419C119.764 19.7204 120.198 19.6281 120.687 19.6374C121.177 19.6558 121.574 19.785 121.869 20.025C122.164 20.2649 122.349 20.6986 122.414 21.3262C122.515 21.9537 122.524 22.8119 122.423 23.8916C122.331 24.9713 122.155 26.3464 121.906 28.0167C121.657 29.687 121.417 31.062 121.195 32.1325C120.973 33.1753 120.715 34.0058 120.429 34.6241C120.17 35.2424 119.866 35.6577 119.496 35.8699C119.136 36.0914 118.702 36.1837 118.213 36.1745C117.724 36.156 117.327 36.0268 117.031 35.7869C116.773 35.547 116.588 35.1132 116.487 34.4857C116.385 33.8582 116.376 33.0184 116.468 31.9664C116.57 30.8867 116.736 29.5117 116.985 27.8413ZM130.796 27.9336C131.018 25.9957 131.11 24.1869 131.073 22.5074C131.073 20.8001 130.768 19.3051 130.15 18.0224C129.541 16.7397 128.516 15.743 127.094 15.014C125.663 14.2573 123.66 13.8789 121.057 13.8789C118.555 13.8789 116.505 14.2849 114.899 15.1063C113.33 15.8999 112.074 16.9427 111.132 18.2624C110.191 19.5728 109.498 21.0677 109.046 22.7473C108.621 24.4268 108.317 26.1341 108.114 27.869C107.892 29.807 107.781 31.6342 107.781 33.3414C107.818 35.021 108.141 36.4975 108.751 37.7802C109.36 39.026 110.385 40.0135 111.816 40.7333C113.246 41.4254 115.268 41.7668 117.862 41.7668C120.364 41.7668 122.395 41.3885 123.955 40.6318C125.562 39.8473 126.826 38.8046 127.759 37.5311C128.7 36.2206 129.374 34.7256 129.799 33.0461C130.27 31.385 130.593 29.6778 130.796 27.9336Z" fill="#3822E4"/>
<path d="M132.818 14.5719L132.135 20.5333H135.098L133.483 34.7265C133.316 36.203 133.307 37.4027 133.464 38.3255C133.658 39.2114 134.027 39.8851 134.563 40.3465C135.135 40.8079 135.892 41.1032 136.825 41.2324C137.766 41.334 138.911 41.3801 140.259 41.3801C141.016 41.3801 141.81 41.3432 142.641 41.2786C143.462 41.2417 143.748 41.2324 144.57 41.2324L145.779 35.3171H144.395C143.674 35.3171 143.148 35.1694 142.816 34.8741C142.521 34.5419 141.884 34.0067 141.967 33.2499L143.961 20.5333H147.46L148.143 14.5719H144.358L144.958 9.71777H137.277L135.772 14.5719H132.818Z" fill="#3822E4"/>
<path fill-rule="evenodd" clip-rule="evenodd" d="M62.3889 14.571H70.6698L70.4852 18.8068C71.2607 17.1919 72.1838 15.983 73.3655 15.1617C74.5472 14.3034 76.9659 13.8789 78.2768 13.8789L85.1637 13.9066L85.9853 13.8789C87.527 13.8789 88.9303 14.0081 90.1858 14.2757C91.4783 14.5064 92.5399 14.9494 93.3892 15.6046C94.2755 16.2321 94.894 17.0996 95.2633 18.2162C95.6695 19.3052 95.771 20.7171 95.5679 22.452L94.0816 35.4639C93.9431 36.7097 93.4446 40.318 93.3708 41.2316H85.6807C85.5699 40.7702 85.5053 40.2903 85.4961 39.8012L85.376 38.2232C84.7483 39.4044 83.862 40.2903 82.7081 40.8809C81.591 41.4715 80.3355 41.7668 78.96 41.7668C77.6121 41.7668 76.4858 41.5823 75.5719 41.2224C74.6856 40.8902 73.9933 40.3826 73.4763 39.6905C72.9593 38.9984 72.627 38.177 72.4792 37.2265C72.3223 36.276 72.3131 35.224 72.4423 34.0704C72.5808 32.8246 72.8208 31.7357 73.1624 30.8129C73.5317 29.89 74.0302 29.1056 74.6672 28.4504C75.3042 27.7583 76.1258 27.1861 77.1321 26.7247C78.1383 26.2356 79.3754 25.8203 80.8248 25.4973L84.4252 24.6576C85.4037 24.4269 86.1146 24.1039 86.5577 23.6701C86.8439 23.4117 87.1762 22.9872 87.2409 22.2767C87.3793 20.7725 86.8347 20.3849 85.3299 20.3849C85.0806 20.3849 84.0928 20.5787 82.8096 20.7817C75.6827 21.8983 71.196 22.7934 70.0974 28.8749L67.7064 41.2224H59.3701L62.3889 14.571ZM82.9758 35.9622C82.3203 35.9622 81.8218 35.7038 81.4895 35.1778C81.1571 34.6518 81.0371 33.9412 81.1387 33.0553C81.2402 32.1694 81.4525 31.4588 81.7757 30.9328C82.0988 30.3791 82.625 29.9269 83.3543 29.6039C84.0467 29.3086 86.1977 28.7365 86.5023 28.3766L86.2346 31.5788C86.0684 33.0553 85.7269 34.1627 85.2191 34.8825C84.7114 35.6023 83.9636 35.9622 82.9758 35.9622Z" fill="#3822E4"/>
<path d="M10.2473 14.5713L7.51465 41.2411H15.8509L19.0082 14.5713H10.2473Z" fill="#3822E4"/>
<path fill-rule="evenodd" clip-rule="evenodd" d="M90.7766 71.0027L90.8781 69.9783H90.832C90.5735 70.2183 90.3335 70.4121 90.1211 70.5689C89.9088 70.7258 89.7057 70.8366 89.4934 70.9289C89.2995 71.0119 89.1056 71.0673 88.9118 71.095C88.7087 71.1226 88.4964 71.1411 88.2563 71.1411C87.7393 71.1411 87.2962 71.0119 86.9362 70.7443C86.5761 70.4674 86.2807 70.0983 86.0592 69.6553C85.8561 69.1939 85.7176 68.6587 85.653 68.0588C85.5883 67.459 85.5883 66.8223 85.653 66.1486C85.7268 65.3919 85.8468 64.6813 86.013 64.0076C86.1976 63.3247 86.4377 62.7249 86.7423 62.1989C87.0654 61.6636 87.4439 61.2484 87.8963 60.9438C88.3579 60.6393 88.9118 60.4824 89.5395 60.4824C90.0011 60.4824 90.3889 60.5562 90.6935 60.7131C91.0166 60.87 91.3028 61.1007 91.5705 61.4052L92.106 56.0713H95.3371L93.8416 71.0119H90.7766V71.0027ZM91.4228 62.8356C91.3397 62.6972 91.2105 62.5865 91.0351 62.5034C90.8781 62.4019 90.675 62.3558 90.4443 62.3558C90.1765 62.3558 89.955 62.4665 89.7796 62.688C89.6226 62.9002 89.4841 63.1678 89.3826 63.5093C89.2903 63.8323 89.2257 64.183 89.1703 64.5613C89.1333 64.9212 89.0964 65.2627 89.0687 65.5672C89.0133 66.1117 88.9672 66.61 88.9395 67.053C88.9118 67.4867 88.9118 67.8558 88.9302 68.1604C88.9579 68.4557 89.0226 68.6864 89.1333 68.8525C89.2441 69.0186 89.4011 69.1016 89.6134 69.1016C89.8534 69.1016 90.0842 69.0278 90.3058 68.8894C90.5273 68.7325 90.7212 68.5387 90.8689 68.2988L91.4228 62.8356Z" fill="#3822E4"/>
<path fill-rule="evenodd" clip-rule="evenodd" d="M98.8264 66.4897C98.8079 66.7111 98.7895 66.9695 98.7895 67.2648C98.7987 67.5601 98.8449 67.8277 98.9187 68.0861C98.9926 68.3353 99.1126 68.5568 99.2972 68.7414C99.4726 68.9075 99.7219 68.9905 100.027 68.9905C100.433 68.9905 100.793 68.8613 101.116 68.5937C101.439 68.3261 101.67 67.9754 101.808 67.5417L103.904 68.3815C103.849 68.5106 103.728 68.7321 103.544 69.0551C103.368 69.3597 103.11 69.6826 102.759 70.0241C102.418 70.3471 101.984 70.6332 101.457 70.8823C100.94 71.1315 100.331 71.2607 99.6111 71.2607C98.8449 71.2607 98.1802 71.113 97.6355 70.8177C97.1093 70.5132 96.6846 70.1072 96.3708 69.5996C96.0569 69.0828 95.8446 68.483 95.7338 67.8185C95.623 67.1449 95.5953 66.4435 95.6691 65.7237C95.743 64.9854 95.9092 64.2841 96.1492 63.6289C96.4169 62.9552 96.7493 62.3738 97.1647 61.8663C97.5894 61.3587 98.0971 60.9619 98.6695 60.6666C99.2603 60.3713 99.925 60.2236 100.664 60.2236C101.448 60.2236 102.085 60.3805 102.593 60.7035C103.091 61.0265 103.479 61.451 103.747 61.9862C104.033 62.503 104.209 63.1029 104.282 63.7673C104.375 64.4225 104.384 65.0962 104.31 65.7791L104.236 66.4897H98.8264ZM101.439 64.4779C101.467 64.2287 101.476 63.9703 101.476 63.7212C101.476 63.472 101.439 63.2505 101.374 63.0475C101.328 62.8352 101.227 62.6691 101.07 62.5399C100.931 62.4108 100.719 62.3554 100.442 62.3554C100.22 62.3554 100.027 62.42 99.8604 62.5399C99.6942 62.6691 99.5557 62.8352 99.4357 63.0475C99.3157 63.2413 99.2234 63.4628 99.1588 63.7212C99.1034 63.9703 99.0664 64.2287 99.0388 64.4779H101.439Z" fill="#3822E4"/>
<path fill-rule="evenodd" clip-rule="evenodd" d="M116.432 60.2973C116.349 61.1463 116.136 61.8754 115.795 62.4844C115.472 63.0843 115.047 63.5734 114.539 63.9517C114.022 64.3301 113.45 64.6069 112.804 64.773C112.158 64.9391 111.474 65.0222 110.764 65.0222C110.524 65.0222 110.293 65.013 110.071 65.0037C109.859 64.9945 109.637 64.9668 109.407 64.9391L108.797 71.0021H105.206L106.702 56.0615H112.038C112.711 56.0615 113.33 56.1446 113.902 56.3107C114.475 56.4768 114.955 56.7352 115.361 57.0859C115.758 57.4181 116.063 57.8518 116.256 58.3871C116.441 58.9223 116.506 59.559 116.432 60.2973ZM112.684 60.5557C112.721 60.205 112.675 59.9097 112.564 59.6698C112.462 59.4299 112.305 59.2453 112.093 59.1069C111.899 58.9685 111.668 58.8669 111.41 58.8116C111.151 58.7377 110.893 58.71 110.644 58.71H110.016L109.647 62.3829H110.274C110.524 62.3829 110.791 62.3552 111.059 62.2999C111.327 62.2445 111.576 62.143 111.798 62.0045C112.038 61.8661 112.231 61.6723 112.379 61.4416C112.555 61.1925 112.656 60.8971 112.684 60.5557Z" fill="#3822E4"/>
<path fill-rule="evenodd" clip-rule="evenodd" d="M119.331 66.4897C119.312 66.7111 119.294 66.9695 119.294 67.2648C119.303 67.5601 119.349 67.8277 119.423 68.0861C119.497 68.3353 119.626 68.5568 119.802 68.7414C119.977 68.9075 120.226 68.9905 120.531 68.9905C120.937 68.9905 121.297 68.8613 121.62 68.5937C121.943 68.3261 122.174 67.9754 122.313 67.5417L124.408 68.3815C124.353 68.5106 124.233 68.7321 124.048 69.0551C123.873 69.3597 123.614 69.6826 123.254 70.0241C122.913 70.3471 122.479 70.6332 121.953 70.8823C121.436 71.1315 120.826 71.2607 120.106 71.2607C119.34 71.2607 118.675 71.113 118.131 70.8177C117.604 70.5132 117.18 70.1072 116.866 69.5996C116.552 69.0828 116.34 68.483 116.229 67.8185C116.118 67.1449 116.09 66.4435 116.164 65.7237C116.238 64.9854 116.395 64.2841 116.644 63.6289C116.903 62.9552 117.244 62.3738 117.66 61.8663C118.084 61.3587 118.592 60.9619 119.165 60.6666C119.755 60.3713 120.42 60.2236 121.159 60.2236C121.943 60.2236 122.58 60.3805 123.079 60.7035C123.577 61.0265 123.965 61.451 124.233 61.9862C124.519 62.503 124.694 63.1029 124.768 63.7673C124.861 64.4225 124.87 65.0962 124.796 65.7791L124.722 66.4897H119.331ZM121.953 64.4779C121.98 64.2287 121.99 63.9703 121.99 63.7212C121.99 63.472 121.953 63.2505 121.888 63.0475C121.842 62.8352 121.74 62.6691 121.583 62.5399C121.445 62.4108 121.232 62.3554 120.956 62.3554C120.734 62.3554 120.54 62.42 120.374 62.5399C120.208 62.6691 120.06 62.8352 119.949 63.0475C119.829 63.2413 119.737 63.4628 119.672 63.7212C119.617 63.9703 119.58 64.2287 119.552 64.4779H121.953Z" fill="#3822E4"/>
<path fill-rule="evenodd" clip-rule="evenodd" d="M132.504 63.6571C132.292 63.574 132.08 63.5002 131.876 63.4448C131.673 63.3895 131.452 63.3618 131.212 63.3618C130.676 63.3618 130.289 63.4356 130.039 63.574C129.799 63.7125 129.578 63.9155 129.365 64.1831L128.682 71.0028H125.451L126.504 60.4733H129.67L129.513 62.0698H129.559C129.689 61.7376 129.873 61.4515 130.104 61.23C130.353 60.9901 130.621 60.8056 130.916 60.6671C131.221 60.5102 131.544 60.3995 131.876 60.3349C132.209 60.2611 132.532 60.2334 132.855 60.2334L132.504 63.6571Z" fill="#3822E4"/>
<path fill-rule="evenodd" clip-rule="evenodd" d="M137.48 71.0026L137.618 69.5999H137.572C137.184 70.1352 136.732 70.5412 136.206 70.8365C135.689 71.1134 135.135 71.2518 134.544 71.2518C133.898 71.2518 133.399 71.0395 133.058 70.6243C132.725 70.1905 132.596 69.6091 132.661 68.8801L133.501 60.4639H136.732L135.984 67.9111C135.956 68.188 135.984 68.4187 136.058 68.6032C136.15 68.7694 136.353 68.8524 136.667 68.8524C137.018 68.8524 137.313 68.7048 137.553 68.4095L137.747 68.1603L138.514 60.4639H141.745L140.692 70.9934H137.48V71.0026Z" fill="#3822E4"/>
</svg>
