<svg width="172" height="81" viewBox="0 0 172 81" fill="none" xmlns="http://www.w3.org/2000/svg">
<path d="M68.5257 28.4453C68.8084 28.5631 69.1146 28.6337 69.4326 28.6691C69.7507 28.7044 70.0216 28.7162 70.2571 28.7162C70.528 28.7162 70.8107 28.6926 71.0816 28.6455C71.3525 28.5984 71.5881 28.5631 71.8001 28.5277V24.9235C71.5763 24.8882 71.3408 24.8528 71.0816 24.8293C70.8225 24.8057 70.5987 24.7939 70.3985 24.7939C69.5151 24.7939 68.8084 24.9588 68.2784 25.2769C67.7601 25.5949 67.501 26.1014 67.501 26.8198C67.501 27.3028 67.607 27.6561 67.8072 27.9152C68.0074 28.139 68.243 28.3275 68.5257 28.4453Z" fill="#3822E4"/>
<path d="M57.7488 20.6946C57.3012 20.1527 56.677 19.8818 55.8878 19.8818C54.9691 19.8818 54.2859 20.1292 53.8148 20.6474C53.3436 21.1539 53.061 21.8724 52.9785 22.7911H58.4908C58.4319 21.9313 58.1964 21.2364 57.7488 20.6946Z" fill="#3822E4"/>
<path d="M76.3232 2.54415C71.5058 0.117785 64.5093 2.50882 64.5093 2.50882C36.1821 11.7431 36.6179 11.5076 29.5979 13.9104C29.433 13.9575 29.0561 14.0753 28.903 14.0871C28.5614 14.1106 28.2787 13.8044 28.2787 13.451C28.2787 13.2743 28.3612 13.0977 28.5025 12.9917C28.6085 12.8974 28.7028 12.8385 28.7028 12.8385C28.7028 12.8385 33.8028 9.6348 38.632 6.76085C39.7039 6.11303 40.5755 5.63011 41.5531 5.05297C42.3422 4.58183 44.8864 3.2862 44.8864 1.80211C44.8864 0.859829 44.1561 0.0942279 43.2374 0.023557C43.1903 0.023557 42.9076 0 42.8369 0H41.506H23.4378H17.4779C13.2847 0 10.1752 1.23674 8.0904 2.48526C3.50857 5.44166 0.469727 10.6006 0.469727 16.4663C0.469727 20.8008 2.11871 24.7466 4.83954 27.703V27.7148L55.5695 75.7239C58.5612 78.586 62.6012 80.341 67.0653 80.341C76.2643 80.341 83.7083 72.8853 83.7083 63.698L83.7554 14.0282C83.7436 9.26967 80.6576 5.0883 76.3232 2.54415ZM64.4387 24.7584C64.8156 24.1694 65.2985 23.6983 65.8756 23.345C66.4646 22.9916 67.1242 22.7325 67.8544 22.5793C68.5847 22.4262 69.315 22.3438 70.0335 22.3438C70.5635 22.3438 71.1406 22.3791 71.7767 22.4262V22.0964C71.7767 21.6606 71.706 21.3073 71.5529 21.0364C71.4115 20.7655 71.2113 20.5417 70.9522 20.3886C70.7048 20.2354 70.3868 20.1294 70.0099 20.0705C69.6565 20.0234 69.2443 19.9999 68.7849 19.9999C67.8073 19.9999 66.759 20.1883 65.6401 20.577C65.381 20.1059 65.1925 19.6583 65.0747 19.2343C64.9569 18.822 64.8863 18.3155 64.8863 17.7384C65.6872 17.4675 66.4763 17.2673 67.2891 17.1377C68.09 17.0081 68.832 16.9492 69.527 16.9492C71.4115 16.9492 72.8956 17.3968 73.9557 18.3155C75.0275 19.2225 75.5576 20.683 75.5576 22.6736V30.8596C74.9215 31.0599 74.1441 31.2483 73.2372 31.4368C72.3303 31.6252 71.2937 31.7077 70.1512 31.7077C69.2207 31.7077 68.3727 31.6252 67.6071 31.4603C66.8297 31.2954 66.1701 31.0245 65.6165 30.6358C65.0629 30.2589 64.6389 29.7642 64.3327 29.1635C64.0382 28.5628 63.8851 27.8208 63.8851 26.9492C63.8733 26.0776 64.0618 25.3473 64.4387 24.7584ZM24.4507 30.9067C24.4507 31.0245 24.4389 31.1541 24.3918 31.3072C24.1091 31.4014 23.744 31.4603 23.3435 31.4957C22.9431 31.531 22.5544 31.5428 22.2128 31.5428C20.8112 31.5428 19.6922 31.1541 18.8442 30.3885C17.9961 29.6229 17.5721 28.3626 17.5721 26.6194V11.4369C18.2317 11.3309 18.8677 11.272 19.5155 11.272C20.128 11.272 20.7641 11.3309 21.4236 11.4369V25.7595C21.4236 26.3249 21.459 26.7725 21.5179 27.1258C21.5768 27.4674 21.6828 27.7383 21.8123 27.9268C21.9537 28.1152 22.1304 28.2566 22.3424 28.3272C22.5662 28.3979 22.8371 28.4333 23.1669 28.4333C23.3082 28.4333 23.4613 28.4215 23.638 28.4097C23.8147 28.3861 23.9796 28.3626 24.1445 28.3272C24.3447 29.0693 24.4507 29.7996 24.4507 30.5063C24.4507 30.6476 24.4507 30.7772 24.4507 30.9067ZM30.8582 31.3779C30.2104 31.4839 29.5626 31.5428 28.9501 31.5428C28.3494 31.5428 27.7251 31.4957 27.0655 31.3779V20.2237H25.2399C25.181 19.9881 25.1339 19.7407 25.1103 19.4816C25.075 19.2225 25.075 18.9634 25.075 18.7278C25.075 18.2331 25.1221 17.7502 25.2399 17.279H30.8582V31.3779ZM46.9358 31.3779C46.2762 31.4839 45.6284 31.5428 44.9924 31.5428C44.3564 31.5428 43.7085 31.4957 43.0607 31.3779V23.4038C43.0607 22.4262 42.9076 21.6606 42.6131 21.1424C42.3069 20.6123 41.7886 20.3414 41.0466 20.3414C40.7404 20.3414 40.4223 20.3886 40.0925 20.4828C39.7627 20.577 39.4683 20.7537 39.2092 21.0128C38.95 21.2719 38.738 21.6489 38.5731 22.12C38.4082 22.5911 38.3258 23.2154 38.3258 23.9692V31.3661C37.6662 31.4721 37.0301 31.531 36.3823 31.531C35.7463 31.531 35.0985 31.4839 34.4507 31.3661V17.279C34.698 17.2319 34.9571 17.1848 35.2163 17.1612C35.4754 17.1377 35.7463 17.1141 36.0643 17.1141C36.3705 17.1141 36.6414 17.1259 36.8888 17.1612C37.1244 17.1848 37.3717 17.2319 37.6308 17.279C37.678 17.3733 37.7368 17.5028 37.7722 17.6677C37.8193 17.8444 37.8546 18.0211 37.9017 18.2213C37.9371 18.4098 37.9724 18.5982 37.996 18.7867C38.0195 18.9634 38.0431 19.1165 38.0666 19.246C38.2433 18.9751 38.4671 18.7042 38.7145 18.4333C38.9736 18.1624 39.2681 17.9151 39.5979 17.7031C39.9394 17.4793 40.3163 17.3026 40.7404 17.173C41.1526 17.0317 41.6237 16.9728 42.1302 16.9728C43.7321 16.9728 44.9335 17.4086 45.7462 18.2802C46.5589 19.1518 46.9594 20.5299 46.9594 22.4027V31.3779H46.9358ZM53.1431 31.1541C52.2008 30.789 51.4352 30.2943 50.8463 29.6464C50.2574 28.9986 49.8216 28.233 49.5389 27.3379C49.2562 26.4545 49.1149 25.4769 49.1149 24.4286C49.1149 23.3921 49.2562 22.4145 49.5507 21.5075C49.8333 20.6006 50.2692 19.8114 50.8463 19.14C51.4234 18.4687 52.1302 17.9386 52.9782 17.5382C53.8263 17.1495 54.8039 16.961 55.9346 16.961C56.924 16.961 57.7956 17.1259 58.5494 17.4675C59.315 17.8208 59.9628 18.292 60.5047 18.8927C61.0347 19.4934 61.4469 20.2001 61.7178 21.0364C61.9887 21.8609 62.1301 22.756 62.1301 23.6983C62.1301 24.0399 62.1183 24.3815 62.0947 24.7113C62.0712 25.0528 62.0359 25.3237 61.9887 25.524H52.9311C53.0018 26.6194 53.3905 27.4085 54.0854 27.8914C54.7685 28.3861 55.6873 28.6335 56.8062 28.6335C57.4187 28.6335 58.0547 28.5746 58.7025 28.4568C59.3504 28.339 59.9628 28.1741 60.54 27.9621C60.7402 28.3272 60.9169 28.7631 61.0582 29.2695C61.1996 29.776 61.282 30.3178 61.3056 30.9067C59.8922 31.4485 58.2903 31.7312 56.5 31.7312C55.2043 31.7077 54.0854 31.5192 53.1431 31.1541ZM75.5693 66.4778C75.5693 70.8829 71.8356 71.0478 71.8356 71.0478H68.832H65.2043V48.3978H62.4834H58.8675V43.5215C60.2926 43.5215 61.7767 43.0504 63.3197 42.1081C64.8391 41.1658 65.8992 39.611 66.4881 37.4674H67.2655H68.4434H70.1041H72.0593H72.5894V37.5027C73.3432 37.5969 73.991 37.9149 74.5446 38.445C75.2278 39.0928 75.5693 39.9055 75.5693 40.8831V66.4778Z" fill="#3822E4"/>
<path d="M101.352 37.5729C101.882 37.4904 102.401 37.4551 102.884 37.4551C103.402 37.4551 103.92 37.4904 104.415 37.5729L107.701 45.7942L111.093 37.5729C111.505 37.4904 111.965 37.4551 112.471 37.4551C112.978 37.4551 113.461 37.4904 113.932 37.5729L114.603 51.9191C114.097 52.0015 113.626 52.0368 113.166 52.0368C112.719 52.0368 112.271 52.0015 111.835 51.9191L111.482 42.19L108.573 48.9273C108.384 48.9509 108.196 48.9744 107.995 48.998C107.795 49.0215 107.595 49.0333 107.395 49.0333C107.23 49.0333 107.053 49.0333 106.877 49.0098C106.712 48.998 106.523 48.9744 106.346 48.9273L103.637 42.0487L103.355 51.9191C102.931 52.0015 102.518 52.0368 102.118 52.0368C101.694 52.0368 101.258 52.0015 100.799 51.9191L101.352 37.5729Z" fill="#3822E4"/>
<path d="M119.491 47.6313C119.55 48.4323 119.821 49.0094 120.327 49.3745C120.833 49.7279 121.493 49.9164 122.329 49.9164C122.789 49.9164 123.236 49.8692 123.707 49.7868C124.179 49.7043 124.626 49.5748 125.05 49.4217C125.203 49.6808 125.321 50.0106 125.427 50.3757C125.533 50.7408 125.592 51.1531 125.604 51.5771C124.567 51.9776 123.401 52.1778 122.094 52.1778C121.14 52.1778 120.315 52.0483 119.632 51.7774C118.949 51.5182 118.395 51.1413 117.96 50.6702C117.524 50.199 117.206 49.6337 117.005 48.9859C116.793 48.338 116.699 47.6313 116.699 46.8539C116.699 46.1001 116.805 45.3934 117.017 44.722C117.229 44.0624 117.547 43.4735 117.971 42.9788C118.384 42.4841 118.914 42.0954 119.526 41.8128C120.139 41.5301 120.857 41.377 121.693 41.377C122.412 41.377 123.048 41.5065 123.601 41.7539C124.167 42.0012 124.638 42.3546 125.027 42.7904C125.415 43.2262 125.71 43.7562 125.91 44.3569C126.11 44.9694 126.204 45.6172 126.204 46.3004C126.204 46.5595 126.193 46.8068 126.169 47.0542C126.157 47.3015 126.134 47.49 126.098 47.6431H119.491V47.6313ZM123.543 45.6525C123.519 45.0165 123.342 44.4983 123.012 44.1096C122.694 43.7209 122.235 43.5206 121.646 43.5206C120.987 43.5206 120.48 43.7091 120.139 44.0742C119.797 44.4511 119.585 44.9694 119.514 45.6525H123.543Z" fill="#3822E4"/>
<path d="M128.726 43.7566H127.43L127.324 43.3562L131.058 38.5977H131.517V41.6129H133.932C133.979 41.8132 134.003 41.9899 134.014 42.1548C134.026 42.3197 134.026 42.4846 134.026 42.6612C134.026 42.8497 134.026 43.0264 134.014 43.203C134.003 43.3797 133.967 43.5682 133.932 43.7802H131.517V47.832C131.517 48.2442 131.553 48.574 131.623 48.8332C131.682 49.0805 131.788 49.2807 131.906 49.4339C132.036 49.5752 132.189 49.6812 132.377 49.7283C132.566 49.7872 132.789 49.8108 133.037 49.8108C133.237 49.8108 133.437 49.7872 133.626 49.7637C133.814 49.7283 133.979 49.693 134.132 49.6694C134.226 49.9168 134.297 50.1877 134.332 50.4586C134.368 50.7295 134.391 50.9768 134.391 51.1889C134.391 51.342 134.391 51.4598 134.38 51.554C134.368 51.6482 134.368 51.7542 134.344 51.8367C133.732 51.9898 133.096 52.0605 132.448 52.0605C131.246 52.0605 130.316 51.7778 129.68 51.2124C129.032 50.647 128.726 49.7283 128.726 48.4562V43.7566Z" fill="#3822E4"/>
<path d="M136.076 41.6129C136.277 41.5658 136.465 41.5422 136.642 41.5187C136.818 41.4951 137.019 41.4951 137.231 41.4951C137.431 41.4951 137.619 41.5069 137.82 41.5305C138.008 41.554 138.208 41.5893 138.385 41.6247C138.42 41.6836 138.467 41.7896 138.491 41.9191C138.526 42.0487 138.55 42.1783 138.585 42.3196C138.609 42.461 138.632 42.6023 138.656 42.7436C138.668 42.885 138.691 43.0028 138.703 43.097C138.997 42.6847 139.351 42.3196 139.775 41.9898C140.199 41.66 140.729 41.5069 141.365 41.5069C141.494 41.5069 141.648 41.5187 141.824 41.5305C141.989 41.5422 142.119 41.5658 142.201 41.5893C142.225 41.7189 142.248 41.872 142.26 42.0487C142.272 42.2254 142.284 42.4021 142.284 42.5905C142.284 42.8143 142.272 43.0617 142.26 43.3326C142.236 43.6035 142.201 43.8508 142.142 44.0982C142.001 44.0628 141.836 44.0628 141.659 44.0628H141.329C141.094 44.0628 140.847 44.0864 140.564 44.1335C140.293 44.1806 140.022 44.3102 139.763 44.4986C139.516 44.6989 139.304 45.0051 139.139 45.3938C138.974 45.7943 138.891 46.3596 138.891 47.0781V51.978C138.644 52.0251 138.408 52.0486 138.173 52.0604C137.937 52.0722 137.702 52.084 137.478 52.084C137.254 52.084 137.03 52.0722 136.783 52.0604C136.547 52.0486 136.312 52.0251 136.053 51.978V41.6129H136.076Z" fill="#3822E4"/>
<path d="M148.161 52.1544C147.325 52.1544 146.594 52.013 145.982 51.7421C145.357 51.4712 144.851 51.0825 144.451 50.5996C144.05 50.1167 143.744 49.5513 143.532 48.8917C143.332 48.2439 143.226 47.5372 143.226 46.7716C143.226 46.0178 143.32 45.2993 143.532 44.6397C143.744 43.9801 144.05 43.403 144.451 42.9201C144.863 42.4371 145.369 42.0484 145.982 41.7775C146.606 41.4949 147.325 41.3535 148.161 41.3535C148.997 41.3535 149.727 41.4949 150.352 41.7775C150.976 42.0602 151.494 42.4371 151.906 42.9201C152.319 43.403 152.625 43.9801 152.825 44.6397C153.025 45.3111 153.131 46.0178 153.131 46.7716C153.131 47.5372 153.025 48.2321 152.825 48.8917C152.625 49.5396 152.319 50.1049 151.906 50.5996C151.494 51.0825 150.976 51.4712 150.352 51.7421C149.727 52.0248 148.997 52.1544 148.161 52.1544ZM148.161 49.9989C148.903 49.9989 149.445 49.728 149.763 49.1744C150.081 48.6208 150.246 47.8317 150.246 46.7834C150.246 45.7469 150.081 44.9577 149.763 44.4041C149.433 43.8506 148.903 43.5796 148.161 43.5796C147.431 43.5796 146.9 43.8623 146.571 44.4041C146.253 44.9577 146.088 45.7587 146.088 46.7834C146.088 47.8199 146.253 48.6208 146.571 49.1744C146.9 49.728 147.431 49.9989 148.161 49.9989Z" fill="#3822E4"/>
<path d="M107.336 56.0533C107.583 56.0062 107.831 55.9826 108.066 55.9708C108.302 55.959 108.537 55.9473 108.773 55.9473C109.009 55.9473 109.256 55.959 109.491 55.9708C109.739 55.9826 109.986 56.0062 110.234 56.0533V70.7175C109.586 70.9177 108.938 71.0591 108.278 71.1533C107.619 71.2593 106.806 71.3064 105.864 71.3064C105.133 71.3064 104.439 71.2122 103.779 71.0119C103.119 70.8117 102.53 70.4937 102.024 70.0697C101.517 69.6456 101.117 69.0803 100.823 68.3971C100.528 67.714 100.387 66.8777 100.387 65.8883C100.387 65.1109 100.516 64.3689 100.764 63.6857C101.023 62.9908 101.376 62.3901 101.859 61.8954C102.33 61.3889 102.896 60.9885 103.567 60.694C104.238 60.3995 104.98 60.2464 105.805 60.2464C106.052 60.2464 106.3 60.2582 106.582 60.2817C106.841 60.2935 107.1 60.3406 107.348 60.4113V56.0533H107.336ZM107.336 62.6492C107.065 62.5785 106.853 62.5432 106.676 62.5197C106.512 62.4961 106.288 62.4843 106.029 62.4843C105.581 62.4843 105.181 62.5785 104.851 62.7552C104.509 62.9437 104.238 63.191 104.026 63.4973C103.802 63.8035 103.638 64.1686 103.543 64.5927C103.437 65.0049 103.39 65.4407 103.39 65.9001C103.39 66.4655 103.461 66.9366 103.602 67.3253C103.732 67.714 103.92 68.032 104.168 68.2558C104.415 68.4914 104.686 68.6562 105.016 68.7623C105.345 68.8565 105.699 68.9154 106.087 68.9154C106.311 68.9154 106.535 68.9036 106.724 68.88C106.912 68.8565 107.136 68.8211 107.36 68.7505V62.6492H107.336Z" fill="#3822E4"/>
<path d="M115.357 66.6538C115.416 67.4783 115.699 68.079 116.217 68.4442C116.735 68.8093 117.419 68.9977 118.267 68.9977C118.738 68.9977 119.209 68.9506 119.692 68.8564C120.175 68.774 120.646 68.6444 121.082 68.4795C121.235 68.7504 121.364 69.0802 121.47 69.4689C121.576 69.8576 121.635 70.258 121.659 70.7056C120.587 71.1179 119.386 71.3181 118.055 71.3181C117.065 71.3181 116.217 71.1885 115.522 70.9059C114.815 70.635 114.238 70.2463 113.791 69.7633C113.343 69.2804 113.013 68.7033 112.813 68.0319C112.601 67.3605 112.495 66.6303 112.495 65.8293C112.495 65.052 112.613 64.3099 112.825 63.6268C113.049 62.9436 113.367 62.3429 113.803 61.8364C114.238 61.33 114.768 60.9295 115.404 60.635C116.04 60.3406 116.782 60.1992 117.631 60.1992C118.373 60.1992 119.032 60.3288 119.609 60.5879C120.175 60.847 120.669 61.2004 121.07 61.6597C121.47 62.1073 121.777 62.6491 121.977 63.2734C122.189 63.8977 122.283 64.569 122.283 65.2757C122.283 65.5349 122.271 65.794 122.248 66.0413C122.224 66.2887 122.201 66.4889 122.177 66.642H115.357V66.6538ZM119.527 64.6161C119.503 63.9566 119.315 63.4265 118.985 63.0261C118.643 62.6138 118.184 62.4136 117.583 62.4136C116.9 62.4136 116.382 62.6138 116.017 62.9907C115.664 63.3676 115.452 63.9212 115.381 64.6161H119.527Z" fill="#3822E4"/>
<path d="M129.091 56.3004C129.597 56.218 130.08 56.1826 130.551 56.1826C131.022 56.1826 131.529 56.218 132.047 56.3004V68.4794H137.159C137.206 68.7149 137.23 68.9387 137.242 69.1507C137.253 69.3627 137.265 69.563 137.265 69.7514C137.265 69.9752 137.253 70.1872 137.242 70.3992C137.23 70.6113 137.206 70.8351 137.159 71.0588H129.091V56.3004Z" fill="#3822E4"/>
<path d="M139.574 62.6727H138.196C138.161 62.496 138.125 62.3076 138.102 62.1073C138.09 61.9071 138.078 61.7186 138.078 61.542C138.078 61.1651 138.125 60.8117 138.196 60.4466H142.424V71.0708C141.941 71.1532 141.459 71.2003 140.987 71.2003C140.54 71.2003 140.057 71.1532 139.574 71.0708V62.6727ZM139.138 58.6562C139.056 58.1851 139.02 57.7375 139.02 57.2782C139.02 56.8424 139.056 56.383 139.138 55.9001C139.374 55.853 139.621 55.8294 139.892 55.8058C140.163 55.7823 140.398 55.7705 140.622 55.7705C140.846 55.7705 141.105 55.7823 141.376 55.8058C141.659 55.8294 141.906 55.853 142.13 55.9001C142.177 56.1356 142.201 56.3594 142.212 56.5832C142.224 56.8188 142.236 57.0426 142.236 57.2664C142.236 57.4902 142.236 57.714 142.212 57.9495C142.201 58.1733 142.177 58.4089 142.13 58.6445C141.894 58.6916 141.647 58.7151 141.376 58.7269C141.117 58.7387 140.87 58.7505 140.634 58.7505C140.422 58.7505 140.175 58.7387 139.892 58.7269C139.633 58.7269 139.374 58.7034 139.138 58.6562Z" fill="#3822E4"/>
<path d="M145.298 60.4465C145.486 60.4112 145.675 60.3758 145.875 60.3523C146.063 60.3287 146.275 60.3169 146.511 60.3169C146.747 60.3169 146.947 60.3287 147.135 60.3523C147.312 60.3758 147.5 60.3994 147.689 60.4465C147.736 60.5172 147.76 60.6114 147.807 60.741C147.842 60.8705 147.866 61.0119 147.901 61.1532C147.936 61.2946 147.948 61.4359 147.983 61.5772C148.007 61.7068 148.019 61.8246 148.03 61.9306C148.148 61.7304 148.29 61.5184 148.466 61.3181C148.643 61.1061 148.855 60.9294 149.102 60.7645C149.35 60.5996 149.632 60.4701 149.927 60.3641C150.233 60.2581 150.586 60.2109 150.963 60.2109C152.612 60.2109 153.684 60.847 154.143 62.0955C154.426 61.589 154.803 61.1532 155.31 60.7763C155.804 60.3994 156.44 60.2109 157.206 60.2109C158.419 60.2109 159.302 60.5407 159.868 61.2121C160.433 61.8835 160.716 62.92 160.716 64.3216V71.0825C160.221 71.1649 159.738 71.212 159.255 71.212C158.772 71.212 158.29 71.1649 157.795 71.0825V65.0872C157.795 64.357 157.701 63.7798 157.512 63.3911C157.324 62.9907 156.947 62.7904 156.393 62.7904C156.169 62.7904 155.934 62.8258 155.71 62.8847C155.486 62.9553 155.274 63.0849 155.098 63.2733C154.909 63.45 154.756 63.7091 154.65 64.0507C154.532 64.3923 154.473 64.8163 154.473 65.3464V71.0825C153.979 71.1649 153.496 71.212 153.013 71.212C152.542 71.212 152.047 71.1649 151.552 71.0825V65.0872C151.552 64.357 151.458 63.7798 151.27 63.3911C151.093 62.9907 150.716 62.7904 150.151 62.7904C149.915 62.7904 149.679 62.8258 149.456 62.8847C149.22 62.9553 149.02 63.0967 148.831 63.2851C148.643 63.4854 148.502 63.768 148.384 64.1214C148.266 64.4747 148.219 64.9341 148.219 65.5113V71.0825C147.724 71.1649 147.241 71.212 146.758 71.212C146.275 71.212 145.793 71.1649 145.298 71.0825V60.4465Z" fill="#3822E4"/>
<path d="M168.632 64.0861C168.632 63.7563 168.573 63.4971 168.467 63.2851C168.349 63.0849 168.208 62.92 168.019 62.8022C167.831 62.6844 167.583 62.602 167.312 62.5666C167.03 62.5195 166.724 62.5077 166.382 62.5077C165.64 62.5077 164.851 62.6491 164.026 62.9435C163.838 62.5902 163.685 62.2486 163.59 61.9424C163.496 61.6244 163.449 61.2474 163.449 60.8116C164.05 60.5996 164.651 60.4583 165.251 60.3523C165.852 60.2581 166.417 60.2109 166.936 60.2109C168.361 60.2109 169.468 60.5525 170.269 61.2357C171.07 61.9188 171.47 63.0142 171.47 64.5219V70.682C170.987 70.8351 170.41 70.9765 169.727 71.1178C169.044 71.2592 168.267 71.318 167.407 71.318C166.712 71.318 166.076 71.2592 165.487 71.1296C164.91 71.0118 164.403 70.7998 163.991 70.5171C163.579 70.2344 163.249 69.8575 163.025 69.4099C162.801 68.9624 162.695 68.4088 162.695 67.7492C162.695 67.0896 162.837 66.536 163.108 66.0884C163.39 65.6408 163.755 65.2875 164.203 65.0283C164.651 64.7574 165.145 64.569 165.687 64.4512C166.241 64.3334 166.782 64.2745 167.324 64.2745C167.725 64.2745 168.161 64.2981 168.643 64.3334V64.0861H168.632ZM168.632 66.1944C168.467 66.1709 168.29 66.1473 168.09 66.1237C167.901 66.1002 167.725 66.0884 167.583 66.0884C166.912 66.0884 166.382 66.2062 165.993 66.4535C165.605 66.7009 165.404 67.0778 165.404 67.6078C165.404 67.9612 165.475 68.2439 165.64 68.4323C165.781 68.6208 165.958 68.7621 166.182 68.8446C166.394 68.9388 166.618 68.9859 166.853 69.0095C167.1 69.033 167.301 69.0448 167.477 69.0448C167.689 69.0448 167.89 69.0212 168.09 68.9859C168.302 68.9506 168.479 68.927 168.632 68.8917V66.1944Z" fill="#3822E4"/>
</svg>
