<svg width="172" height="81" viewBox="0 0 172 81" fill="none" xmlns="http://www.w3.org/2000/svg">
<path d="M68.526 28.4448C68.8087 28.5626 69.1149 28.6332 69.4329 28.6686C69.7509 28.7039 70.0218 28.7157 70.2574 28.7157C70.5283 28.7157 70.811 28.6921 71.0819 28.645C71.3528 28.5979 71.5884 28.5626 71.8004 28.5272V24.923C71.5766 24.8877 71.341 24.8524 71.0819 24.8288C70.8228 24.8052 70.599 24.7935 70.3988 24.7935C69.5154 24.7935 68.8087 24.9584 68.2786 25.2764C67.7604 25.5944 67.5013 26.1009 67.5013 26.8194C67.5013 27.3023 67.6073 27.6556 67.8075 27.9148C68.0077 28.1385 68.2433 28.327 68.526 28.4448Z" fill="#E4EDF5"/>
<path d="M57.7486 20.6947C57.301 20.1529 56.6767 19.882 55.8876 19.882C54.9689 19.882 54.2857 20.1293 53.8146 20.6476C53.3434 21.154 53.0608 21.8725 52.9783 22.7912H58.4906C58.4317 21.9314 58.1962 21.2365 57.7486 20.6947Z" fill="#E4EDF5"/>
<path d="M76.3232 2.54415C71.5058 0.117785 64.5093 2.50882 64.5093 2.50882C36.1821 11.7431 36.6179 11.5076 29.5979 13.9104C29.433 13.9575 29.0561 14.0753 28.903 14.0871C28.5614 14.1106 28.2787 13.8044 28.2787 13.451C28.2787 13.2743 28.3612 13.0977 28.5025 12.9917C28.6085 12.8974 28.7028 12.8385 28.7028 12.8385C28.7028 12.8385 33.8028 9.6348 38.632 6.76085C39.7039 6.11303 40.5755 5.63011 41.5531 5.05297C42.3422 4.58183 44.8864 3.2862 44.8864 1.80211C44.8864 0.859829 44.1561 0.0942279 43.2374 0.023557C43.1903 0.023557 42.9076 0 42.8369 0H41.506H23.4378H17.4779C13.2847 0 10.1752 1.23674 8.0904 2.48526C3.50857 5.44166 0.469727 10.6006 0.469727 16.4663C0.469727 20.8008 2.11871 24.7466 4.83954 27.703V27.7148L55.5695 75.7239C58.5612 78.586 62.6012 80.341 67.0653 80.341C76.2643 80.341 83.7083 72.8853 83.7083 63.698L83.7554 14.0282C83.7436 9.26967 80.6576 5.0883 76.3232 2.54415ZM64.4387 24.7584C64.8156 24.1694 65.2985 23.6983 65.8756 23.345C66.4646 22.9916 67.1242 22.7325 67.8544 22.5793C68.5847 22.4262 69.315 22.3438 70.0335 22.3438C70.5635 22.3438 71.1406 22.3791 71.7767 22.4262V22.0964C71.7767 21.6606 71.706 21.3073 71.5529 21.0364C71.4115 20.7655 71.2113 20.5417 70.9522 20.3886C70.7048 20.2354 70.3868 20.1294 70.0099 20.0705C69.6565 20.0234 69.2443 19.9999 68.7849 19.9999C67.8073 19.9999 66.759 20.1883 65.6401 20.577C65.381 20.1059 65.1925 19.6583 65.0747 19.2343C64.9569 18.822 64.8863 18.3155 64.8863 17.7384C65.6872 17.4675 66.4763 17.2673 67.2891 17.1377C68.09 17.0081 68.832 16.9492 69.527 16.9492C71.4115 16.9492 72.8956 17.3968 73.9557 18.3155C75.0275 19.2225 75.5576 20.683 75.5576 22.6736V30.8596C74.9215 31.0599 74.1441 31.2483 73.2372 31.4368C72.3303 31.6252 71.2937 31.7077 70.1512 31.7077C69.2207 31.7077 68.3727 31.6252 67.6071 31.4603C66.8297 31.2954 66.1701 31.0245 65.6165 30.6358C65.0629 30.2589 64.6389 29.7642 64.3327 29.1635C64.0382 28.5628 63.8851 27.8208 63.8851 26.9492C63.8733 26.0776 64.0618 25.3473 64.4387 24.7584ZM24.4507 30.9067C24.4507 31.0245 24.4389 31.1541 24.3918 31.3072C24.1091 31.4014 23.744 31.4603 23.3435 31.4957C22.9431 31.531 22.5544 31.5428 22.2128 31.5428C20.8112 31.5428 19.6922 31.1541 18.8442 30.3885C17.9961 29.6229 17.5721 28.3626 17.5721 26.6194V11.4369C18.2317 11.3309 18.8677 11.272 19.5155 11.272C20.128 11.272 20.7641 11.3309 21.4236 11.4369V25.7595C21.4236 26.3249 21.459 26.7725 21.5179 27.1258C21.5768 27.4674 21.6828 27.7383 21.8123 27.9268C21.9537 28.1152 22.1304 28.2566 22.3424 28.3272C22.5662 28.3979 22.8371 28.4333 23.1669 28.4333C23.3082 28.4333 23.4613 28.4215 23.638 28.4097C23.8147 28.3861 23.9796 28.3626 24.1445 28.3272C24.3447 29.0693 24.4507 29.7996 24.4507 30.5063C24.4507 30.6476 24.4507 30.7772 24.4507 30.9067ZM30.8582 31.3779C30.2104 31.4839 29.5626 31.5428 28.9501 31.5428C28.3494 31.5428 27.7251 31.4957 27.0655 31.3779V20.2237H25.2399C25.181 19.9881 25.1339 19.7407 25.1103 19.4816C25.075 19.2225 25.075 18.9634 25.075 18.7278C25.075 18.2331 25.1221 17.7502 25.2399 17.279H30.8582V31.3779ZM46.9358 31.3779C46.2762 31.4839 45.6284 31.5428 44.9924 31.5428C44.3564 31.5428 43.7085 31.4957 43.0607 31.3779V23.4038C43.0607 22.4262 42.9076 21.6606 42.6131 21.1424C42.3069 20.6123 41.7886 20.3414 41.0466 20.3414C40.7404 20.3414 40.4223 20.3886 40.0925 20.4828C39.7627 20.577 39.4683 20.7537 39.2092 21.0128C38.95 21.2719 38.738 21.6489 38.5731 22.12C38.4082 22.5911 38.3258 23.2154 38.3258 23.9692V31.3661C37.6662 31.4721 37.0301 31.531 36.3823 31.531C35.7463 31.531 35.0985 31.4839 34.4507 31.3661V17.279C34.698 17.2319 34.9571 17.1848 35.2163 17.1612C35.4754 17.1377 35.7463 17.1141 36.0643 17.1141C36.3705 17.1141 36.6414 17.1259 36.8888 17.1612C37.1244 17.1848 37.3717 17.2319 37.6308 17.279C37.678 17.3733 37.7368 17.5028 37.7722 17.6677C37.8193 17.8444 37.8546 18.0211 37.9017 18.2213C37.9371 18.4098 37.9724 18.5982 37.996 18.7867C38.0195 18.9634 38.0431 19.1165 38.0666 19.246C38.2433 18.9751 38.4671 18.7042 38.7145 18.4333C38.9736 18.1624 39.2681 17.9151 39.5979 17.7031C39.9394 17.4793 40.3163 17.3026 40.7404 17.173C41.1526 17.0317 41.6237 16.9728 42.1302 16.9728C43.7321 16.9728 44.9335 17.4086 45.7462 18.2802C46.5589 19.1518 46.9594 20.5299 46.9594 22.4027V31.3779H46.9358ZM53.1431 31.1541C52.2008 30.789 51.4352 30.2943 50.8463 29.6464C50.2574 28.9986 49.8216 28.233 49.5389 27.3379C49.2562 26.4545 49.1149 25.4769 49.1149 24.4286C49.1149 23.3921 49.2562 22.4145 49.5507 21.5075C49.8333 20.6006 50.2692 19.8114 50.8463 19.14C51.4234 18.4687 52.1302 17.9386 52.9782 17.5382C53.8263 17.1495 54.8039 16.961 55.9346 16.961C56.924 16.961 57.7956 17.1259 58.5494 17.4675C59.315 17.8208 59.9628 18.292 60.5047 18.8927C61.0347 19.4934 61.4469 20.2001 61.7178 21.0364C61.9887 21.8609 62.1301 22.756 62.1301 23.6983C62.1301 24.0399 62.1183 24.3815 62.0947 24.7113C62.0712 25.0528 62.0359 25.3237 61.9887 25.524H52.9311C53.0018 26.6194 53.3905 27.4085 54.0854 27.8914C54.7685 28.3861 55.6873 28.6335 56.8062 28.6335C57.4187 28.6335 58.0547 28.5746 58.7025 28.4568C59.3504 28.339 59.9628 28.1741 60.54 27.9621C60.7402 28.3272 60.9169 28.7631 61.0582 29.2695C61.1996 29.776 61.282 30.3178 61.3056 30.9067C59.8922 31.4485 58.2903 31.7312 56.5 31.7312C55.2043 31.7077 54.0854 31.5192 53.1431 31.1541ZM75.5693 66.4778C75.5693 70.8829 71.8356 71.0478 71.8356 71.0478H68.832H65.2043V48.3978H62.4834H58.8675V43.5215C60.2926 43.5215 61.7767 43.0504 63.3197 42.1081C64.8391 41.1658 65.8992 39.611 66.4881 37.4674H67.2655H68.4434H70.1041H72.0593H72.5894V37.5027C73.3432 37.5969 73.991 37.9149 74.5446 38.445C75.2278 39.0928 75.5693 39.9055 75.5693 40.8831V66.4778Z" fill="#E4EDF5"/>
<path d="M101.352 37.5729C101.882 37.4904 102.4 37.4551 102.883 37.4551C103.401 37.4551 103.92 37.4904 104.414 37.5729L107.701 45.7942L111.093 37.5729C111.505 37.4904 111.964 37.4551 112.471 37.4551C112.977 37.4551 113.46 37.4904 113.931 37.5729L114.603 51.9191C114.096 52.0015 113.625 52.0368 113.166 52.0368C112.718 52.0368 112.271 52.0015 111.835 51.9191L111.482 42.19L108.572 48.9273C108.384 48.9509 108.195 48.9744 107.995 48.998C107.795 49.0215 107.595 49.0333 107.394 49.0333C107.229 49.0333 107.053 49.0333 106.876 49.0098C106.711 48.998 106.523 48.9744 106.346 48.9273L103.637 42.0487L103.354 51.9191C102.93 52.0015 102.518 52.0368 102.118 52.0368C101.694 52.0368 101.258 52.0015 100.798 51.9191L101.352 37.5729Z" fill="#E4EDF5"/>
<path d="M119.491 47.6318C119.55 48.4327 119.821 49.0099 120.327 49.375C120.834 49.7284 121.493 49.9168 122.33 49.9168C122.789 49.9168 123.236 49.8697 123.708 49.7873C124.179 49.7048 124.626 49.5753 125.05 49.4221C125.203 49.6813 125.321 50.0111 125.427 50.3762C125.533 50.7413 125.592 51.1536 125.604 51.5776C124.567 51.9781 123.401 52.1783 122.094 52.1783C121.14 52.1783 120.315 52.0487 119.632 51.7778C118.949 51.5187 118.396 51.1418 117.96 50.6707C117.524 50.1995 117.206 49.6342 117.006 48.9863C116.794 48.3385 116.699 47.6318 116.699 46.8544C116.699 46.1006 116.805 45.3939 117.017 44.7225C117.229 44.0629 117.547 43.474 117.971 42.9793C118.384 42.4846 118.914 42.0959 119.526 41.8132C120.139 41.5306 120.857 41.3774 121.693 41.3774C122.412 41.3774 123.048 41.507 123.602 41.7544C124.167 42.0017 124.638 42.3551 125.027 42.7909C125.415 43.2267 125.71 43.7567 125.91 44.3574C126.11 44.9699 126.205 45.6177 126.205 46.3008C126.205 46.56 126.193 46.8073 126.169 47.0547C126.158 47.302 126.134 47.4905 126.099 47.6436H119.491V47.6318ZM123.543 45.653C123.519 45.017 123.342 44.4987 123.013 44.11C122.695 43.7214 122.235 43.5211 121.646 43.5211C120.987 43.5211 120.48 43.7096 120.139 44.0747C119.797 44.4516 119.585 44.9699 119.514 45.653H123.543Z" fill="#E4EDF5"/>
<path d="M128.726 43.7569H127.43L127.324 43.3564L131.058 38.5979H131.517V41.6132H133.932C133.979 41.8134 134.003 41.9901 134.014 42.155C134.026 42.3199 134.026 42.4848 134.026 42.6615C134.026 42.8499 134.026 43.0266 134.014 43.2033C134.003 43.38 133.967 43.5684 133.932 43.7804H131.517V47.8322C131.517 48.2445 131.553 48.5743 131.623 48.8334C131.682 49.0807 131.788 49.281 131.906 49.4341C132.036 49.5754 132.189 49.6815 132.377 49.7286C132.566 49.7875 132.789 49.811 133.037 49.811C133.237 49.811 133.437 49.7875 133.626 49.7639C133.814 49.7286 133.979 49.6932 134.132 49.6697C134.226 49.917 134.297 50.1879 134.332 50.4588C134.368 50.7297 134.391 50.9771 134.391 51.1891C134.391 51.3422 134.391 51.46 134.38 51.5542C134.368 51.6485 134.368 51.7545 134.344 51.8369C133.732 51.99 133.096 52.0607 132.448 52.0607C131.246 52.0607 130.316 51.778 129.68 51.2127C129.032 50.6473 128.726 49.7286 128.726 48.4565V43.7569Z" fill="#E4EDF5"/>
<path d="M136.076 41.6131C136.276 41.566 136.464 41.5425 136.641 41.5189C136.818 41.4954 137.018 41.4954 137.23 41.4954C137.43 41.4954 137.619 41.5071 137.819 41.5307C138.007 41.5543 138.208 41.5896 138.384 41.6249C138.42 41.6838 138.467 41.7898 138.49 41.9194C138.526 42.049 138.549 42.1785 138.585 42.3199C138.608 42.4612 138.632 42.6025 138.655 42.7439C138.667 42.8852 138.691 43.003 138.702 43.0972C138.997 42.685 139.35 42.3199 139.774 41.9901C140.198 41.6603 140.728 41.5071 141.364 41.5071C141.494 41.5071 141.647 41.5189 141.824 41.5307C141.989 41.5425 142.118 41.566 142.201 41.5896C142.224 41.7192 142.248 41.8723 142.259 42.049C142.271 42.2256 142.283 42.4023 142.283 42.5908C142.283 42.8146 142.271 43.0619 142.259 43.3328C142.236 43.6037 142.201 43.8511 142.142 44.0984C142 44.0631 141.835 44.0631 141.659 44.0631H141.329C141.093 44.0631 140.846 44.0866 140.563 44.1337C140.292 44.1809 140.022 44.3104 139.762 44.4989C139.515 44.6991 139.303 45.0054 139.138 45.394C138.973 45.7945 138.891 46.3599 138.891 47.0784V51.9782C138.643 52.0253 138.408 52.0489 138.172 52.0607C137.937 52.0724 137.701 52.0842 137.477 52.0842C137.254 52.0842 137.03 52.0724 136.782 52.0607C136.547 52.0489 136.311 52.0253 136.052 51.9782V41.6131H136.076Z" fill="#E4EDF5"/>
<path d="M148.16 52.1547C147.324 52.1547 146.594 52.0134 145.981 51.7425C145.357 51.4716 144.851 51.0829 144.45 50.6C144.05 50.1171 143.743 49.5517 143.531 48.8921C143.331 48.2443 143.225 47.5376 143.225 46.772C143.225 46.0182 143.319 45.2997 143.531 44.6401C143.743 43.9805 144.05 43.4033 144.45 42.9204C144.862 42.4375 145.369 42.0488 145.981 41.7779C146.606 41.4952 147.324 41.3539 148.16 41.3539C148.997 41.3539 149.727 41.4952 150.351 41.7779C150.975 42.0606 151.494 42.4375 151.906 42.9204C152.318 43.4033 152.624 43.9805 152.825 44.6401C153.025 45.3115 153.131 46.0182 153.131 46.772C153.131 47.5376 153.025 48.2325 152.825 48.8921C152.624 49.5399 152.318 50.1053 151.906 50.6C151.494 51.0829 150.975 51.4716 150.351 51.7425C149.727 52.0252 148.997 52.1547 148.16 52.1547ZM148.16 49.9993C148.902 49.9993 149.444 49.7284 149.762 49.1748C150.08 48.6212 150.245 47.832 150.245 46.7838C150.245 45.7473 150.08 44.9581 149.762 44.4045C149.432 43.8509 148.902 43.58 148.16 43.58C147.43 43.58 146.9 43.8627 146.57 44.4045C146.252 44.9581 146.087 45.759 146.087 46.7838C146.087 47.8203 146.252 48.6212 146.57 49.1748C146.9 49.7284 147.43 49.9993 148.16 49.9993Z" fill="#E4EDF5"/>
<path d="M107.336 56.0535C107.583 56.0064 107.831 55.9828 108.066 55.9711C108.302 55.9593 108.537 55.9475 108.773 55.9475C109.009 55.9475 109.256 55.9593 109.491 55.9711C109.739 55.9828 109.986 56.0064 110.233 56.0535V70.7177C109.586 70.918 108.938 71.0593 108.278 71.1535C107.619 71.2595 106.806 71.3067 105.864 71.3067C105.133 71.3067 104.438 71.2124 103.779 71.0122C103.119 70.812 102.53 70.4939 102.024 70.0699C101.517 69.6459 101.117 69.0805 100.822 68.3974C100.528 67.7142 100.387 66.8779 100.387 65.8885C100.387 65.1112 100.516 64.3691 100.764 63.686C101.023 62.991 101.376 62.3903 101.859 61.8956C102.33 61.3892 102.895 60.9887 103.567 60.6942C104.238 60.3998 104.98 60.2467 105.805 60.2467C106.052 60.2467 106.299 60.2584 106.582 60.282C106.841 60.2938 107.1 60.3409 107.348 60.4116V56.0535H107.336ZM107.336 62.6495C107.065 62.5788 106.853 62.5435 106.676 62.5199C106.511 62.4963 106.288 62.4846 106.029 62.4846C105.581 62.4846 105.181 62.5788 104.851 62.7555C104.509 62.9439 104.238 63.1913 104.026 63.4975C103.802 63.8038 103.638 64.1689 103.543 64.5929C103.437 65.0052 103.39 65.441 103.39 65.9003C103.39 66.4657 103.461 66.9368 103.602 67.3255C103.732 67.7142 103.92 68.0322 104.168 68.256C104.415 68.4916 104.686 68.6565 105.016 68.7625C105.345 68.8567 105.699 68.9156 106.087 68.9156C106.311 68.9156 106.535 68.9038 106.723 68.8803C106.912 68.8567 107.136 68.8214 107.36 68.7507V62.6495H107.336Z" fill="#E4EDF5"/>
<path d="M115.357 66.6539C115.416 67.4784 115.699 68.0791 116.217 68.4443C116.736 68.8094 117.419 68.9979 118.267 68.9979C118.738 68.9979 119.209 68.9508 119.692 68.8565C120.175 68.7741 120.646 68.6445 121.082 68.4796C121.235 68.7505 121.364 69.0803 121.47 69.469C121.576 69.8577 121.635 70.2582 121.659 70.7057C120.587 71.118 119.386 71.3182 118.055 71.3182C117.065 71.3182 116.217 71.1887 115.522 70.906C114.816 70.6351 114.238 70.2464 113.791 69.7635C113.343 69.2805 113.014 68.7034 112.813 68.032C112.601 67.3607 112.495 66.6304 112.495 65.8295C112.495 65.0521 112.613 64.31 112.825 63.6269C113.049 62.9437 113.367 62.343 113.803 61.8365C114.238 61.3301 114.769 60.9296 115.405 60.6351C116.041 60.3407 116.783 60.1993 117.631 60.1993C118.373 60.1993 119.032 60.3289 119.609 60.588C120.175 60.8472 120.67 61.2005 121.07 61.6599C121.47 62.1075 121.777 62.6493 121.977 63.2735C122.189 63.8978 122.283 64.5692 122.283 65.2759C122.283 65.535 122.271 65.7941 122.248 66.0415C122.224 66.2888 122.201 66.4891 122.177 66.6422H115.357V66.6539ZM119.527 64.6163C119.503 63.9567 119.315 63.4266 118.985 63.0262C118.644 62.6139 118.184 62.4137 117.584 62.4137C116.9 62.4137 116.382 62.6139 116.017 62.9908C115.664 63.3678 115.452 63.9213 115.381 64.6163H119.527Z" fill="#E4EDF5"/>
<path d="M129.091 56.3005C129.597 56.2181 130.08 56.1827 130.551 56.1827C131.023 56.1827 131.529 56.2181 132.047 56.3005V68.4795H137.159C137.206 68.715 137.23 68.9388 137.242 69.1508C137.253 69.3629 137.265 69.5631 137.265 69.7516C137.265 69.9753 137.253 70.1874 137.242 70.3994C137.23 70.6114 137.206 70.8352 137.159 71.059H129.091V56.3005Z" fill="#E4EDF5"/>
<path d="M139.574 62.6726H138.196C138.16 62.4959 138.125 62.3074 138.101 62.1072C138.09 61.907 138.078 61.7185 138.078 61.5418C138.078 61.1649 138.125 60.8116 138.196 60.4464H142.424V71.0706C141.941 71.1531 141.458 71.2002 140.987 71.2002C140.54 71.2002 140.057 71.1531 139.574 71.0706V62.6726ZM139.138 58.6561C139.055 58.185 139.02 57.7374 139.02 57.278C139.02 56.8422 139.055 56.3829 139.138 55.8999C139.373 55.8528 139.621 55.8293 139.892 55.8057C140.163 55.7822 140.398 55.7704 140.622 55.7704C140.846 55.7704 141.105 55.7822 141.376 55.8057C141.658 55.8293 141.906 55.8528 142.13 55.8999C142.177 56.1355 142.2 56.3593 142.212 56.5831C142.224 56.8187 142.236 57.0425 142.236 57.2663C142.236 57.49 142.236 57.7138 142.212 57.9494C142.2 58.1732 142.177 58.4088 142.13 58.6443C141.894 58.6915 141.647 58.715 141.376 58.7268C141.117 58.7386 140.869 58.7503 140.634 58.7503C140.422 58.7503 140.174 58.7386 139.892 58.7268C139.633 58.7268 139.373 58.7032 139.138 58.6561Z" fill="#E4EDF5"/>
<path d="M145.298 60.4465C145.486 60.4112 145.675 60.3758 145.875 60.3523C146.063 60.3287 146.275 60.3169 146.511 60.3169C146.747 60.3169 146.947 60.3287 147.135 60.3523C147.312 60.3758 147.5 60.3994 147.689 60.4465C147.736 60.5172 147.76 60.6114 147.807 60.741C147.842 60.8705 147.866 61.0119 147.901 61.1532C147.936 61.2946 147.948 61.4359 147.983 61.5772C148.007 61.7068 148.019 61.8246 148.03 61.9306C148.148 61.7304 148.29 61.5184 148.466 61.3181C148.643 61.1061 148.855 60.9294 149.102 60.7645C149.35 60.5996 149.632 60.4701 149.927 60.3641C150.233 60.2581 150.586 60.2109 150.963 60.2109C152.612 60.2109 153.684 60.847 154.144 62.0955C154.426 61.589 154.803 61.1532 155.31 60.7763C155.804 60.3994 156.44 60.2109 157.206 60.2109C158.419 60.2109 159.303 60.5407 159.868 61.2121C160.433 61.8835 160.716 62.92 160.716 64.3216V71.0825C160.221 71.1649 159.738 71.212 159.255 71.212C158.772 71.212 158.29 71.1649 157.795 71.0825V65.0872C157.795 64.357 157.701 63.7798 157.512 63.3911C157.324 62.9907 156.947 62.7904 156.393 62.7904C156.169 62.7904 155.934 62.8258 155.71 62.8847C155.486 62.9553 155.274 63.0849 155.098 63.2733C154.909 63.45 154.756 63.7091 154.65 64.0507C154.532 64.3923 154.473 64.8163 154.473 65.3464V71.0825C153.979 71.1649 153.496 71.212 153.013 71.212C152.542 71.212 152.047 71.1649 151.552 71.0825V65.0872C151.552 64.357 151.458 63.7798 151.27 63.3911C151.093 62.9907 150.716 62.7904 150.151 62.7904C149.915 62.7904 149.679 62.8258 149.456 62.8847C149.22 62.9553 149.02 63.0967 148.831 63.2851C148.643 63.4854 148.502 63.768 148.384 64.1214C148.266 64.4747 148.219 64.9341 148.219 65.5113V71.0825C147.724 71.1649 147.241 71.212 146.758 71.212C146.275 71.212 145.793 71.1649 145.298 71.0825V60.4465Z" fill="#E4EDF5"/>
<path d="M168.632 64.0861C168.632 63.7563 168.573 63.4971 168.467 63.2851C168.349 63.0849 168.208 62.92 168.019 62.8022C167.831 62.6844 167.583 62.602 167.312 62.5666C167.03 62.5195 166.724 62.5077 166.382 62.5077C165.64 62.5077 164.851 62.6491 164.026 62.9435C163.838 62.5902 163.685 62.2486 163.59 61.9424C163.496 61.6244 163.449 61.2474 163.449 60.8116C164.05 60.5996 164.651 60.4583 165.251 60.3523C165.852 60.2581 166.417 60.2109 166.936 60.2109C168.361 60.2109 169.468 60.5525 170.269 61.2357C171.07 61.9188 171.47 63.0142 171.47 64.5219V70.682C170.987 70.8351 170.41 70.9765 169.727 71.1178C169.044 71.2592 168.267 71.318 167.407 71.318C166.712 71.318 166.076 71.2592 165.487 71.1296C164.91 71.0118 164.403 70.7998 163.991 70.5171C163.579 70.2344 163.249 69.8575 163.025 69.4099C162.801 68.9624 162.695 68.4088 162.695 67.7492C162.695 67.0896 162.837 66.536 163.108 66.0884C163.39 65.6408 163.755 65.2875 164.203 65.0283C164.651 64.7574 165.145 64.569 165.687 64.4512C166.241 64.3334 166.782 64.2745 167.324 64.2745C167.725 64.2745 168.161 64.2981 168.643 64.3334V64.0861H168.632ZM168.632 66.1944C168.467 66.1709 168.29 66.1473 168.09 66.1237C167.901 66.1002 167.725 66.0884 167.583 66.0884C166.912 66.0884 166.382 66.2062 165.993 66.4535C165.605 66.7009 165.404 67.0778 165.404 67.6078C165.404 67.9612 165.475 68.2439 165.64 68.4323C165.781 68.6208 165.958 68.7621 166.182 68.8446C166.394 68.9388 166.618 68.9859 166.853 69.0095C167.1 69.033 167.301 69.0448 167.477 69.0448C167.689 69.0448 167.89 69.0212 168.09 68.9859C168.302 68.9506 168.479 68.927 168.632 68.8917V66.1944Z" fill="#E4EDF5"/>
</svg>
