<svg width="20" height="20" viewBox="0 0 20 20" fill="none" xmlns="http://www.w3.org/2000/svg">
<path fill-rule="evenodd" clip-rule="evenodd" d="M2.41019e-07 1.6283C2.41019e-07 1.19645 0.171552 0.782284 0.476917 0.476919C0.782282 0.171554 1.19645 2.17075e-06 1.6283 2.17075e-06H17.8599C18.0739 -0.000347365 18.2859 0.0415183 18.4837 0.123202C18.6815 0.204886 18.8612 0.324784 19.0127 0.476032C19.1641 0.627279 19.2842 0.806907 19.3661 1.00463C19.448 1.20235 19.4901 1.41429 19.4899 1.6283V17.8599C19.4902 18.0739 19.4482 18.2859 19.3664 18.4837C19.2846 18.6816 19.1647 18.8613 19.0133 19.0127C18.862 19.1641 18.6823 19.2842 18.4846 19.3661C18.2868 19.448 18.0748 19.4901 17.8608 19.4899H1.6283C1.41439 19.4899 1.20258 19.4478 1.00497 19.3659C0.807358 19.284 0.627817 19.164 0.476604 19.0127C0.325391 18.8614 0.20547 18.6818 0.123693 18.4842C0.0419151 18.2865 -0.000116138 18.0747 2.41019e-07 17.8608V1.6283ZM7.71447 7.43098H10.3536V8.7563C10.7345 7.99442 11.709 7.30873 13.1734 7.30873C15.9809 7.30873 16.6462 8.82629 16.6462 11.6107V16.7684H13.8051V12.245C13.8051 10.6592 13.4241 9.76446 12.4567 9.76446C11.1146 9.76446 10.5565 10.7292 10.5565 12.245V16.7684H7.71447V7.43098ZM2.84199 16.6471H5.68398V7.30873H2.84199V16.6462V16.6471ZM6.09061 4.26298C6.09597 4.50632 6.05267 4.74827 5.96325 4.97465C5.87383 5.20102 5.7401 5.40725 5.5699 5.58124C5.3997 5.75523 5.19646 5.89347 4.97211 5.98785C4.74776 6.08223 4.50682 6.13084 4.26342 6.13084C4.02003 6.13084 3.77909 6.08223 3.55474 5.98785C3.33039 5.89347 3.12715 5.75523 2.95695 5.58124C2.78675 5.40725 2.65302 5.20102 2.5636 4.97465C2.47418 4.74827 2.43088 4.50632 2.43624 4.26298C2.44676 3.78535 2.64389 3.33083 2.9854 2.99675C3.32692 2.66267 3.78568 2.47559 4.26342 2.47559C4.74117 2.47559 5.19993 2.66267 5.54145 2.99675C5.88296 3.33083 6.08009 3.78535 6.09061 4.26298Z" fill="#3822E4"/>
</svg>
