<svg width="229" height="59" viewBox="0 0 229 59" fill="none" xmlns="http://www.w3.org/2000/svg">
<path d="M222.983 0H5.92571C1.90989 0 0.469727 1.42116 0.469727 5.35242V53.2935C0.469727 57.1325 1.95606 58.6182 5.79648 58.6182H223.02C227.018 58.6182 228.476 57.1878 228.476 53.2473C228.495 37.3193 228.476 21.4005 228.476 5.47239C228.486 1.39347 227.082 0 222.983 0ZM223.288 51.4294C223.288 52.9151 222.993 53.3858 221.386 53.3673C150.08 53.3212 78.7737 53.3212 7.45819 53.3581C6.15651 53.3581 5.67647 53.1274 5.67647 51.6693C5.75032 36.7471 5.75032 21.825 5.67647 6.88432C5.67647 5.39856 6.1842 5.22322 7.47665 5.22322C43.1575 5.25091 78.8383 5.24168 114.528 5.24168C150.043 5.24168 185.558 5.26937 221.054 5.19554C222.965 5.19554 223.307 5.75847 223.297 7.52107C223.214 22.1664 223.233 36.7933 223.288 51.4294Z" fill="white"/>
<path d="M48.8996 17.2938C48.8811 25.4701 48.8719 33.6372 48.8996 41.8134C48.918 42.7178 48.6596 43.05 47.7271 43.0039C46.01 42.9485 44.3114 42.9208 42.6127 43.0131C41.4495 43.087 41.108 42.7271 41.1264 41.5551C41.2003 36.9224 41.1541 32.2714 41.1541 27.6203V26.2361C41.0433 26.2545 40.9233 26.2545 40.8126 26.2545C39.437 31.2747 38.0153 36.2857 36.7136 41.3151C36.3905 42.6163 35.8366 43.0593 34.4611 43.0316C30.196 42.9301 30.196 42.9854 29.0605 38.8235C27.8881 34.5415 26.7248 30.2596 25.2755 25.9684C25.2478 26.3837 25.2016 26.7898 25.2016 27.205C25.2016 32.0222 25.1739 36.8394 25.2478 41.6566C25.2662 42.764 24.9339 43.0777 23.863 43.0131C22.1643 42.9116 20.4473 42.9393 18.7486 43.0039C17.8716 43.0316 17.5023 42.8378 17.5115 41.8596C17.5392 33.6833 17.5392 25.5163 17.5115 17.34C17.5115 16.5279 17.7054 16.2049 18.5917 16.2233C21.7674 16.2695 24.9431 16.2972 28.1189 16.2049C29.2636 16.1587 29.2913 16.8878 29.4667 17.6076C30.5468 22.0556 31.6085 26.5037 32.6886 30.961C32.7994 31.4593 32.9563 31.9392 33.224 32.9174C34.2765 28.6354 35.2089 24.8426 36.169 21.0405C36.5659 19.4717 36.4275 17.3123 37.5722 16.491C38.6338 15.725 40.6187 16.251 42.2065 16.2326C44.0806 16.2141 45.9639 16.2787 47.8472 16.2049C48.6965 16.168 48.9088 16.4725 48.8996 17.2938Z" fill="white"/>
<path d="M198.805 15.2082C190.358 15.0513 184.828 20.5606 184.671 29.2814C184.505 38.0391 189.703 43.696 198.039 43.8344C206.302 43.9636 211.914 38.2698 212.09 29.5767C212.228 21.2435 206.782 15.3374 198.805 15.2082ZM202.72 34.4954C201.612 36.3226 200.024 37.2177 197.873 37.0147C195.731 36.8302 194.217 35.7689 193.479 33.7571C192.454 31.0255 192.445 28.2294 193.497 25.4978C194.374 23.1723 196.165 21.9541 198.445 22.0003C200.799 22.0279 202.553 23.403 203.394 25.8023C203.837 27.0389 203.901 28.3124 203.901 29.6136C203.846 31.3209 203.634 32.9912 202.72 34.4954Z" fill="white"/>
<path d="M177.618 33.2772C177.221 32.6128 177.12 32.3175 177.905 31.8007C181.579 29.4013 182.798 26.0053 181.607 21.9264C180.49 18.1244 178.034 16.3433 173.501 16.2695C169.033 16.1864 164.574 16.251 160.106 16.1956C159.127 16.1772 158.804 16.4263 158.813 17.4599C158.859 25.507 158.841 33.5541 158.813 41.6104C158.795 42.644 159.007 43.0685 160.161 43.0131C161.98 42.9116 163.808 42.9116 165.617 43.0131C166.79 43.0869 166.974 42.5886 166.937 41.5827C166.863 39.4694 166.863 37.3469 166.956 35.2336C166.983 34.6799 166.365 33.6925 167.565 33.5633C168.488 33.4526 169.31 33.4341 169.845 34.5969C170.99 37.0885 172.366 39.4971 173.63 41.9334C173.944 42.524 174.193 43.0223 175.034 43.0131C177.674 42.9577 180.305 42.9854 183.268 42.9854C181.265 39.5525 179.465 36.3964 177.618 33.2772ZM174.083 25.627C173.852 26.8451 173.132 27.6295 171.913 27.851C171.332 27.9617 170.741 27.9894 170.159 28.0171C166.928 28.1278 166.928 28.1186 166.928 24.8426C166.928 21.7234 166.928 21.7234 170.482 21.8341C173.215 21.9264 174.517 23.283 174.083 25.627Z" fill="white"/>
<path d="M128.718 40.7614C125.071 43.6776 120.917 44.0744 116.541 43.5576C112.922 43.1147 109.848 41.5182 107.337 38.8512C106.626 38.1037 106.598 37.6423 107.549 37.1624C108.131 36.8763 108.666 36.5072 109.183 36.1288C111.15 34.6984 112.784 33.2404 115.211 35.9904C116.818 37.8084 119.624 37.6792 122.061 36.9501C122.911 36.6918 123.723 36.2027 123.677 35.1229C123.631 34.1447 122.902 33.7202 122.043 33.5172C119.874 33.0189 117.676 32.6128 115.525 32.0684C110.476 30.7764 108.186 28.2848 108.149 24.1874C108.131 19.9239 110.697 16.8601 115.618 15.7158C120.806 14.5069 125.643 15.3467 129.881 18.7888C130.785 19.5271 131.016 20.0808 129.908 20.9021C128.505 21.9541 127.241 23.1815 125.865 24.372C124.48 22.6832 122.735 21.6681 120.603 21.3635C120.095 21.2897 119.541 21.262 119.043 21.3635C117.824 21.6035 116.347 21.8434 116.319 23.3753C116.273 24.8795 117.75 25.0179 118.886 25.2486C121.314 25.7285 123.723 26.1807 126.087 26.9097C133.407 29.1338 132.54 37.6792 128.718 40.7614Z" fill="white"/>
<path d="M70.9544 17.0354C70.6682 16.2418 70.142 16.1956 69.4496 16.2141C67.2247 16.2418 64.9814 16.3156 62.7566 16.1864C61.6211 16.131 61.2425 16.6294 60.901 17.5614C59.7562 20.8744 58.5192 24.1781 57.3098 27.4819C55.4542 32.5851 53.5986 37.6976 51.6692 42.9854C53.9494 42.9854 56.0635 42.8286 58.1314 43.0316C59.987 43.2161 60.8271 42.5332 61.021 40.7891C61.1595 39.5433 61.7965 39.0357 63.1351 39.1557C64.7045 39.2941 66.3108 39.3403 67.8802 39.1557C69.8097 38.925 70.7974 39.5802 71.0559 41.5181C71.139 42.2287 71.2221 43.0316 72.3576 43.0039C74.8779 42.9301 77.4074 42.9762 79.9 42.9762C79.9277 42.7732 79.9831 42.6532 79.9554 42.5517C76.9643 34.0432 73.9455 25.5532 70.9544 17.0354ZM67.7971 33.2496H63.2458C64.169 30.1212 64.9999 27.2696 65.9784 23.9567C66.9016 27.1127 67.6956 29.8535 68.4895 32.6036C68.6741 33.2311 68.2218 33.2496 67.7971 33.2496Z" fill="white"/>
<path d="M99.6837 42.9855C94.6893 42.9855 89.6857 42.9117 84.7005 43.0317C83.1865 43.0593 82.8726 42.5795 82.9188 41.1583C83.0203 37.2917 82.9465 33.4065 82.9465 29.5399C82.9465 25.544 82.9926 21.5482 82.9188 17.5523C82.9003 16.4357 83.2419 16.1957 84.3036 16.205C90.1196 16.2603 95.9448 16.2603 101.752 16.205C102.887 16.205 103.256 16.3342 102.869 17.6077C102.583 18.5859 102.583 19.7763 102.869 20.7545C103.284 22.1111 102.712 22.1295 101.696 22.1111C98.6313 22.0649 95.5848 22.1295 92.5198 22.0649C91.4397 22.0465 90.9781 22.2587 91.0058 23.4861C91.0612 26.0793 90.9874 26.0793 93.6184 26.0793C96.2587 26.0793 98.9082 26.1254 101.539 26.0516C102.647 26.0239 103.072 26.2454 103.072 27.482C103.053 31.847 103.118 31.8469 98.7236 31.8469C96.5541 31.8469 94.3754 31.8931 92.206 31.8285C91.3012 31.8008 91.0151 32.0592 90.9874 32.9913C90.8304 37.1255 90.8027 37.1255 94.874 37.1255C97.5235 37.1255 100.164 37.1717 102.813 37.0979C103.838 37.0702 104.217 37.2824 104.235 38.4267C104.244 42.9855 104.29 42.9855 99.6837 42.9855Z" fill="white"/>
<path d="M155.222 22.4894C154.4 23.6337 152.065 22.8401 150.385 22.8124C149.055 22.7847 148.723 23.1815 148.741 24.4827C148.824 30.1212 148.723 35.7597 148.815 41.389C148.843 42.7455 148.446 43.1054 147.144 43.0039C145.575 42.8932 143.969 42.8932 142.399 43.0039C141.097 43.1054 140.71 42.7363 140.728 41.3705C140.811 35.7413 140.71 30.1028 140.802 24.4643C140.83 23.1169 140.451 22.7109 139.131 22.8308C137.857 22.9416 136.555 22.8032 135.263 22.877C134.367 22.9231 133.989 22.674 134.044 21.7142C134.146 19.9608 133.49 17.7645 134.34 16.5833C135.152 15.439 137.497 16.2972 139.159 16.2326C141.042 16.1588 142.916 16.2141 144.799 16.2141C147.975 16.2141 151.132 16.2418 154.308 16.1865C155.213 16.168 155.582 16.3895 155.527 17.3492C155.425 19.1026 156.062 21.3174 155.222 22.4894Z" fill="white"/>
</svg>
