<svg width="229" height="59" viewBox="0 0 229 59" fill="none" xmlns="http://www.w3.org/2000/svg">
<path d="M222.983 0H5.92571C1.90989 0 0.469727 1.42116 0.469727 5.35242V53.2935C0.469727 57.1325 1.95606 58.6182 5.79648 58.6182H223.02C227.018 58.6182 228.476 57.1878 228.476 53.2473C228.495 37.3193 228.476 21.4005 228.476 5.47239C228.486 1.39347 227.082 0 222.983 0ZM223.288 51.4294C223.288 52.9151 222.993 53.3858 221.386 53.3673C150.08 53.3212 78.7737 53.3212 7.45819 53.3581C6.15651 53.3581 5.67647 53.1274 5.67647 51.6693C5.75032 36.7471 5.75032 21.825 5.67647 6.88432C5.67647 5.39856 6.1842 5.22322 7.47665 5.22322C43.1575 5.25091 78.8383 5.24168 114.528 5.24168C150.043 5.24168 185.558 5.26937 221.054 5.19554C222.965 5.19554 223.307 5.75847 223.297 7.52107C223.214 22.1664 223.233 36.7933 223.288 51.4294Z" fill="#3822E4"/>
<path d="M48.8999 17.2936C48.8815 25.4699 48.8722 33.6369 48.8999 41.8132C48.9184 42.7176 48.6599 43.0498 47.7275 43.0037C46.0104 42.9483 44.3117 42.9206 42.6131 43.0129C41.4499 43.0867 41.1083 42.7268 41.1268 41.5548C41.2007 36.9222 41.1545 32.2711 41.1545 27.6201V26.2358C41.0437 26.2543 40.9237 26.2543 40.8129 26.2543C39.4374 31.2745 38.0157 36.2854 36.714 41.3149C36.3909 42.6161 35.837 43.059 34.4615 43.0313C30.1964 42.9298 30.1964 42.9852 29.0609 38.8232C27.8884 34.5413 26.7252 30.2594 25.2758 25.9682C25.2481 26.3835 25.202 26.7895 25.202 27.2048C25.202 32.022 25.1743 36.8391 25.2481 41.6563C25.2666 42.7637 24.9342 43.0775 23.8634 43.0129C22.1647 42.9114 20.4476 42.9391 18.749 43.0037C17.872 43.0313 17.5027 42.8376 17.5119 41.8594C17.5396 33.6831 17.5396 25.516 17.5119 17.3397C17.5119 16.5276 17.7058 16.2046 18.592 16.2231C21.7678 16.2692 24.9435 16.2969 28.1192 16.2046C29.264 16.1585 29.2917 16.8875 29.4671 17.6073C30.5472 22.0554 31.6088 26.5034 32.6889 30.9607C32.7997 31.459 32.9567 31.9389 33.2244 32.9171C34.2768 28.6352 35.2092 24.8423 36.1693 21.0403C36.5663 19.4715 36.4278 17.312 37.5726 16.4907C38.6342 15.7248 40.619 16.2508 42.2069 16.2323C44.081 16.2139 45.9642 16.2785 47.8475 16.2046C48.6969 16.1677 48.9092 16.4723 48.8999 17.2936Z" fill="#3822E4"/>
<path d="M198.806 15.2083C190.359 15.0515 184.829 20.5608 184.672 29.2815C184.506 38.0392 189.703 43.6961 198.039 43.8346C206.302 43.9638 211.915 38.2699 212.09 29.5768C212.229 21.2437 206.782 15.3375 198.806 15.2083ZM202.72 34.4955C201.612 36.3227 200.024 37.2179 197.873 37.0148C195.732 36.8303 194.217 35.769 193.479 33.7572C192.454 31.0257 192.445 28.2295 193.497 25.4979C194.374 23.1724 196.165 21.9542 198.446 22.0004C200.8 22.0281 202.554 23.4031 203.394 25.8024C203.837 27.039 203.902 28.3125 203.902 29.6137C203.846 31.321 203.634 32.9913 202.72 34.4955Z" fill="#3822E4"/>
<path d="M177.619 33.2769C177.222 32.6124 177.12 32.3171 177.905 31.8003C181.579 29.401 182.798 26.005 181.607 21.9261C180.49 18.124 178.034 16.3429 173.501 16.2691C169.033 16.186 164.574 16.2506 160.106 16.1953C159.127 16.1768 158.804 16.426 158.814 17.4595C158.86 25.5066 158.841 33.5537 158.814 41.61C158.795 42.6436 159.007 43.0681 160.161 43.0127C161.98 42.9112 163.808 42.9112 165.617 43.0127C166.79 43.0866 166.974 42.5882 166.938 41.5824C166.864 39.4691 166.864 37.3466 166.956 35.2333C166.984 34.6796 166.365 33.6921 167.565 33.563C168.488 33.4522 169.31 33.4338 169.846 34.5965C170.99 37.0882 172.366 39.4968 173.631 41.933C173.944 42.5236 174.194 43.022 175.034 43.0127C177.674 42.9574 180.305 42.9851 183.269 42.9851C181.265 39.5521 179.465 36.396 177.619 33.2769ZM174.083 25.6266C173.852 26.8447 173.132 27.6291 171.913 27.8506C171.332 27.9614 170.741 27.9891 170.159 28.0167C166.928 28.1275 166.928 28.1182 166.928 24.8422C166.928 21.723 166.928 21.723 170.483 21.8338C173.215 21.9261 174.517 23.2826 174.083 25.6266Z" fill="#3822E4"/>
<path d="M128.718 40.7616C125.072 43.6777 120.917 44.0745 116.541 43.5577C112.923 43.1148 109.848 41.5183 107.337 38.8513C106.626 38.1038 106.599 37.6424 107.55 37.1625C108.131 36.8764 108.667 36.5073 109.184 36.1289C111.15 34.6986 112.784 33.2405 115.212 35.9905C116.818 37.8085 119.625 37.6793 122.062 36.9503C122.911 36.6919 123.724 36.2028 123.678 35.1231C123.631 34.1449 122.902 33.7204 122.043 33.5173C119.874 33.019 117.677 32.613 115.526 32.0685C110.476 30.7765 108.187 28.2849 108.15 24.1875C108.131 19.924 110.698 16.8602 115.618 15.7159C120.806 14.507 125.644 15.3468 129.881 18.789C130.786 19.5272 131.017 20.0809 129.909 20.9022C128.506 21.9543 127.241 23.1816 125.865 24.3721C124.481 22.6833 122.736 21.6682 120.603 21.3637C120.096 21.2898 119.542 21.2621 119.043 21.3637C117.825 21.6036 116.347 21.8435 116.32 23.3754C116.274 24.8796 117.751 25.0181 118.886 25.2488C121.314 25.7286 123.724 26.1808 126.087 26.9099C133.408 29.1339 132.54 37.6793 128.718 40.7616Z" fill="#3822E4"/>
<path d="M70.9541 17.0358C70.668 16.2422 70.1417 16.196 69.4494 16.2145C67.2245 16.2422 64.9812 16.316 62.7563 16.1868C61.6208 16.1314 61.2423 16.6297 60.9007 17.5618C59.756 20.8748 58.5189 24.1785 57.3096 27.4822C55.454 32.5855 53.5984 37.698 51.6689 42.9858C53.9492 42.9858 56.0633 42.8289 58.1312 43.0319C59.9868 43.2165 60.8269 42.5336 61.0207 40.7895C61.1592 39.5436 61.7962 39.0361 63.1348 39.1561C64.7042 39.2945 66.3106 39.3406 67.88 39.1561C69.8094 38.9253 70.7972 39.5806 71.0557 41.5185C71.1388 42.2291 71.2219 43.0319 72.3574 43.0043C74.8776 42.9304 77.4072 42.9766 79.8997 42.9766C79.9274 42.7735 79.9828 42.6536 79.9551 42.5521C76.964 34.0436 73.9452 25.5535 70.9541 17.0358ZM67.7969 33.2499H63.2456C64.1688 30.1215 64.9996 27.27 65.9782 23.957C66.9014 27.1131 67.6953 29.8539 68.4892 32.6039C68.6739 33.2315 68.2215 33.2499 67.7969 33.2499Z" fill="#3822E4"/>
<path d="M99.6832 42.9859C94.6888 42.9859 89.6852 42.9121 84.7 43.032C83.186 43.0597 82.8721 42.5798 82.9183 41.1587C83.0199 37.292 82.946 33.4069 82.946 29.5402C82.946 25.5444 82.9922 21.5485 82.9183 17.5527C82.8998 16.436 83.2414 16.1961 84.3031 16.2053C90.1191 16.2607 95.9443 16.2607 101.751 16.2053C102.887 16.2053 103.256 16.3345 102.868 17.608C102.582 18.5862 102.582 19.7767 102.868 20.7549C103.284 22.1114 102.711 22.1299 101.696 22.1114C98.6308 22.0653 95.5843 22.1299 92.5194 22.0653C91.4392 22.0469 90.9777 22.2591 91.0054 23.4865C91.0607 26.0796 90.9869 26.0796 93.6179 26.0796C96.2582 26.0796 98.9078 26.1258 101.539 26.0519C102.647 26.0243 103.071 26.2457 103.071 27.4823C103.053 31.8473 103.117 31.8473 98.7231 31.8473C96.5536 31.8473 94.3749 31.8935 92.2055 31.8289C91.3008 31.8012 91.0146 32.0596 90.9869 32.9916C90.83 37.1259 90.8023 37.1259 94.8735 37.1259C97.523 37.1259 100.163 37.1721 102.813 37.0982C103.838 37.0705 104.216 37.2828 104.234 38.4271C104.244 42.9859 104.29 42.9859 99.6832 42.9859Z" fill="#3822E4"/>
<path d="M155.222 22.4898C154.401 23.6341 152.065 22.8404 150.385 22.8128C149.056 22.7851 148.723 23.1819 148.742 24.4831C148.825 30.1216 148.723 35.7601 148.816 41.3893C148.843 42.7459 148.446 43.1058 147.145 43.0043C145.575 42.8936 143.969 42.8936 142.399 43.0043C141.098 43.1058 140.71 42.7367 140.729 41.3709C140.812 35.7416 140.71 30.1031 140.802 24.4646C140.83 23.1173 140.452 22.7112 139.131 22.8312C137.857 22.942 136.556 22.8035 135.263 22.8774C134.368 22.9235 133.989 22.6743 134.045 21.7146C134.146 19.9612 133.491 17.7649 134.34 16.5836C135.153 15.4393 137.497 16.2976 139.159 16.233C141.042 16.1591 142.916 16.2145 144.8 16.2145C147.975 16.2145 151.133 16.2422 154.308 16.1868C155.213 16.1684 155.582 16.3899 155.527 17.3496C155.426 19.103 156.063 21.3178 155.222 22.4898Z" fill="#3822E4"/>
</svg>
