<svg width="229" height="59" viewBox="0 0 229 59" fill="none" xmlns="http://www.w3.org/2000/svg">
<path d="M222.983 0H5.92571C1.90989 0 0.469727 1.42116 0.469727 5.35242V53.2935C0.469727 57.1325 1.95606 58.6182 5.79648 58.6182H223.02C227.018 58.6182 228.476 57.1878 228.476 53.2473C228.495 37.3193 228.476 21.4005 228.476 5.47239C228.486 1.39347 227.082 0 222.983 0ZM223.288 51.4294C223.288 52.9151 222.993 53.3858 221.386 53.3673C150.08 53.3212 78.7737 53.3212 7.45819 53.3581C6.15651 53.3581 5.67647 53.1274 5.67647 51.6693C5.75032 36.7471 5.75032 21.825 5.67647 6.88432C5.67647 5.39856 6.1842 5.22322 7.47665 5.22322C43.1575 5.25091 78.8383 5.24168 114.528 5.24168C150.043 5.24168 185.558 5.26937 221.054 5.19554C222.965 5.19554 223.307 5.75847 223.297 7.52107C223.214 22.1664 223.233 36.7933 223.288 51.4294Z" fill="#24FE7C"/>
<path d="M48.8999 17.2938C48.8815 25.4701 48.8722 33.6372 48.8999 41.8134C48.9184 42.7178 48.6599 43.05 47.7275 43.0039C46.0104 42.9485 44.3117 42.9208 42.6131 43.0131C41.4499 43.087 41.1083 42.7271 41.1268 41.5551C41.2007 36.9224 41.1545 32.2714 41.1545 27.6203V26.2361C41.0437 26.2545 40.9237 26.2545 40.8129 26.2545C39.4374 31.2747 38.0157 36.2857 36.714 41.3151C36.3909 42.6163 35.837 43.0593 34.4615 43.0316C30.1964 42.9301 30.1964 42.9854 29.0609 38.8235C27.8884 34.5415 26.7252 30.2596 25.2758 25.9684C25.2481 26.3837 25.202 26.7898 25.202 27.205C25.202 32.0222 25.1743 36.8394 25.2481 41.6566C25.2666 42.764 24.9342 43.0777 23.8634 43.0131C22.1647 42.9116 20.4476 42.9393 18.749 43.0039C17.872 43.0316 17.5027 42.8378 17.5119 41.8596C17.5396 33.6833 17.5396 25.5163 17.5119 17.34C17.5119 16.5279 17.7058 16.2049 18.592 16.2233C21.7678 16.2695 24.9435 16.2972 28.1192 16.2049C29.264 16.1587 29.2917 16.8878 29.4671 17.6076C30.5472 22.0556 31.6088 26.5037 32.6889 30.961C32.7997 31.4593 32.9567 31.9392 33.2244 32.9174C34.2768 28.6354 35.2092 24.8426 36.1693 21.0405C36.5663 19.4717 36.4278 17.3123 37.5726 16.491C38.6342 15.725 40.619 16.251 42.2069 16.2326C44.081 16.2141 45.9642 16.2787 47.8475 16.2049C48.6969 16.168 48.9092 16.4725 48.8999 17.2938Z" fill="#24FE7C"/>
<path d="M198.806 15.2083C190.359 15.0515 184.829 20.5608 184.672 29.2815C184.506 38.0392 189.703 43.6961 198.039 43.8346C206.302 43.9638 211.915 38.2699 212.09 29.5768C212.229 21.2437 206.782 15.3375 198.806 15.2083ZM202.72 34.4955C201.612 36.3227 200.024 37.2179 197.873 37.0148C195.732 36.8303 194.217 35.769 193.479 33.7572C192.454 31.0257 192.445 28.2295 193.497 25.4979C194.374 23.1724 196.165 21.9542 198.446 22.0004C200.8 22.0281 202.554 23.4031 203.394 25.8024C203.837 27.039 203.902 28.3125 203.902 29.6137C203.846 31.321 203.634 32.9913 202.72 34.4955Z" fill="#24FE7C"/>
<path d="M177.619 33.2774C177.222 32.6129 177.12 32.3176 177.905 31.8008C181.579 29.4015 182.798 26.0055 181.607 21.9265C180.49 18.1245 178.034 16.3434 173.501 16.2696C169.033 16.1865 164.574 16.2511 160.106 16.1958C159.127 16.1773 158.804 16.4265 158.814 17.46C158.86 25.5071 158.841 33.5542 158.814 41.6105C158.795 42.6441 159.007 43.0686 160.161 43.0132C161.98 42.9117 163.808 42.9117 165.617 43.0132C166.79 43.0871 166.974 42.5887 166.938 41.5828C166.864 39.4696 166.864 37.347 166.956 35.2338C166.984 34.6801 166.365 33.6926 167.565 33.5634C168.488 33.4527 169.31 33.4342 169.846 34.597C170.99 37.0887 172.366 39.4972 173.631 41.9335C173.944 42.5241 174.194 43.0225 175.034 43.0132C177.674 42.9579 180.305 42.9855 183.269 42.9855C181.265 39.5526 179.465 36.3965 177.619 33.2774ZM174.083 25.6271C173.852 26.8452 173.132 27.6296 171.913 27.8511C171.332 27.9619 170.741 27.9895 170.159 28.0172C166.928 28.128 166.928 28.1187 166.928 24.8427C166.928 21.7235 166.928 21.7235 170.483 21.8343C173.215 21.9265 174.517 23.2831 174.083 25.6271Z" fill="#24FE7C"/>
<path d="M128.718 40.7616C125.072 43.6777 120.917 44.0745 116.541 43.5577C112.923 43.1148 109.848 41.5183 107.337 38.8513C106.626 38.1038 106.599 37.6424 107.55 37.1625C108.131 36.8764 108.667 36.5073 109.184 36.1289C111.15 34.6986 112.784 33.2405 115.212 35.9905C116.818 37.8085 119.625 37.6793 122.062 36.9503C122.911 36.6919 123.724 36.2028 123.678 35.1231C123.631 34.1449 122.902 33.7204 122.043 33.5173C119.874 33.019 117.677 32.613 115.526 32.0685C110.476 30.7765 108.187 28.2849 108.15 24.1875C108.131 19.924 110.698 16.8602 115.618 15.7159C120.806 14.507 125.644 15.3468 129.881 18.789C130.786 19.5272 131.017 20.0809 129.909 20.9022C128.506 21.9543 127.241 23.1816 125.865 24.3721C124.481 22.6833 122.736 21.6682 120.603 21.3637C120.096 21.2898 119.542 21.2621 119.043 21.3637C117.825 21.6036 116.347 21.8435 116.32 23.3754C116.274 24.8796 117.751 25.0181 118.886 25.2488C121.314 25.7286 123.724 26.1808 126.087 26.9099C133.408 29.1339 132.54 37.6793 128.718 40.7616Z" fill="#24FE7C"/>
<path d="M70.9541 17.0355C70.668 16.2419 70.1417 16.1958 69.4494 16.2142C67.2245 16.2419 64.9812 16.3157 62.7563 16.1865C61.6208 16.1312 61.2423 16.6295 60.9007 17.5616C59.756 20.8745 58.5189 24.1783 57.3096 27.482C55.454 32.5852 53.5984 37.6977 51.6689 42.9856C53.9492 42.9856 56.0633 42.8287 58.1312 43.0317C59.9868 43.2163 60.8269 42.5334 61.0207 40.7892C61.1592 39.5434 61.7962 39.0358 63.1348 39.1558C64.7042 39.2942 66.3106 39.3404 67.88 39.1558C69.8094 38.9251 70.7972 39.5803 71.0557 41.5183C71.1388 42.2288 71.2219 43.0317 72.3574 43.004C74.8776 42.9302 77.4072 42.9763 79.8997 42.9763C79.9274 42.7733 79.9828 42.6533 79.9551 42.5518C76.964 34.0433 73.9452 25.5533 70.9541 17.0355ZM67.7969 33.2497H63.2456C64.1688 30.1213 64.9996 27.2697 65.9782 23.9568C66.9014 27.1129 67.6953 29.8537 68.4892 32.6037C68.6739 33.2312 68.2215 33.2497 67.7969 33.2497Z" fill="#24FE7C"/>
<path d="M99.6832 42.9854C94.6888 42.9854 89.6852 42.9116 84.7 43.0315C83.186 43.0592 82.8721 42.5794 82.9183 41.1582C83.0199 37.2915 82.946 33.4064 82.946 29.5398C82.946 25.5439 82.9922 21.548 82.9183 17.5522C82.8998 16.4355 83.2414 16.1956 84.3031 16.2048C90.1191 16.2602 95.9443 16.2602 101.751 16.2048C102.887 16.2048 103.256 16.334 102.868 17.6075C102.582 18.5857 102.582 19.7762 102.868 20.7544C103.284 22.111 102.711 22.1294 101.696 22.111C98.6308 22.0648 95.5843 22.1294 92.5194 22.0648C91.4392 22.0464 90.9777 22.2586 91.0054 23.486C91.0607 26.0791 90.9869 26.0791 93.6179 26.0791C96.2582 26.0791 98.9078 26.1253 101.539 26.0515C102.647 26.0238 103.071 26.2452 103.071 27.4818C103.053 31.8468 103.117 31.8468 98.7231 31.8468C96.5536 31.8468 94.3749 31.893 92.2055 31.8284C91.3008 31.8007 91.0146 32.0591 90.9869 32.9911C90.83 37.1254 90.8023 37.1254 94.8735 37.1254C97.523 37.1254 100.163 37.1716 102.813 37.0977C103.838 37.0701 104.216 37.2823 104.234 38.4266C104.244 42.9854 104.29 42.9854 99.6832 42.9854Z" fill="#24FE7C"/>
<path d="M155.222 22.4893C154.401 23.6336 152.065 22.84 150.385 22.8123C149.056 22.7846 148.723 23.1814 148.742 24.4826C148.825 30.1211 148.723 35.7596 148.816 41.3889C148.843 42.7454 148.446 43.1053 147.145 43.0038C145.575 42.8931 143.969 42.8931 142.399 43.0038C141.098 43.1053 140.71 42.7362 140.729 41.3704C140.812 35.7411 140.71 30.1026 140.802 24.4641C140.83 23.1168 140.452 22.7108 139.131 22.8307C137.857 22.9415 136.556 22.803 135.263 22.8769C134.368 22.923 133.989 22.6738 134.045 21.7141C134.146 19.9607 133.491 17.7644 134.34 16.5832C135.153 15.4388 137.497 16.2971 139.159 16.2325C141.042 16.1587 142.916 16.214 144.8 16.214C147.975 16.214 151.133 16.2417 154.308 16.1863C155.213 16.1679 155.582 16.3894 155.527 17.3491C155.426 19.1025 156.063 21.3173 155.222 22.4893Z" fill="#24FE7C"/>
</svg>
