<svg width="596" height="123" viewBox="0 0 596 123" fill="none" xmlns="http://www.w3.org/2000/svg">
<path d="M92.0151 62.9083H91.0762L62.7518 2.97327C61.9693 1.09541 60.0915 0 58.0571 0H5.16409C2.34731 0 0 2.34733 0 5.16412V117.679C0 120.496 2.34731 122.843 5.16409 122.843H43.1907C46.0075 122.843 48.3549 120.496 48.3549 117.679V59.4656H49.2938L79.6526 120.027C80.5915 121.748 82.3128 122.843 84.1907 122.843H135.206C138.023 122.843 140.37 120.496 140.37 117.679V5.16412C140.37 2.34733 138.023 0 135.206 0H97.1792C94.3624 0 92.0151 2.34733 92.0151 5.16412V62.9083Z" fill="#3822E4"/>
<path d="M208.598 69.0121H276.514C278.235 69.0121 279.487 67.6037 279.487 66.0388V56.9625C279.487 55.2411 278.079 53.9892 276.514 53.9892H208.598V36.619H279.644C282.461 36.619 284.808 34.2717 284.808 31.4549V5.32132C284.808 2.50453 282.461 0.157227 279.644 0.157227H161.339C158.522 0.157227 156.175 2.50453 156.175 5.32132V117.993C156.175 120.81 158.522 123.001 161.182 123.001H280.27C283.087 123.001 285.434 120.653 285.434 117.836V93.2678C285.434 90.451 283.087 88.1036 280.27 88.1036H208.442V69.0121H208.598Z" fill="#3822E4"/>
<path d="M441.924 48.6679C441.924 5.94657 417.512 0 385.119 0H306.718C303.901 0 301.554 2.34733 301.554 5.16412V117.679C301.554 120.496 303.901 122.843 306.718 122.843H348.814C351.63 122.843 353.978 120.496 353.978 117.679V95.9273H362.898C365.714 109.385 376.512 119.87 390.283 122.217C391.848 122.53 393.569 122.843 395.447 122.843H436.916C439.733 122.843 442.081 120.496 442.081 117.679V95.9273C442.081 93.1105 439.733 90.7632 436.916 90.7632H420.016C434.1 84.9731 441.924 72.9236 441.924 48.6679ZM353.821 36.1488H377.451C383.241 36.1488 388.092 40.687 388.562 46.477C389.657 59.935 385.432 64.4732 373.852 64.7861H353.821V36.1488Z" fill="#3822E4"/>
<path d="M595.75 60.7175C595.75 16.1183 574.155 0 532.373 0H463.049C460.232 0 457.884 2.34733 457.884 5.16412V117.053C457.884 120.339 460.545 122.843 463.675 122.843H532.373C574.312 122.843 595.75 106.725 595.75 62.1259C595.75 61.8129 595.75 61.6564 595.75 61.4999C595.75 61.1869 595.75 61.0304 595.75 60.7175ZM523.453 85.1296H509.369V71.3587V37.7137H523.453C539.102 37.7137 543.17 46.3205 543.327 61.3434C543.17 76.6793 539.102 85.1296 523.453 85.1296Z" fill="#3822E4"/>
</svg>
