<svg width="271" height="56" viewBox="0 0 271 56" fill="none" xmlns="http://www.w3.org/2000/svg">
<path d="M41.7357 28.5336H41.3099L28.4626 1.3486C28.1077 0.49685 27.256 0 26.3332 0H2.3423C1.06468 0 0 1.06469 0 2.34231V53.3763C0 54.654 1.06468 55.7186 2.3423 55.7186H19.5902C20.8679 55.7186 21.9326 54.654 21.9326 53.3763V26.9721H22.3584L36.1284 54.441C36.5543 55.2218 37.335 55.7186 38.1868 55.7186H61.326C62.6036 55.7186 63.6683 54.654 63.6683 53.3763V2.34231C63.6683 1.06469 62.6036 0 61.326 0H44.078C42.8004 0 41.7357 1.06469 41.7357 2.34231V28.5336Z" fill="white"/>
<path d="M94.6148 31.3019H125.42C126.2 31.3019 126.768 30.6631 126.768 29.9533V25.8365C126.768 25.0557 126.129 24.4879 125.42 24.4879H94.6148V16.6092H126.839C128.117 16.6092 129.182 15.5445 129.182 14.2669V2.41335C129.182 1.13572 128.117 0.0710449 126.839 0.0710449H73.1791C71.9014 0.0710449 70.8368 1.13572 70.8368 2.41335V53.5183C70.8368 54.796 71.9014 55.7897 73.1081 55.7897H127.123C128.401 55.7897 129.466 54.725 129.466 53.4474V42.3036C129.466 41.026 128.401 39.9613 127.123 39.9613H94.5438V31.3019H94.6148Z" fill="white"/>
<path d="M200.446 22.0745C200.446 2.69721 189.373 0 174.68 0H139.12C137.842 0 136.777 1.06469 136.777 2.34231V53.3763C136.777 54.654 137.842 55.7186 139.12 55.7186H158.213C159.491 55.7186 160.555 54.654 160.555 53.3763V43.5102H164.601C165.879 49.6144 170.776 54.37 177.023 55.4347C177.732 55.5767 178.513 55.7186 179.365 55.7186H198.174C199.452 55.7186 200.517 54.654 200.517 53.3763V43.5102C200.517 42.2326 199.452 41.1679 198.174 41.1679H190.509C196.897 38.5417 200.446 33.0763 200.446 22.0745ZM160.484 16.3962H171.202C173.828 16.3962 176.029 18.4546 176.242 21.0808C176.739 27.185 174.822 29.2434 169.57 29.3854H160.484V16.3962Z" fill="white"/>
<path d="M270.218 27.5399C270.218 7.31085 260.422 0 241.471 0H210.027C208.75 0 207.685 1.06469 207.685 2.34231V53.0924C207.685 54.583 208.892 55.7186 210.311 55.7186H241.471C260.493 55.7186 270.218 48.4078 270.218 28.1787C270.218 28.0368 270.218 27.9658 270.218 27.8948C270.218 27.7529 270.218 27.6819 270.218 27.5399ZM237.425 38.6127H231.037V32.3665V17.106H237.425C244.523 17.106 246.369 21.0098 246.44 27.8238C246.369 34.7798 244.523 38.6127 237.425 38.6127Z" fill="white"/>
</svg>
