<svg width="109" height="24" viewBox="0 0 109 24" fill="none" xmlns="http://www.w3.org/2000/svg">
<path d="M16.8353 12.4326H16.6635L11.4812 1.44684C11.3381 1.10264 10.9945 0.901855 10.6223 0.901855H0.944835C0.429469 0.901855 0 1.33211 0 1.84841V22.4718C0 22.9881 0.429469 23.4184 0.944835 23.4184H7.90228C8.41765 23.4184 8.84713 22.9881 8.84713 22.4718V11.8016H9.01891L14.5734 22.9021C14.7452 23.2176 15.0602 23.4184 15.4037 23.4184H24.7376C25.253 23.4184 25.6824 22.9881 25.6824 22.4718V1.84841C25.6824 1.33211 25.253 0.901855 24.7376 0.901855H17.7801C17.2648 0.901855 16.8353 1.33211 16.8353 1.84841V12.4326Z" fill="white"/>
<path d="M38.1658 13.5512H50.5918C50.9067 13.5512 51.1358 13.293 51.1358 13.0062V11.3425C51.1358 11.027 50.8781 10.7975 50.5918 10.7975H38.1658V7.61367H51.1644C51.6798 7.61367 52.1093 7.18342 52.1093 6.66712V1.87697C52.1093 1.36067 51.6798 0.93042 51.1644 0.93042H29.519C29.0037 0.93042 28.5742 1.36067 28.5742 1.87697V22.5291C28.5742 23.0454 29.0037 23.447 29.4904 23.447H51.279C51.7943 23.447 52.2238 23.0167 52.2238 22.5004V17.9971C52.2238 17.4808 51.7943 17.0505 51.279 17.0505H38.1371V13.5512H38.1658Z" fill="white"/>
<path d="M80.8555 9.82241C80.8555 1.99183 76.389 0.901855 70.4623 0.901855H56.1179C55.6025 0.901855 55.173 1.33211 55.173 1.84841V22.4718C55.173 22.9881 55.6025 23.4184 56.1179 23.4184H63.8198C64.3351 23.4184 64.7646 22.9881 64.7646 22.4718V18.4848H66.3966C66.912 20.9516 68.8876 22.8734 71.4071 23.3036C71.6934 23.361 72.0084 23.4184 72.3519 23.4184H79.9393C80.4547 23.4184 80.8842 22.9881 80.8842 22.4718V18.4848C80.8842 17.9685 80.4547 17.5383 79.9393 17.5383H76.8471C79.424 16.477 80.8555 14.2683 80.8555 9.82241ZM64.736 7.52773H69.0593C70.1187 7.52773 71.0063 8.35955 71.0922 9.42084C71.2926 11.8876 70.5196 12.7194 68.4008 12.7768H64.736V7.52773Z" fill="white"/>
<path d="M109 12.031C109 3.85625 105.049 0.901855 97.4043 0.901855H84.7206C84.2052 0.901855 83.7758 1.33211 83.7758 1.84841V22.3571C83.7758 22.9594 84.2625 23.4184 84.8351 23.4184H97.4043C105.078 23.4184 109 20.464 109 12.2892C109 12.2318 109 12.2031 109 12.1745C109 12.1171 109 12.0884 109 12.031ZM95.7723 16.5057H93.1955V13.9815V7.81457H95.7723C98.6355 7.81457 99.3799 9.39216 99.4085 12.1458C99.3799 14.9567 98.6355 16.5057 95.7723 16.5057Z" fill="white"/>
</svg>
