<svg width="125" height="26" viewBox="0 0 125 26" fill="none" xmlns="http://www.w3.org/2000/svg">
<path d="M19.2992 13.1739H19.0989L13.1705 0.624652C12.9943 0.248495 12.6097 0.0083978 12.1932 0.0083978H1.08152C0.480676 0.000394464 0 0.488597 0 1.08885V24.6747C0 25.2749 0.480676 25.7551 1.08152 25.7551H9.06876C9.66961 25.7551 10.1503 25.2749 10.1503 24.6747V12.4776H10.3506L16.7035 25.1629C16.8878 25.531 17.2643 25.7631 17.6729 25.7631H28.3679C28.9688 25.7631 29.4494 25.2829 29.4494 24.6827V1.08885C29.4494 0.488597 28.9688 0.0083978 28.3679 0.0083978H20.3807C19.7798 0.0083978 19.2992 0.488597 19.2992 1.08885V13.1739Z" fill="white"/>
<path d="M43.7657 14.462H58.0257C58.3702 14.462 58.6586 14.1819 58.6586 13.8298V11.917C58.6586 11.5728 58.3782 11.2847 58.0257 11.2847H43.7657V7.65119H58.6747C59.2755 7.65119 59.7562 7.17099 59.7562 6.57074V1.08045C59.7562 0.480199 59.2755 0 58.6747 0H33.8717C33.2709 0 32.7902 0.480199 32.7902 1.08045V24.6823C32.7902 25.2665 33.2709 25.7467 33.8557 25.7467H58.8429C59.4437 25.7467 59.9244 25.2665 59.9244 24.6663V19.5121C59.9244 18.9119 59.4437 18.4317 58.8429 18.4317H43.7657V14.462Z" fill="white"/>
<path d="M92.715 10.1963C92.715 1.25657 87.5878 0.00805664 80.8022 0.00805664H64.347C63.7462 0.00805664 63.2655 0.488255 63.2655 1.08851V24.6743C63.2655 25.2746 63.7462 25.7548 64.347 25.7548H73.1594C73.7603 25.7548 74.241 25.2746 74.241 24.6743V20.1284H76.0996C76.6844 22.9616 78.9676 25.1545 81.8437 25.6347C82.1882 25.7068 82.5487 25.7548 82.9412 25.7548H91.6334C92.2343 25.7548 92.715 25.2746 92.715 24.6743V20.1284C92.715 19.5282 92.2343 19.048 91.6334 19.048H88.0844C91.0807 17.8235 92.715 15.2944 92.715 10.1963ZM74.241 7.57921H79.1919C80.4096 7.57921 81.4271 8.5236 81.5232 9.7321C81.7475 12.5493 80.8663 13.4937 78.4309 13.5737H74.241V7.57921Z" fill="white"/>
<path d="M125 12.7334C125 3.38546 120.474 0.00805664 111.693 0.00805664H97.1368C96.5359 0.00805664 96.0552 0.488255 96.0552 1.08851V24.5303C96.0552 25.2106 96.608 25.7548 97.281 25.7548H111.693C120.474 25.7548 125 22.3694 125 13.0295C125 12.9815 124.992 12.9334 124.992 12.8854C124.992 12.8294 125 12.7814 125 12.7334ZM109.827 17.8475H106.862V14.9503V7.91535H109.827C113.095 7.91535 113.968 9.70009 114.008 12.8854C113.96 16.0547 113.095 17.8475 109.827 17.8475Z" fill="white"/>
</svg>
