<svg width="185" height="65" viewBox="0 0 185 65" fill="none" xmlns="http://www.w3.org/2000/svg">
<path d="M156.991 37.6237C156.991 30.4072 151.895 25.2117 145.054 25.2117C138.223 25.2117 132.739 30.7948 132.739 37.6237C132.739 44.4435 138.269 50.0266 145.11 50.0266C148.479 50.0266 152.144 48.9746 154.877 46.5014C155.662 45.7908 155.966 43.9175 154.84 42.7178C153.742 41.5642 152.006 41.6842 150.787 42.5978C149.366 43.6591 147.667 44.4988 145.387 44.4988C142.193 44.4988 139.857 42.5424 139.534 39.7278H154.665C155.911 39.7278 156.991 38.8603 156.991 37.6237ZM150.538 35.1229H139.635C140.226 32.419 142.183 30.7394 145.054 30.7394C147.935 30.7394 149.993 32.5759 150.538 35.1229Z" fill="#24FE7C"/>
<path d="M180.837 1.27351C178.87 0.562927 175.03 0 171.042 0C156.677 0 139.654 10.5756 128.179 27.3804C122.298 35.9904 120.858 40.2631 120.858 40.2631C120.858 40.2631 121.163 32.6867 120.175 27.8234C119.538 24.6765 118.439 23.8183 116.796 23.403C114.34 22.7847 112.023 24.0951 110.666 25.5993C112.208 27.0297 113.482 29.8813 113.842 33.0189C114.294 37.0055 114.359 40.6599 114.423 47.9872C114.433 49.2146 114.193 49.676 115.134 49.676H120.461C121.578 49.676 122.317 49.2423 122.612 48.5317C124.671 43.5299 130.542 31.4224 137.641 24.0582C149.55 11.6554 159.733 7.38265 170.626 7.38265C175.805 7.38265 179.323 8.07477 181.585 9.56053C183.929 8.92378 186.413 3.25759 180.837 1.27351Z" fill="#24FE7C"/>
<path d="M183.902 46.8244V37.31C183.902 30.481 178.935 25.2117 171.476 25.2117C164.635 25.2117 159.05 30.7948 159.05 37.6237C159.05 44.8126 163.629 50.0266 170.663 50.0266C173.811 50.0266 176.793 48.0702 177.504 46.5014C177.504 48.6516 178.963 50.0266 180.698 50.0266C182.489 50.0266 183.902 48.4024 183.902 46.6121V46.8244ZM177.338 37.6237C177.338 41.2505 175.012 44.1758 171.263 44.1758C167.525 44.1758 165.623 41.2505 165.623 37.6237C165.623 33.9878 167.737 31.0624 171.485 31.0624C175.224 31.0624 177.338 33.9878 177.338 37.6237Z" fill="#24FE7C"/>
<path d="M34.1253 46.769V16.1033C34.1253 14.3222 32.6575 12.7996 30.8665 12.7996C29.0755 12.7996 27.5615 14.313 27.5615 16.1033V46.769C27.5615 48.5685 29.0755 50.0266 30.8665 50.0266C32.6575 50.0266 34.1253 48.5685 34.1253 46.769Z" fill="#24FE7C"/>
<path d="M61.5248 46.8244V37.31C61.5248 30.481 56.5581 25.2117 49.0988 25.2117C42.2673 25.2117 36.6729 30.7948 36.6729 37.6237C36.6729 44.8126 41.2518 50.0266 48.2772 50.0266C51.4252 50.0266 54.4071 48.0702 55.118 46.5014C55.118 48.6516 56.5858 50.0266 58.3214 50.0266C60.1124 50.0266 61.5248 48.4024 61.5248 46.6121V46.8244ZM54.961 37.6237C54.961 41.2505 52.6254 44.1758 48.8865 44.1758C45.1384 44.1758 43.2459 41.2505 43.2459 37.6237C43.2459 33.9878 45.36 31.0624 49.1081 31.0624C52.8469 31.0624 54.961 33.9878 54.961 37.6237Z" fill="#24FE7C"/>
<path d="M85.2044 46.8889C85.2044 45.4309 83.9582 44.1758 82.4903 44.1758H72.9446L84.2813 30.3426C84.7152 29.7981 84.9921 29.1521 84.9921 28.4415C84.9921 26.8727 83.7458 25.5715 82.1672 25.5715H66.8147C65.3469 25.5715 64.1006 26.8174 64.1006 28.2754C64.1006 29.7427 65.3469 30.9886 66.8147 30.9886H76.1481L64.8114 44.831C64.3222 45.4216 64.1098 46.1322 64.1098 46.8889C64.1098 48.2455 65.4669 49.5467 66.824 49.5928C68.3472 49.6482 69.9166 49.5928 71.4952 49.5928H82.5088C83.9582 49.5928 85.2044 48.347 85.2044 46.8889Z" fill="#24FE7C"/>
<path d="M110.934 46.8244V37.31C110.934 30.481 105.967 25.2117 98.508 25.2117C91.6673 25.2117 86.082 30.7948 86.082 37.6237C86.082 44.8126 90.661 50.0266 97.6864 50.0266C100.834 50.0266 103.816 48.0702 104.527 46.5014C104.527 48.6516 105.995 50.0266 107.731 50.0266C109.522 50.0266 110.934 48.4024 110.934 46.6121V46.8244ZM104.37 37.6237C104.37 41.2505 102.035 44.1758 98.2957 44.1758C94.5568 44.1758 92.6551 41.2505 92.6551 37.6237C92.6551 33.9878 94.7691 31.0624 98.5172 31.0624C102.256 31.0624 104.37 33.9878 104.37 37.6237Z" fill="#24FE7C"/>
<path d="M24.958 37.6145C24.958 30.7947 19.8621 25.2024 13.1968 25.2024C10.1595 25.2024 7.61153 26.8266 6.47602 28.7276C6.47602 26.559 4.79584 25.2024 3.38338 25.2024C1.59241 25.2024 0.133789 26.7158 0.133789 28.5061V59.181C0.133789 60.9713 1.59241 62.4294 3.38338 62.4294C5.17434 62.4294 6.68836 60.9713 6.68836 59.181V46.6674C7.50075 48.2363 10.1595 50.0265 13.1875 50.0265C19.8621 50.0265 24.958 44.4434 24.958 37.6145ZM18.4035 37.6145C18.4035 41.2412 16.2894 44.1666 12.5505 44.1666C8.81166 44.1666 6.69759 41.2412 6.69759 37.6145C6.69759 33.9877 8.81166 31.0624 12.5505 31.0624C16.2894 31.0624 18.4035 33.9877 18.4035 37.6145Z" fill="#24FE7C"/>
<path d="M183.902 61.0176C183.902 60.2609 183.219 59.8733 182.083 59.5041C180.939 59.1258 180.542 58.9873 180.542 58.4613C180.542 57.9445 181.086 57.7046 181.871 57.7046C182.406 57.7046 182.914 57.843 183.367 58.1199C183.413 58.1476 183.468 58.1568 183.523 58.1568C183.616 58.1568 183.717 58.1107 183.763 58.0184C183.782 57.9722 183.791 57.9261 183.791 57.8707C183.791 57.7784 183.745 57.6862 183.653 57.6308C183.136 57.2986 182.628 57.114 181.825 57.114C180.735 57.114 179.877 57.6123 179.877 58.4429C179.877 59.2457 180.588 59.578 181.511 59.901C182.739 60.307 183.228 60.5469 183.228 61.0176C183.228 61.6451 182.489 61.885 181.769 61.885C181.151 61.885 180.615 61.6912 180.098 61.3406C180.052 61.3037 179.997 61.2944 179.932 61.2944C179.849 61.2944 179.766 61.3313 179.711 61.4144C179.674 61.4513 179.665 61.5159 179.665 61.5713C179.665 61.6543 179.711 61.7466 179.775 61.7928C180.394 62.2542 181.132 62.4572 181.797 62.4572C183.08 62.4664 183.902 61.8574 183.902 61.0176ZM178.16 59.7994C178.16 60.9161 177.32 61.8481 176.193 61.8481C175.058 61.8481 174.209 60.9161 174.209 59.7994C174.209 58.6736 175.058 57.7508 176.193 57.7508C177.32 57.7415 178.16 58.6736 178.16 59.7994ZM178.852 62.0696V59.7994C178.852 58.3229 177.661 57.1325 176.184 57.1325C174.698 57.1325 173.516 58.3229 173.516 59.7994C173.516 61.276 174.726 62.4664 176.166 62.4664C177.043 62.4664 177.809 61.9866 178.16 61.4698V62.0696C178.16 62.2634 178.317 62.411 178.511 62.411C178.704 62.4203 178.852 62.2726 178.852 62.0696ZM177.975 55.1853C177.975 55.1299 177.947 55.0745 177.911 55.0192C177.864 54.9453 177.781 54.9084 177.698 54.9084C177.643 54.9084 177.578 54.9177 177.532 54.9546L176.027 56.0251C175.953 56.0804 175.926 56.1543 175.926 56.2465C175.926 56.3111 175.953 56.3481 175.972 56.3942C176.018 56.4773 176.11 56.5142 176.203 56.5142C176.258 56.5142 176.295 56.5142 176.341 56.4773L177.846 55.3975C177.92 55.3606 177.975 55.2776 177.975 55.1853ZM172.399 62.0696V59.4395C172.399 58.1107 171.725 57.1232 170.35 57.1232C169.519 57.1232 168.716 57.5385 168.383 58.286C168.097 57.6031 167.488 57.1232 166.565 57.1232C165.78 57.1232 165.189 57.4555 164.801 58.0553V57.5201C164.801 57.3263 164.644 57.1694 164.451 57.1694C164.247 57.1694 164.1 57.3263 164.1 57.5201V62.0696C164.1 62.2634 164.257 62.411 164.451 62.411C164.654 62.411 164.801 62.2634 164.801 62.0696V59.4764C164.801 58.5352 165.42 57.7415 166.426 57.7415C167.451 57.7415 167.913 58.489 167.913 59.458V62.0788C167.913 62.2726 168.069 62.4203 168.263 62.4203C168.466 62.4203 168.623 62.2726 168.623 62.0788V59.338C168.623 58.4152 169.288 57.7415 170.23 57.7415C171.328 57.7415 171.716 58.489 171.716 59.458V62.0788C171.716 62.2726 171.864 62.4203 172.067 62.4203C172.251 62.4203 172.399 62.2726 172.399 62.0696ZM159.77 59.7994C159.77 60.9161 158.93 61.8481 157.794 61.8481C156.668 61.8481 155.81 60.9161 155.81 59.7994C155.81 58.6736 156.659 57.7508 157.794 57.7508C158.93 57.7415 159.77 58.6736 159.77 59.7994ZM160.472 62.0696V59.7994C160.472 58.3229 159.281 57.1325 157.794 57.1325C156.308 57.1325 155.126 58.3229 155.126 59.7994C155.126 61.276 156.336 62.4664 157.776 62.4664C158.653 62.4664 159.419 61.9866 159.77 61.4698V62.0696C159.77 62.2634 159.918 62.411 160.112 62.411C160.315 62.4203 160.472 62.2726 160.472 62.0696ZM154.951 57.5662C154.951 57.4001 154.822 57.2709 154.656 57.2709H153.622V55.5544C153.622 55.3514 153.474 55.2037 153.28 55.2037C153.077 55.2037 152.92 55.3514 152.92 55.5544V57.2709H151.997C151.831 57.2709 151.72 57.4001 151.72 57.5662C151.72 57.7323 151.84 57.8523 151.997 57.8523H152.92V62.0788C152.92 62.2726 153.086 62.411 153.28 62.411C153.474 62.411 153.622 62.2726 153.622 62.0788V57.8615H154.656C154.822 57.8615 154.951 57.7323 154.951 57.5662ZM151.018 60.0763V57.5201C151.018 57.3263 150.861 57.1694 150.668 57.1694C150.464 57.1694 150.317 57.3263 150.317 57.5201V60.1409C150.317 61.0914 149.569 61.8481 148.609 61.8481C147.649 61.8481 146.901 61.0914 146.901 60.1409V57.5201C146.901 57.3263 146.753 57.1694 146.55 57.1694C146.347 57.1694 146.199 57.3263 146.199 57.5201V60.0763C146.199 61.4052 147.252 62.4664 148.6 62.4664C149.966 62.4664 151.018 61.4052 151.018 60.0763ZM145.682 57.437C145.682 57.2617 145.553 57.1232 145.378 57.1232C144.51 57.1232 143.808 57.4739 143.402 58.1107V57.5108C143.402 57.317 143.236 57.1601 143.051 57.1601C142.848 57.1601 142.71 57.317 142.71 57.5108V62.0604C142.71 62.2542 142.857 62.4018 143.051 62.4018C143.236 62.4018 143.402 62.2449 143.402 62.0604V59.5226C143.402 58.4521 144.344 57.7415 145.378 57.7415C145.553 57.7415 145.682 57.6123 145.682 57.437ZM142.017 54.7608C142.017 54.5947 141.888 54.4655 141.731 54.4655H141.371C140.042 54.4655 139.599 55.1207 139.599 56.3942V57.2801H138.814C138.648 57.2801 138.537 57.4093 138.537 57.5754C138.537 57.7415 138.657 57.8615 138.814 57.8615H139.599V62.0696C139.599 62.2634 139.756 62.411 139.949 62.411C140.153 62.411 140.3 62.2634 140.3 62.0696V57.8615H141.371C141.537 57.8615 141.667 57.7323 141.667 57.5754C141.667 57.4093 141.537 57.2801 141.371 57.2801H140.3V56.3111C140.3 55.3883 140.54 55.0561 141.408 55.0561H141.731C141.888 55.0469 142.017 54.9177 142.017 54.7608ZM137.771 61.0176C137.771 60.2609 137.088 59.8733 135.952 59.5041C134.807 59.1258 134.41 58.9873 134.41 58.4613C134.41 57.9445 134.955 57.7046 135.74 57.7046C136.275 57.7046 136.774 57.843 137.235 58.1199C137.281 58.1476 137.346 58.1568 137.392 58.1568C137.485 58.1568 137.586 58.1107 137.632 58.0184C137.651 57.9722 137.669 57.9261 137.669 57.8707C137.669 57.7784 137.623 57.6862 137.531 57.6308C137.014 57.2986 136.506 57.114 135.703 57.114C134.613 57.114 133.746 57.6123 133.746 58.4429C133.746 59.2457 134.457 59.578 135.38 59.901C136.608 60.307 137.097 60.5469 137.097 61.0176C137.097 61.6451 136.358 61.885 135.638 61.885C135.02 61.885 134.484 61.6912 133.967 61.3406C133.921 61.3037 133.866 61.2944 133.801 61.2944C133.718 61.2944 133.635 61.3313 133.58 61.4144C133.543 61.4513 133.533 61.5159 133.533 61.5713C133.533 61.6543 133.58 61.7466 133.653 61.7928C134.272 62.2542 135.01 62.4572 135.675 62.4572C136.949 62.4664 137.771 61.8574 137.771 61.0176ZM132.13 62.0696V57.5201C132.13 57.3263 131.992 57.1694 131.789 57.1694C131.595 57.1694 131.429 57.3263 131.429 57.5201V62.0696C131.429 62.2634 131.595 62.411 131.789 62.411C131.992 62.4203 132.13 62.2726 132.13 62.0696ZM132.195 55.3975C132.195 55.1668 132.019 54.9823 131.789 54.9823C131.558 54.9823 131.355 55.1668 131.355 55.3975C131.355 55.6282 131.549 55.822 131.789 55.822C132.019 55.822 132.195 55.6282 132.195 55.3975ZM128.908 59.7994C128.908 60.953 128.059 61.8481 126.923 61.8481C125.797 61.8481 124.957 61.0084 124.957 59.7994C124.957 58.5813 125.788 57.7508 126.923 57.7508C128.059 57.7415 128.908 58.6367 128.908 59.7994ZM129.601 62.0696V54.7977C129.601 54.5947 129.453 54.447 129.25 54.447C129.056 54.447 128.908 54.5947 128.908 54.7977V58.2306C128.548 57.6031 127.773 57.1232 126.877 57.1232C125.4 57.1232 124.246 58.2583 124.246 59.7902C124.246 61.3221 125.4 62.4572 126.877 62.4572C127.763 62.4572 128.53 62.0419 128.908 61.3498V62.0696C128.908 62.2634 129.056 62.411 129.25 62.411C129.453 62.4203 129.601 62.2726 129.601 62.0696ZM120.71 61.9496C120.71 61.5713 120.517 61.3498 120.175 61.3498C119.88 61.3498 119.649 61.5713 119.649 61.8574C119.649 62.1527 119.88 62.3834 120.175 62.3834C120.184 62.3834 120.203 62.3649 120.203 62.3649C120.203 62.9094 120.018 63.3708 119.621 63.8507C119.612 63.8599 119.603 63.8876 119.603 63.9245C119.603 63.9799 119.63 64.0537 119.695 64.0906C119.723 64.1091 119.76 64.1091 119.787 64.1091C119.852 64.1091 119.889 64.0814 119.926 64.0445C120.498 63.4077 120.71 62.6694 120.71 61.9496ZM118.726 61.0176C118.726 60.2609 118.042 59.8733 116.907 59.5041C115.762 59.1258 115.365 58.9873 115.365 58.4613C115.365 57.9445 115.919 57.7046 116.695 57.7046C117.23 57.7046 117.729 57.843 118.19 58.1199C118.236 58.1476 118.292 58.1568 118.347 58.1568C118.439 58.1568 118.541 58.1107 118.596 58.0184C118.615 57.9722 118.633 57.9261 118.633 57.8707C118.633 57.7784 118.587 57.6862 118.495 57.6308C117.987 57.2986 117.47 57.114 116.667 57.114C115.578 57.114 114.719 57.6123 114.719 58.4429C114.719 59.2457 115.43 59.578 116.353 59.901C117.581 60.307 118.07 60.5469 118.07 61.0176C118.07 61.6451 117.341 61.885 116.611 61.885C115.993 61.885 115.458 61.6912 114.941 61.3406C114.894 61.3037 114.839 61.2944 114.774 61.2944C114.701 61.2944 114.617 61.3313 114.553 61.4144C114.516 61.4513 114.507 61.5159 114.507 61.5713C114.507 61.6543 114.553 61.7466 114.627 61.7928C115.245 62.2542 115.975 62.4572 116.639 62.4572C117.904 62.4664 118.726 61.8574 118.726 61.0176ZM112.974 59.7994C112.974 60.9161 112.134 61.8481 111.008 61.8481C109.872 61.8481 109.023 60.9161 109.023 59.7994C109.023 58.6736 109.872 57.7508 111.008 57.7508C112.134 57.7415 112.974 58.6736 112.974 59.7994ZM113.676 62.0696V59.7994C113.676 58.3229 112.485 57.1325 111.008 57.1325C109.531 57.1325 108.331 58.3137 108.331 59.7994C108.331 61.276 109.54 62.4664 110.98 62.4664C111.857 62.4664 112.623 61.9866 112.974 61.4698V62.0696C112.974 62.2634 113.131 62.411 113.325 62.411C113.528 62.4203 113.676 62.2726 113.676 62.0696ZM112.79 55.1853C112.79 55.1299 112.762 55.0745 112.734 55.0192C112.688 54.9453 112.605 54.9084 112.522 54.9084C112.466 54.9084 112.411 54.9177 112.356 54.9546L110.851 56.0251C110.777 56.0804 110.749 56.1543 110.749 56.2465C110.749 56.3111 110.768 56.3481 110.795 56.3942C110.842 56.4773 110.934 56.5142 111.026 56.5142C111.091 56.5142 111.119 56.5142 111.165 56.4773L112.67 55.3975C112.743 55.3606 112.79 55.2776 112.79 55.1853ZM107.223 62.0696V59.4395C107.223 58.1107 106.549 57.1232 105.164 57.1232C104.342 57.1232 103.53 57.5385 103.207 58.286C102.912 57.6031 102.302 57.1232 101.388 57.1232C100.604 57.1232 100.013 57.4555 99.625 58.0553V57.5201C99.625 57.3263 99.4681 57.1694 99.2742 57.1694C99.0803 57.1694 98.9234 57.3263 98.9234 57.5201V62.0696C98.9234 62.2634 99.0711 62.411 99.2742 62.411C99.4773 62.411 99.625 62.2634 99.625 62.0696V59.4764C99.625 58.5352 100.244 57.7415 101.25 57.7415C102.275 57.7415 102.736 58.489 102.736 59.458V62.0788C102.736 62.2726 102.884 62.4203 103.087 62.4203C103.29 62.4203 103.438 62.2726 103.438 62.0788V59.338C103.438 58.4152 104.102 57.7415 105.044 57.7415C106.143 57.7415 106.521 58.489 106.521 59.458V62.0788C106.521 62.2726 106.669 62.4203 106.872 62.4203C107.075 62.4203 107.223 62.2726 107.223 62.0696ZM94.5845 59.7994C94.5845 60.9161 93.7444 61.8481 92.6089 61.8481C91.4826 61.8481 90.624 60.9161 90.624 59.7994C90.624 58.6736 91.4734 57.7508 92.6089 57.7508C93.7444 57.7415 94.5845 58.6736 94.5845 59.7994ZM95.2861 62.0696V59.7994C95.2861 58.3229 94.0952 57.1325 92.6089 57.1325C91.1318 57.1325 89.9409 58.3229 89.9409 59.7994C89.9409 61.276 91.1502 62.4664 92.5904 62.4664C93.4674 62.4664 94.2337 61.9866 94.5845 61.4698V62.0696C94.5845 62.2634 94.7322 62.411 94.9353 62.411C95.1384 62.4203 95.2861 62.2726 95.2861 62.0696ZM89.8855 57.437C89.8855 57.2617 89.7562 57.1232 89.5808 57.1232C88.7131 57.1232 88.0207 57.4739 87.6052 58.1107V57.5108C87.6052 57.317 87.4391 57.1601 87.2544 57.1601C87.0606 57.1601 86.9129 57.317 86.9129 57.5108V62.0604C86.9129 62.2542 87.0698 62.4018 87.2544 62.4018C87.4391 62.4018 87.6052 62.2449 87.6052 62.0604V59.5226C87.6052 58.4521 88.5469 57.7415 89.5808 57.7415C89.7562 57.7415 89.8855 57.6123 89.8855 57.437ZM85.9897 57.437C85.9897 57.2617 85.8604 57.1232 85.685 57.1232C84.8265 57.1232 84.1249 57.4739 83.7094 58.1107V57.5108C83.7094 57.317 83.5433 57.1601 83.3586 57.1601C83.1555 57.1601 83.017 57.317 83.017 57.5108V62.0604C83.017 62.2542 83.1647 62.4018 83.3586 62.4018C83.5433 62.4018 83.7094 62.2449 83.7094 62.0604V59.5226C83.7094 58.4521 84.6603 57.7415 85.685 57.7415C85.8604 57.7415 85.9897 57.6123 85.9897 57.437ZM81.1707 59.7994C81.1707 60.9161 80.3214 61.8481 79.1859 61.8481C78.0503 61.8481 77.2103 60.9161 77.2103 59.7994C77.2103 58.6736 78.0503 57.7508 79.1859 57.7508C80.3214 57.7415 81.1707 58.6736 81.1707 59.7994ZM81.8631 59.7994C81.8631 58.3229 80.6722 57.1325 79.1951 57.1325C77.718 57.1325 76.5179 58.3229 76.5179 59.7994C76.5179 61.276 77.7088 62.4664 79.1951 62.4664C80.6722 62.4664 81.8631 61.276 81.8631 59.7994ZM75.5855 62.0696V59.4672C75.5855 58.1383 74.8008 57.1232 73.416 57.1232C72.6313 57.1232 71.8743 57.5016 71.505 58.1014V54.8069C71.505 54.6039 71.3388 54.4562 71.1542 54.4562C70.9511 54.4562 70.8034 54.6039 70.8034 54.8069V62.0788C70.8034 62.2726 70.9511 62.4203 71.1542 62.4203C71.3481 62.4203 71.505 62.2726 71.505 62.0788V59.4857C71.505 58.5444 72.2712 57.7508 73.2775 57.7508C74.4038 57.7508 74.8931 58.4983 74.8931 59.4672V62.0881C74.8931 62.2819 75.0592 62.4295 75.2531 62.4295C75.447 62.4203 75.5855 62.2726 75.5855 62.0696ZM68.7539 59.7994C68.7539 60.9161 67.9138 61.8481 66.7876 61.8481C65.6521 61.8481 64.8027 60.9161 64.8027 59.7994C64.8027 58.6736 65.6521 57.7508 66.7876 57.7508C67.9231 57.7415 68.7539 58.6736 68.7539 59.7994ZM69.4556 62.0696V59.7994C69.4556 58.3229 68.2647 57.1325 66.7876 57.1325C65.3013 57.1325 64.1104 58.3229 64.1104 59.7994C64.1104 61.276 65.3289 62.4664 66.7599 62.4664C67.6369 62.4664 68.4031 61.9866 68.7539 61.4698V62.0696C68.7539 62.2634 68.9109 62.411 69.1047 62.411C69.3078 62.4203 69.4556 62.2726 69.4556 62.0696Z" fill="#24FE7C"/>
</svg>
