<svg width="185" height="65" viewBox="0 0 185 65" fill="none" xmlns="http://www.w3.org/2000/svg">
<path d="M156.991 37.624C156.991 30.4075 151.895 25.2119 145.054 25.2119C138.223 25.2119 132.739 30.795 132.739 37.624C132.739 44.4437 138.269 50.0268 145.11 50.0268C148.479 50.0268 152.144 48.9748 154.877 46.5016C155.662 45.791 155.966 43.9177 154.84 42.718C153.742 41.5645 152.006 41.6844 150.787 42.5981C149.366 43.6593 147.667 44.4991 145.387 44.4991C142.193 44.4991 139.857 42.5427 139.534 39.728H154.665C155.911 39.728 156.991 38.8606 156.991 37.624ZM150.538 35.1231H139.635C140.226 32.4192 142.183 30.7397 145.054 30.7397C147.935 30.7397 149.993 32.5761 150.538 35.1231Z" fill="#3822E4"/>
<path d="M180.837 1.27351C178.87 0.562927 175.03 0 171.042 0C156.677 0 139.654 10.5756 128.179 27.3804C122.298 35.9904 120.858 40.2631 120.858 40.2631C120.858 40.2631 121.163 32.6867 120.175 27.8234C119.538 24.6765 118.439 23.8183 116.796 23.403C114.34 22.7847 112.023 24.0951 110.666 25.5993C112.208 27.0297 113.482 29.8813 113.842 33.0189C114.294 37.0055 114.359 40.6599 114.423 47.9872C114.433 49.2146 114.193 49.676 115.134 49.676H120.461C121.578 49.676 122.317 49.2423 122.612 48.5317C124.671 43.5299 130.542 31.4224 137.641 24.0582C149.55 11.6554 159.733 7.38265 170.626 7.38265C175.805 7.38265 179.323 8.07477 181.585 9.56053C183.929 8.92378 186.413 3.25759 180.837 1.27351Z" fill="#3822E4"/>
<path d="M183.902 46.8246V37.3102C183.902 30.4813 178.935 25.2119 171.476 25.2119C164.635 25.2119 159.05 30.795 159.05 37.624C159.05 44.8128 163.629 50.0268 170.663 50.0268C173.811 50.0268 176.793 48.0704 177.504 46.5016C177.504 48.6518 178.963 50.0268 180.698 50.0268C182.489 50.0268 183.902 48.4027 183.902 46.6124V46.8246ZM177.338 37.624C177.338 41.2507 175.012 44.1761 171.263 44.1761C167.525 44.1761 165.623 41.2507 165.623 37.624C165.623 33.988 167.737 31.0627 171.485 31.0627C175.224 31.0627 177.338 33.988 177.338 37.624Z" fill="#3822E4"/>
<path d="M34.1253 46.7692V16.1035C34.1253 14.3225 32.6575 12.7998 30.8665 12.7998C29.0755 12.7998 27.5615 14.3132 27.5615 16.1035V46.7692C27.5615 48.5687 29.0755 50.0268 30.8665 50.0268C32.6575 50.0268 34.1253 48.5687 34.1253 46.7692Z" fill="#3822E4"/>
<path d="M61.5248 46.8246V37.3102C61.5248 30.4813 56.5581 25.2119 49.0988 25.2119C42.2673 25.2119 36.6729 30.795 36.6729 37.624C36.6729 44.8128 41.2518 50.0268 48.2772 50.0268C51.4252 50.0268 54.4071 48.0704 55.118 46.5016C55.118 48.6518 56.5858 50.0268 58.3214 50.0268C60.1124 50.0268 61.5248 48.4027 61.5248 46.6124V46.8246ZM54.961 37.624C54.961 41.2507 52.6254 44.1761 48.8865 44.1761C45.1384 44.1761 43.2459 41.2507 43.2459 37.624C43.2459 33.988 45.36 31.0627 49.1081 31.0627C52.8469 31.0627 54.961 33.988 54.961 37.624Z" fill="#3822E4"/>
<path d="M85.2044 46.8887C85.2044 45.4306 83.9582 44.1756 82.4903 44.1756H72.9446L84.2813 30.3423C84.7152 29.7979 84.9921 29.1519 84.9921 28.4413C84.9921 26.8725 83.7458 25.5713 82.1672 25.5713H66.8147C65.3469 25.5713 64.1006 26.8171 64.1006 28.2752C64.1006 29.7425 65.3469 30.9883 66.8147 30.9883H76.1481L64.8114 44.8308C64.3222 45.4214 64.1098 46.132 64.1098 46.8887C64.1098 48.2453 65.4669 49.5464 66.824 49.5926C68.3472 49.648 69.9166 49.5926 71.4952 49.5926H82.5088C83.9582 49.5926 85.2044 48.3468 85.2044 46.8887Z" fill="#3822E4"/>
<path d="M110.934 46.8246V37.3102C110.934 30.4813 105.967 25.2119 98.508 25.2119C91.6673 25.2119 86.082 30.795 86.082 37.624C86.082 44.8128 90.661 50.0268 97.6864 50.0268C100.834 50.0268 103.816 48.0704 104.527 46.5016C104.527 48.6518 105.995 50.0268 107.731 50.0268C109.522 50.0268 110.934 48.4027 110.934 46.6124V46.8246ZM104.37 37.624C104.37 41.2507 102.035 44.1761 98.2957 44.1761C94.5568 44.1761 92.6551 41.2507 92.6551 37.624C92.6551 33.988 94.7691 31.0627 98.5172 31.0627C102.256 31.0627 104.37 33.988 104.37 37.624Z" fill="#3822E4"/>
<path d="M24.958 37.6142C24.958 30.7945 19.8621 25.2021 13.1968 25.2021C10.1595 25.2021 7.61153 26.8263 6.47602 28.7274C6.47602 26.5587 4.79584 25.2021 3.38338 25.2021C1.59241 25.2021 0.133789 26.7156 0.133789 28.5059V59.1808C0.133789 60.9711 1.59241 62.4292 3.38338 62.4292C5.17434 62.4292 6.68836 60.9711 6.68836 59.1808V46.6672C7.50075 48.236 10.1595 50.0263 13.1875 50.0263C19.8621 50.0263 24.958 44.4432 24.958 37.6142ZM18.4035 37.6142C18.4035 41.2409 16.2894 44.1663 12.5505 44.1663C8.81166 44.1663 6.69759 41.2409 6.69759 37.6142C6.69759 33.9875 8.81166 31.0621 12.5505 31.0621C16.2894 31.0621 18.4035 33.9875 18.4035 37.6142Z" fill="#3822E4"/>
<path d="M183.902 61.0178C183.902 60.2611 183.219 59.8735 182.083 59.5044C180.939 59.126 180.542 58.9876 180.542 58.4616C180.542 57.9448 181.086 57.7049 181.871 57.7049C182.406 57.7049 182.914 57.8433 183.367 58.1201C183.413 58.1478 183.468 58.157 183.523 58.157C183.616 58.157 183.717 58.1109 183.763 58.0186C183.782 57.9725 183.791 57.9263 183.791 57.871C183.791 57.7787 183.745 57.6864 183.653 57.631C183.136 57.2988 182.628 57.1142 181.825 57.1142C180.735 57.1142 179.877 57.6126 179.877 58.4431C179.877 59.246 180.588 59.5782 181.511 59.9012C182.739 60.3072 183.228 60.5472 183.228 61.0178C183.228 61.6453 182.489 61.8853 181.769 61.8853C181.151 61.8853 180.615 61.6915 180.098 61.3408C180.052 61.3039 179.997 61.2947 179.932 61.2947C179.849 61.2947 179.766 61.3316 179.711 61.4146C179.674 61.4516 179.665 61.5162 179.665 61.5715C179.665 61.6546 179.711 61.7469 179.775 61.793C180.394 62.2544 181.132 62.4574 181.797 62.4574C183.08 62.4667 183.902 61.8576 183.902 61.0178ZM178.16 59.7997C178.16 60.9163 177.32 61.8484 176.193 61.8484C175.058 61.8484 174.209 60.9163 174.209 59.7997C174.209 58.6738 175.058 57.751 176.193 57.751C177.32 57.7418 178.16 58.6738 178.16 59.7997ZM178.852 62.0699V59.7997C178.852 58.3232 177.661 57.1327 176.184 57.1327C174.698 57.1327 173.516 58.3232 173.516 59.7997C173.516 61.2762 174.726 62.4667 176.166 62.4667C177.043 62.4667 177.809 61.9868 178.16 61.47V62.0699C178.16 62.2636 178.317 62.4113 178.511 62.4113C178.704 62.4205 178.852 62.2729 178.852 62.0699ZM177.975 55.1855C177.975 55.1302 177.947 55.0748 177.911 55.0194C177.864 54.9456 177.781 54.9087 177.698 54.9087C177.643 54.9087 177.578 54.9179 177.532 54.9548L176.027 56.0253C175.953 56.0807 175.926 56.1545 175.926 56.2468C175.926 56.3114 175.953 56.3483 175.972 56.3944C176.018 56.4775 176.11 56.5144 176.203 56.5144C176.258 56.5144 176.295 56.5144 176.341 56.4775L177.846 55.3978C177.92 55.3609 177.975 55.2778 177.975 55.1855ZM172.399 62.0699V59.4398C172.399 58.1109 171.725 57.1235 170.35 57.1235C169.519 57.1235 168.716 57.5387 168.383 58.2862C168.097 57.6033 167.488 57.1235 166.565 57.1235C165.78 57.1235 165.189 57.4557 164.801 58.0555V57.5203C164.801 57.3265 164.644 57.1696 164.451 57.1696C164.247 57.1696 164.1 57.3265 164.1 57.5203V62.0699C164.1 62.2636 164.257 62.4113 164.451 62.4113C164.654 62.4113 164.801 62.2636 164.801 62.0699V59.4767C164.801 58.5354 165.42 57.7418 166.426 57.7418C167.451 57.7418 167.913 58.4893 167.913 59.4582V62.0791C167.913 62.2729 168.069 62.4205 168.263 62.4205C168.466 62.4205 168.623 62.2729 168.623 62.0791V59.3383C168.623 58.4154 169.288 57.7418 170.23 57.7418C171.328 57.7418 171.716 58.4893 171.716 59.4582V62.0791C171.716 62.2729 171.864 62.4205 172.067 62.4205C172.251 62.4205 172.399 62.2729 172.399 62.0699ZM159.77 59.7997C159.77 60.9163 158.93 61.8484 157.794 61.8484C156.668 61.8484 155.81 60.9163 155.81 59.7997C155.81 58.6738 156.659 57.751 157.794 57.751C158.93 57.7418 159.77 58.6738 159.77 59.7997ZM160.472 62.0699V59.7997C160.472 58.3232 159.281 57.1327 157.794 57.1327C156.308 57.1327 155.126 58.3232 155.126 59.7997C155.126 61.2762 156.336 62.4667 157.776 62.4667C158.653 62.4667 159.419 61.9868 159.77 61.47V62.0699C159.77 62.2636 159.918 62.4113 160.112 62.4113C160.315 62.4205 160.472 62.2729 160.472 62.0699ZM154.951 57.5664C154.951 57.4003 154.822 57.2711 154.656 57.2711H153.622V55.5547C153.622 55.3516 153.474 55.204 153.28 55.204C153.077 55.204 152.92 55.3516 152.92 55.5547V57.2711H151.997C151.831 57.2711 151.72 57.4003 151.72 57.5664C151.72 57.7325 151.84 57.8525 151.997 57.8525H152.92V62.0791C152.92 62.2729 153.086 62.4113 153.28 62.4113C153.474 62.4113 153.622 62.2729 153.622 62.0791V57.8617H154.656C154.822 57.8617 154.951 57.7325 154.951 57.5664ZM151.018 60.0765V57.5203C151.018 57.3265 150.861 57.1696 150.668 57.1696C150.464 57.1696 150.317 57.3265 150.317 57.5203V60.1411C150.317 61.0916 149.569 61.8484 148.609 61.8484C147.649 61.8484 146.901 61.0916 146.901 60.1411V57.5203C146.901 57.3265 146.753 57.1696 146.55 57.1696C146.347 57.1696 146.199 57.3265 146.199 57.5203V60.0765C146.199 61.4054 147.252 62.4667 148.6 62.4667C149.966 62.4667 151.018 61.4054 151.018 60.0765ZM145.682 57.4372C145.682 57.2619 145.553 57.1235 145.378 57.1235C144.51 57.1235 143.808 57.4742 143.402 58.1109V57.5111C143.402 57.3173 143.236 57.1604 143.051 57.1604C142.848 57.1604 142.71 57.3173 142.71 57.5111V62.0606C142.71 62.2544 142.857 62.4021 143.051 62.4021C143.236 62.4021 143.402 62.2452 143.402 62.0606V59.5228C143.402 58.4524 144.344 57.7418 145.378 57.7418C145.553 57.7418 145.682 57.6126 145.682 57.4372ZM142.017 54.761C142.017 54.5949 141.888 54.4657 141.731 54.4657H141.371C140.042 54.4657 139.599 55.1209 139.599 56.3944V57.2804H138.814C138.648 57.2804 138.537 57.4096 138.537 57.5757C138.537 57.7418 138.657 57.8617 138.814 57.8617H139.599V62.0699C139.599 62.2636 139.756 62.4113 139.949 62.4113C140.153 62.4113 140.3 62.2636 140.3 62.0699V57.8617H141.371C141.537 57.8617 141.667 57.7325 141.667 57.5757C141.667 57.4096 141.537 57.2804 141.371 57.2804H140.3V56.3114C140.3 55.3886 140.54 55.0563 141.408 55.0563H141.731C141.888 55.0471 142.017 54.9179 142.017 54.761ZM137.771 61.0178C137.771 60.2611 137.088 59.8735 135.952 59.5044C134.807 59.126 134.41 58.9876 134.41 58.4616C134.41 57.9448 134.955 57.7049 135.74 57.7049C136.275 57.7049 136.774 57.8433 137.235 58.1201C137.281 58.1478 137.346 58.157 137.392 58.157C137.485 58.157 137.586 58.1109 137.632 58.0186C137.651 57.9725 137.669 57.9263 137.669 57.871C137.669 57.7787 137.623 57.6864 137.531 57.631C137.014 57.2988 136.506 57.1142 135.703 57.1142C134.613 57.1142 133.746 57.6126 133.746 58.4431C133.746 59.246 134.457 59.5782 135.38 59.9012C136.608 60.3072 137.097 60.5472 137.097 61.0178C137.097 61.6453 136.358 61.8853 135.638 61.8853C135.02 61.8853 134.484 61.6915 133.967 61.3408C133.921 61.3039 133.866 61.2947 133.801 61.2947C133.718 61.2947 133.635 61.3316 133.58 61.4146C133.543 61.4516 133.533 61.5162 133.533 61.5715C133.533 61.6546 133.58 61.7469 133.653 61.793C134.272 62.2544 135.01 62.4574 135.675 62.4574C136.949 62.4667 137.771 61.8576 137.771 61.0178ZM132.13 62.0699V57.5203C132.13 57.3265 131.992 57.1696 131.789 57.1696C131.595 57.1696 131.429 57.3265 131.429 57.5203V62.0699C131.429 62.2636 131.595 62.4113 131.789 62.4113C131.992 62.4205 132.13 62.2729 132.13 62.0699ZM132.195 55.3978C132.195 55.1671 132.019 54.9825 131.789 54.9825C131.558 54.9825 131.355 55.1671 131.355 55.3978C131.355 55.6285 131.549 55.8223 131.789 55.8223C132.019 55.8223 132.195 55.6285 132.195 55.3978ZM128.908 59.7997C128.908 60.9532 128.059 61.8484 126.923 61.8484C125.797 61.8484 124.957 61.0086 124.957 59.7997C124.957 58.5816 125.788 57.751 126.923 57.751C128.059 57.7418 128.908 58.6369 128.908 59.7997ZM129.601 62.0699V54.7979C129.601 54.5949 129.453 54.4473 129.25 54.4473C129.056 54.4473 128.908 54.5949 128.908 54.7979V58.2309C128.548 57.6033 127.773 57.1235 126.877 57.1235C125.4 57.1235 124.246 58.2586 124.246 59.7905C124.246 61.3224 125.4 62.4574 126.877 62.4574C127.763 62.4574 128.53 62.0422 128.908 61.35V62.0699C128.908 62.2636 129.056 62.4113 129.25 62.4113C129.453 62.4205 129.601 62.2729 129.601 62.0699ZM120.71 61.9499C120.71 61.5715 120.517 61.35 120.175 61.35C119.88 61.35 119.649 61.5715 119.649 61.8576C119.649 62.1529 119.88 62.3836 120.175 62.3836C120.184 62.3836 120.203 62.3652 120.203 62.3652C120.203 62.9096 120.018 63.371 119.621 63.8509C119.612 63.8601 119.603 63.8878 119.603 63.9247C119.603 63.9801 119.63 64.0539 119.695 64.0908C119.723 64.1093 119.76 64.1093 119.787 64.1093C119.852 64.1093 119.889 64.0816 119.926 64.0447C120.498 63.408 120.71 62.6697 120.71 61.9499ZM118.726 61.0178C118.726 60.2611 118.042 59.8735 116.907 59.5044C115.762 59.126 115.365 58.9876 115.365 58.4616C115.365 57.9448 115.919 57.7049 116.695 57.7049C117.23 57.7049 117.729 57.8433 118.19 58.1201C118.236 58.1478 118.292 58.157 118.347 58.157C118.439 58.157 118.541 58.1109 118.596 58.0186C118.615 57.9725 118.633 57.9263 118.633 57.871C118.633 57.7787 118.587 57.6864 118.495 57.631C117.987 57.2988 117.47 57.1142 116.667 57.1142C115.578 57.1142 114.719 57.6126 114.719 58.4431C114.719 59.246 115.43 59.5782 116.353 59.9012C117.581 60.3072 118.07 60.5472 118.07 61.0178C118.07 61.6453 117.341 61.8853 116.611 61.8853C115.993 61.8853 115.458 61.6915 114.941 61.3408C114.894 61.3039 114.839 61.2947 114.774 61.2947C114.701 61.2947 114.617 61.3316 114.553 61.4146C114.516 61.4516 114.507 61.5162 114.507 61.5715C114.507 61.6546 114.553 61.7469 114.627 61.793C115.245 62.2544 115.975 62.4574 116.639 62.4574C117.904 62.4667 118.726 61.8576 118.726 61.0178ZM112.974 59.7997C112.974 60.9163 112.134 61.8484 111.008 61.8484C109.872 61.8484 109.023 60.9163 109.023 59.7997C109.023 58.6738 109.872 57.751 111.008 57.751C112.134 57.7418 112.974 58.6738 112.974 59.7997ZM113.676 62.0699V59.7997C113.676 58.3232 112.485 57.1327 111.008 57.1327C109.531 57.1327 108.331 58.3139 108.331 59.7997C108.331 61.2762 109.54 62.4667 110.98 62.4667C111.857 62.4667 112.623 61.9868 112.974 61.47V62.0699C112.974 62.2636 113.131 62.4113 113.325 62.4113C113.528 62.4205 113.676 62.2729 113.676 62.0699ZM112.79 55.1855C112.79 55.1302 112.762 55.0748 112.734 55.0194C112.688 54.9456 112.605 54.9087 112.522 54.9087C112.466 54.9087 112.411 54.9179 112.356 54.9548L110.851 56.0253C110.777 56.0807 110.749 56.1545 110.749 56.2468C110.749 56.3114 110.768 56.3483 110.795 56.3944C110.842 56.4775 110.934 56.5144 111.026 56.5144C111.091 56.5144 111.119 56.5144 111.165 56.4775L112.67 55.3978C112.743 55.3609 112.79 55.2778 112.79 55.1855ZM107.223 62.0699V59.4398C107.223 58.1109 106.549 57.1235 105.164 57.1235C104.342 57.1235 103.53 57.5387 103.207 58.2862C102.912 57.6033 102.302 57.1235 101.388 57.1235C100.604 57.1235 100.013 57.4557 99.625 58.0555V57.5203C99.625 57.3265 99.4681 57.1696 99.2742 57.1696C99.0803 57.1696 98.9234 57.3265 98.9234 57.5203V62.0699C98.9234 62.2636 99.0711 62.4113 99.2742 62.4113C99.4773 62.4113 99.625 62.2636 99.625 62.0699V59.4767C99.625 58.5354 100.244 57.7418 101.25 57.7418C102.275 57.7418 102.736 58.4893 102.736 59.4582V62.0791C102.736 62.2729 102.884 62.4205 103.087 62.4205C103.29 62.4205 103.438 62.2729 103.438 62.0791V59.3383C103.438 58.4154 104.102 57.7418 105.044 57.7418C106.143 57.7418 106.521 58.4893 106.521 59.4582V62.0791C106.521 62.2729 106.669 62.4205 106.872 62.4205C107.075 62.4205 107.223 62.2729 107.223 62.0699ZM94.5845 59.7997C94.5845 60.9163 93.7444 61.8484 92.6089 61.8484C91.4826 61.8484 90.624 60.9163 90.624 59.7997C90.624 58.6738 91.4734 57.751 92.6089 57.751C93.7444 57.7418 94.5845 58.6738 94.5845 59.7997ZM95.2861 62.0699V59.7997C95.2861 58.3232 94.0952 57.1327 92.6089 57.1327C91.1318 57.1327 89.9409 58.3232 89.9409 59.7997C89.9409 61.2762 91.1502 62.4667 92.5904 62.4667C93.4674 62.4667 94.2337 61.9868 94.5845 61.47V62.0699C94.5845 62.2636 94.7322 62.4113 94.9353 62.4113C95.1384 62.4205 95.2861 62.2729 95.2861 62.0699ZM89.8855 57.4372C89.8855 57.2619 89.7562 57.1235 89.5808 57.1235C88.7131 57.1235 88.0207 57.4742 87.6052 58.1109V57.5111C87.6052 57.3173 87.4391 57.1604 87.2544 57.1604C87.0606 57.1604 86.9129 57.3173 86.9129 57.5111V62.0606C86.9129 62.2544 87.0698 62.4021 87.2544 62.4021C87.4391 62.4021 87.6052 62.2452 87.6052 62.0606V59.5228C87.6052 58.4524 88.5469 57.7418 89.5808 57.7418C89.7562 57.7418 89.8855 57.6126 89.8855 57.4372ZM85.9897 57.4372C85.9897 57.2619 85.8604 57.1235 85.685 57.1235C84.8265 57.1235 84.1249 57.4742 83.7094 58.1109V57.5111C83.7094 57.3173 83.5433 57.1604 83.3586 57.1604C83.1555 57.1604 83.017 57.3173 83.017 57.5111V62.0606C83.017 62.2544 83.1647 62.4021 83.3586 62.4021C83.5433 62.4021 83.7094 62.2452 83.7094 62.0606V59.5228C83.7094 58.4524 84.6603 57.7418 85.685 57.7418C85.8604 57.7418 85.9897 57.6126 85.9897 57.4372ZM81.1707 59.7997C81.1707 60.9163 80.3214 61.8484 79.1859 61.8484C78.0503 61.8484 77.2103 60.9163 77.2103 59.7997C77.2103 58.6738 78.0503 57.751 79.1859 57.751C80.3214 57.7418 81.1707 58.6738 81.1707 59.7997ZM81.8631 59.7997C81.8631 58.3232 80.6722 57.1327 79.1951 57.1327C77.718 57.1327 76.5179 58.3232 76.5179 59.7997C76.5179 61.2762 77.7088 62.4667 79.1951 62.4667C80.6722 62.4667 81.8631 61.2762 81.8631 59.7997ZM75.5855 62.0699V59.4675C75.5855 58.1386 74.8008 57.1235 73.416 57.1235C72.6313 57.1235 71.8743 57.5018 71.505 58.1017V54.8072C71.505 54.6041 71.3388 54.4565 71.1542 54.4565C70.9511 54.4565 70.8034 54.6041 70.8034 54.8072V62.0791C70.8034 62.2729 70.9511 62.4205 71.1542 62.4205C71.3481 62.4205 71.505 62.2729 71.505 62.0791V59.4859C71.505 58.5446 72.2712 57.751 73.2775 57.751C74.4038 57.751 74.8931 58.4985 74.8931 59.4675V62.0883C74.8931 62.2821 75.0592 62.4298 75.2531 62.4298C75.447 62.4205 75.5855 62.2729 75.5855 62.0699ZM68.7539 59.7997C68.7539 60.9163 67.9138 61.8484 66.7876 61.8484C65.6521 61.8484 64.8027 60.9163 64.8027 59.7997C64.8027 58.6738 65.6521 57.751 66.7876 57.751C67.9231 57.7418 68.7539 58.6738 68.7539 59.7997ZM69.4556 62.0699V59.7997C69.4556 58.3232 68.2647 57.1327 66.7876 57.1327C65.3013 57.1327 64.1104 58.3232 64.1104 59.7997C64.1104 61.2762 65.3289 62.4667 66.7599 62.4667C67.6369 62.4667 68.4031 61.9868 68.7539 61.47V62.0699C68.7539 62.2636 68.9109 62.4113 69.1047 62.4113C69.3078 62.4205 69.4556 62.2729 69.4556 62.0699Z" fill="#3822E4"/>
</svg>
