<svg width="185" height="65" viewBox="0 0 185 65" fill="none" xmlns="http://www.w3.org/2000/svg">
<path d="M156.991 37.6239C156.991 30.4073 151.895 25.2118 145.054 25.2118C138.223 25.2118 132.739 30.7949 132.739 37.6239C132.739 44.4436 138.269 50.0267 145.11 50.0267C148.479 50.0267 152.144 48.9747 154.877 46.5015C155.662 45.7909 155.966 43.9176 154.84 42.7179C153.741 41.5644 152.006 41.6843 150.787 42.5979C149.366 43.6592 147.667 44.499 145.387 44.499C142.192 44.499 139.857 42.5426 139.534 39.7279H154.665C155.911 39.7279 156.991 38.8605 156.991 37.6239ZM150.538 35.123H139.635C140.226 32.4191 142.183 30.7396 145.054 30.7396C147.935 30.7396 149.993 32.576 150.538 35.123Z" fill="#E4EDF5"/>
<path d="M180.837 1.27351C178.87 0.562927 175.03 0 171.042 0C156.677 0 139.654 10.5756 128.179 27.3804C122.298 35.9904 120.858 40.2631 120.858 40.2631C120.858 40.2631 121.162 32.6867 120.175 27.8234C119.538 24.6765 118.439 23.8183 116.796 23.403C114.34 22.7847 112.023 24.0951 110.666 25.5993C112.208 27.0297 113.482 29.8813 113.842 33.0189C114.294 37.0055 114.359 40.6599 114.423 47.9872C114.432 49.2146 114.192 49.676 115.134 49.676H120.461C121.578 49.676 122.316 49.2423 122.612 48.5317C124.671 43.5299 130.542 31.4224 137.641 24.0582C149.55 11.6554 159.733 7.38265 170.626 7.38265C175.805 7.38265 179.323 8.07477 181.584 9.56053C183.929 8.92378 186.413 3.25759 180.837 1.27351Z" fill="#E4EDF5"/>
<path d="M183.902 46.8245V37.3101C183.902 30.4812 178.935 25.2118 171.476 25.2118C164.635 25.2118 159.05 30.7949 159.05 37.6239C159.05 44.8127 163.629 50.0267 170.663 50.0267C173.811 50.0267 176.793 48.0703 177.504 46.5015C177.504 48.6517 178.963 50.0267 180.698 50.0267C182.489 50.0267 183.902 48.4025 183.902 46.6122V46.8245ZM177.338 37.6239C177.338 41.2506 175.011 44.176 171.263 44.176C167.524 44.176 165.623 41.2506 165.623 37.6239C165.623 33.9879 167.737 31.0625 171.485 31.0625C175.224 31.0625 177.338 33.9879 177.338 37.6239Z" fill="#E4EDF5"/>
<path d="M34.1252 46.7691V16.1034C34.1252 14.3224 32.6573 12.7997 30.8664 12.7997C29.0754 12.7997 27.5614 14.3131 27.5614 16.1034V46.7691C27.5614 48.5686 29.0754 50.0267 30.8664 50.0267C32.6573 50.0267 34.1252 48.5686 34.1252 46.7691Z" fill="#E4EDF5"/>
<path d="M61.5252 46.8245V37.3101C61.5252 30.4812 56.5585 25.2118 49.0992 25.2118C42.2677 25.2118 36.6732 30.7949 36.6732 37.6239C36.6732 44.8127 41.2522 50.0267 48.2776 50.0267C51.4256 50.0267 54.4075 48.0703 55.1183 46.5015C55.1183 48.6517 56.5862 50.0267 58.3218 50.0267C60.1127 50.0267 61.5252 48.4025 61.5252 46.6122V46.8245ZM54.9614 37.6239C54.9614 41.2506 52.6257 44.176 48.8869 44.176C45.1388 44.176 43.2462 41.2506 43.2462 37.6239C43.2462 33.9879 45.3603 31.0625 49.1084 31.0625C52.8473 31.0625 54.9614 33.9879 54.9614 37.6239Z" fill="#E4EDF5"/>
<path d="M85.2047 46.8891C85.2047 45.431 83.9584 44.1759 82.4905 44.1759H72.9449L84.2815 30.3427C84.7154 29.7982 84.9924 29.1522 84.9924 28.4417C84.9924 26.8728 83.7461 25.5717 82.1674 25.5717H66.815C65.3471 25.5717 64.1008 26.8175 64.1008 28.2756C64.1008 29.7429 65.3471 30.9887 66.815 30.9887H76.1483L64.8117 44.8311C64.3224 45.4218 64.1101 46.1323 64.1101 46.8891C64.1101 48.2456 65.4671 49.5468 66.8242 49.593C68.3475 49.6483 69.9169 49.593 71.4955 49.593H82.509C83.9584 49.593 85.2047 48.3471 85.2047 46.8891Z" fill="#E4EDF5"/>
<path d="M110.934 46.8245V37.3101C110.934 30.4812 105.967 25.2118 98.5076 25.2118C91.6669 25.2118 86.0817 30.7949 86.0817 37.6239C86.0817 44.8127 90.6606 50.0267 97.686 50.0267C100.834 50.0267 103.816 48.0703 104.527 46.5015C104.527 48.6517 105.995 50.0267 107.73 50.0267C109.521 50.0267 110.934 48.4025 110.934 46.6122V46.8245ZM104.37 37.6239C104.37 41.2506 102.034 44.176 98.2953 44.176C94.5564 44.176 92.6547 41.2506 92.6547 37.6239C92.6547 33.9879 94.7688 31.0625 98.5169 31.0625C102.256 31.0625 104.37 33.9879 104.37 37.6239Z" fill="#E4EDF5"/>
<path d="M24.958 37.6146C24.958 30.7949 19.8621 25.2025 13.1968 25.2025C10.1595 25.2025 7.61153 26.8267 6.47602 28.7277C6.47602 26.5591 4.79584 25.2025 3.38338 25.2025C1.59241 25.2025 0.133789 26.716 0.133789 28.5062V59.1812C0.133789 60.9714 1.59241 62.4295 3.38338 62.4295C5.17434 62.4295 6.68836 60.9714 6.68836 59.1812V46.6676C7.50075 48.2364 10.1595 50.0267 13.1875 50.0267C19.8621 50.0267 24.958 44.4435 24.958 37.6146ZM18.4035 37.6146C18.4035 41.2413 16.2894 44.1667 12.5505 44.1667C8.81166 44.1667 6.69759 41.2413 6.69759 37.6146C6.69759 33.9879 8.81166 31.0625 12.5505 31.0625C16.2894 31.0625 18.4035 33.9879 18.4035 37.6146Z" fill="#E4EDF5"/>
<path d="M183.902 61.0176C183.902 60.2609 183.218 59.8733 182.083 59.5041C180.938 59.1258 180.541 58.9873 180.541 58.4613C180.541 57.9445 181.086 57.7046 181.871 57.7046C182.406 57.7046 182.914 57.843 183.366 58.1199C183.412 58.1476 183.468 58.1568 183.523 58.1568C183.615 58.1568 183.717 58.1107 183.763 58.0184C183.782 57.9722 183.791 57.9261 183.791 57.8707C183.791 57.7784 183.745 57.6862 183.652 57.6308C183.135 57.2986 182.628 57.114 181.824 57.114C180.735 57.114 179.877 57.6123 179.877 58.4429C179.877 59.2457 180.587 59.578 181.511 59.901C182.738 60.307 183.228 60.5469 183.228 61.0176C183.228 61.6451 182.489 61.885 181.769 61.885C181.151 61.885 180.615 61.6912 180.098 61.3406C180.052 61.3037 179.997 61.2944 179.932 61.2944C179.849 61.2944 179.766 61.3313 179.71 61.4144C179.673 61.4513 179.664 61.5159 179.664 61.5713C179.664 61.6543 179.71 61.7466 179.775 61.7928C180.394 62.2542 181.132 62.4572 181.797 62.4572C183.08 62.4664 183.902 61.8574 183.902 61.0176ZM178.159 59.7994C178.159 60.9161 177.319 61.8481 176.193 61.8481C175.058 61.8481 174.208 60.9161 174.208 59.7994C174.208 58.6736 175.058 57.7508 176.193 57.7508C177.319 57.7415 178.159 58.6736 178.159 59.7994ZM178.852 62.0696V59.7994C178.852 58.3229 177.661 57.1325 176.184 57.1325C174.698 57.1325 173.516 58.3229 173.516 59.7994C173.516 61.276 174.725 62.4664 176.165 62.4664C177.042 62.4664 177.809 61.9866 178.159 61.4698V62.0696C178.159 62.2634 178.316 62.411 178.51 62.411C178.704 62.4203 178.852 62.2726 178.852 62.0696ZM177.975 55.1853C177.975 55.1299 177.947 55.0745 177.91 55.0192C177.864 54.9453 177.781 54.9084 177.698 54.9084C177.642 54.9084 177.578 54.9177 177.532 54.9546L176.027 56.0251C175.953 56.0804 175.925 56.1543 175.925 56.2465C175.925 56.3111 175.953 56.3481 175.971 56.3942C176.018 56.4773 176.11 56.5142 176.202 56.5142C176.258 56.5142 176.295 56.5142 176.341 56.4773L177.846 55.3975C177.919 55.3606 177.975 55.2776 177.975 55.1853ZM172.399 62.0696V59.4395C172.399 58.1107 171.725 57.1232 170.349 57.1232C169.518 57.1232 168.715 57.5385 168.383 58.286C168.097 57.6031 167.487 57.1232 166.564 57.1232C165.78 57.1232 165.189 57.4555 164.801 58.0553V57.5201C164.801 57.3263 164.644 57.1694 164.45 57.1694C164.247 57.1694 164.099 57.3263 164.099 57.5201V62.0696C164.099 62.2634 164.256 62.411 164.45 62.411C164.653 62.411 164.801 62.2634 164.801 62.0696V59.4764C164.801 58.5352 165.42 57.7415 166.426 57.7415C167.451 57.7415 167.912 58.489 167.912 59.458V62.0788C167.912 62.2726 168.069 62.4203 168.263 62.4203C168.466 62.4203 168.623 62.2726 168.623 62.0788V59.338C168.623 58.4152 169.288 57.7415 170.229 57.7415C171.328 57.7415 171.716 58.489 171.716 59.458V62.0788C171.716 62.2726 171.863 62.4203 172.066 62.4203C172.251 62.4203 172.399 62.2726 172.399 62.0696ZM159.77 59.7994C159.77 60.9161 158.93 61.8481 157.794 61.8481C156.668 61.8481 155.809 60.9161 155.809 59.7994C155.809 58.6736 156.659 57.7508 157.794 57.7508C158.93 57.7415 159.77 58.6736 159.77 59.7994ZM160.471 62.0696V59.7994C160.471 58.3229 159.28 57.1325 157.794 57.1325C156.308 57.1325 155.126 58.3229 155.126 59.7994C155.126 61.276 156.335 62.4664 157.776 62.4664C158.653 62.4664 159.419 61.9866 159.77 61.4698V62.0696C159.77 62.2634 159.917 62.411 160.111 62.411C160.314 62.4203 160.471 62.2726 160.471 62.0696ZM154.951 57.5662C154.951 57.4001 154.821 57.2709 154.655 57.2709H153.621V55.5544C153.621 55.3514 153.474 55.2037 153.28 55.2037C153.077 55.2037 152.92 55.3514 152.92 55.5544V57.2709H151.997C151.83 57.2709 151.72 57.4001 151.72 57.5662C151.72 57.7323 151.84 57.8523 151.997 57.8523H152.92V62.0788C152.92 62.2726 153.086 62.411 153.28 62.411C153.474 62.411 153.621 62.2726 153.621 62.0788V57.8615H154.655C154.821 57.8615 154.951 57.7323 154.951 57.5662ZM151.018 60.0763V57.5201C151.018 57.3263 150.861 57.1694 150.667 57.1694C150.464 57.1694 150.316 57.3263 150.316 57.5201V60.1409C150.316 61.0914 149.569 61.8481 148.608 61.8481C147.648 61.8481 146.901 61.0914 146.901 60.1409V57.5201C146.901 57.3263 146.753 57.1694 146.55 57.1694C146.347 57.1694 146.199 57.3263 146.199 57.5201V60.0763C146.199 61.4052 147.251 62.4664 148.599 62.4664C149.966 62.4664 151.018 61.4052 151.018 60.0763ZM145.682 57.437C145.682 57.2617 145.553 57.1232 145.377 57.1232C144.51 57.1232 143.808 57.4739 143.402 58.1107V57.5108C143.402 57.317 143.236 57.1601 143.051 57.1601C142.848 57.1601 142.709 57.317 142.709 57.5108V62.0604C142.709 62.2542 142.857 62.4018 143.051 62.4018C143.236 62.4018 143.402 62.2449 143.402 62.0604V59.5226C143.402 58.4521 144.343 57.7415 145.377 57.7415C145.553 57.7415 145.682 57.6123 145.682 57.437ZM142.017 54.7608C142.017 54.5947 141.888 54.4655 141.731 54.4655H141.371C140.041 54.4655 139.598 55.1207 139.598 56.3942V57.2801H138.814C138.647 57.2801 138.537 57.4093 138.537 57.5754C138.537 57.7415 138.657 57.8615 138.814 57.8615H139.598V62.0696C139.598 62.2634 139.755 62.411 139.949 62.411C140.152 62.411 140.3 62.2634 140.3 62.0696V57.8615H141.371C141.537 57.8615 141.666 57.7323 141.666 57.5754C141.666 57.4093 141.537 57.2801 141.371 57.2801H140.3V56.3111C140.3 55.3883 140.54 55.0561 141.408 55.0561H141.731C141.888 55.0469 142.017 54.9177 142.017 54.7608ZM137.77 61.0176C137.77 60.2609 137.087 59.8733 135.952 59.5041C134.807 59.1258 134.41 58.9873 134.41 58.4613C134.41 57.9445 134.955 57.7046 135.739 57.7046C136.275 57.7046 136.773 57.843 137.235 58.1199C137.281 58.1476 137.346 58.1568 137.392 58.1568C137.484 58.1568 137.586 58.1107 137.632 58.0184C137.65 57.9722 137.669 57.9261 137.669 57.8707C137.669 57.7784 137.623 57.6862 137.53 57.6308C137.013 57.2986 136.506 57.114 135.702 57.114C134.613 57.114 133.745 57.6123 133.745 58.4429C133.745 59.2457 134.456 59.578 135.379 59.901C136.607 60.307 137.096 60.5469 137.096 61.0176C137.096 61.6451 136.358 61.885 135.638 61.885C135.019 61.885 134.484 61.6912 133.967 61.3406C133.921 61.3037 133.865 61.2944 133.801 61.2944C133.718 61.2944 133.635 61.3313 133.579 61.4144C133.542 61.4513 133.533 61.5159 133.533 61.5713C133.533 61.6543 133.579 61.7466 133.653 61.7928C134.272 62.2542 135.01 62.4572 135.675 62.4572C136.949 62.4664 137.77 61.8574 137.77 61.0176ZM132.13 62.0696V57.5201C132.13 57.3263 131.991 57.1694 131.788 57.1694C131.594 57.1694 131.428 57.3263 131.428 57.5201V62.0696C131.428 62.2634 131.594 62.411 131.788 62.411C131.991 62.4203 132.13 62.2726 132.13 62.0696ZM132.194 55.3975C132.194 55.1668 132.019 54.9823 131.788 54.9823C131.557 54.9823 131.354 55.1668 131.354 55.3975C131.354 55.6282 131.548 55.822 131.788 55.822C132.019 55.822 132.194 55.6282 132.194 55.3975ZM128.908 59.7994C128.908 60.953 128.059 61.8481 126.923 61.8481C125.797 61.8481 124.957 61.0084 124.957 59.7994C124.957 58.5813 125.788 57.7508 126.923 57.7508C128.059 57.7415 128.908 58.6367 128.908 59.7994ZM129.6 62.0696V54.7977C129.6 54.5947 129.453 54.447 129.249 54.447C129.056 54.447 128.908 54.5947 128.908 54.7977V58.2306C128.548 57.6031 127.772 57.1232 126.877 57.1232C125.4 57.1232 124.246 58.2583 124.246 59.7902C124.246 61.3221 125.4 62.4572 126.877 62.4572C127.763 62.4572 128.529 62.0419 128.908 61.3498V62.0696C128.908 62.2634 129.056 62.411 129.249 62.411C129.453 62.4203 129.6 62.2726 129.6 62.0696ZM120.71 61.9496C120.71 61.5713 120.516 61.3498 120.175 61.3498C119.879 61.3498 119.648 61.5713 119.648 61.8574C119.648 62.1527 119.879 62.3834 120.175 62.3834C120.184 62.3834 120.202 62.3649 120.202 62.3649C120.202 62.9094 120.018 63.3708 119.621 63.8507C119.611 63.8599 119.602 63.8876 119.602 63.9245C119.602 63.9799 119.63 64.0537 119.695 64.0906C119.722 64.1091 119.759 64.1091 119.787 64.1091C119.851 64.1091 119.888 64.0814 119.925 64.0445C120.498 63.4077 120.71 62.6694 120.71 61.9496ZM118.725 61.0176C118.725 60.2609 118.042 59.8733 116.907 59.5041C115.762 59.1258 115.365 58.9873 115.365 58.4613C115.365 57.9445 115.919 57.7046 116.694 57.7046C117.23 57.7046 117.728 57.843 118.19 58.1199C118.236 58.1476 118.291 58.1568 118.347 58.1568C118.439 58.1568 118.541 58.1107 118.596 58.0184C118.614 57.9722 118.633 57.9261 118.633 57.8707C118.633 57.7784 118.587 57.6862 118.494 57.6308C117.987 57.2986 117.47 57.114 116.667 57.114C115.577 57.114 114.719 57.6123 114.719 58.4429C114.719 59.2457 115.429 59.578 116.353 59.901C117.58 60.307 118.07 60.5469 118.07 61.0176C118.07 61.6451 117.34 61.885 116.611 61.885C115.993 61.885 115.457 61.6912 114.94 61.3406C114.894 61.3037 114.839 61.2944 114.774 61.2944C114.7 61.2944 114.617 61.3313 114.552 61.4144C114.516 61.4513 114.506 61.5159 114.506 61.5713C114.506 61.6543 114.552 61.7466 114.626 61.7928C115.245 62.2542 115.974 62.4572 116.639 62.4572C117.904 62.4664 118.725 61.8574 118.725 61.0176ZM112.974 59.7994C112.974 60.9161 112.134 61.8481 111.007 61.8481C109.872 61.8481 109.023 60.9161 109.023 59.7994C109.023 58.6736 109.872 57.7508 111.007 57.7508C112.134 57.7415 112.974 58.6736 112.974 59.7994ZM113.675 62.0696V59.7994C113.675 58.3229 112.485 57.1325 111.007 57.1325C109.53 57.1325 108.33 58.3137 108.33 59.7994C108.33 61.276 109.54 62.4664 110.98 62.4664C111.857 62.4664 112.623 61.9866 112.974 61.4698V62.0696C112.974 62.2634 113.131 62.411 113.325 62.411C113.528 62.4203 113.675 62.2726 113.675 62.0696ZM112.789 55.1853C112.789 55.1299 112.761 55.0745 112.734 55.0192C112.688 54.9453 112.605 54.9084 112.521 54.9084C112.466 54.9084 112.411 54.9177 112.355 54.9546L110.85 56.0251C110.777 56.0804 110.749 56.1543 110.749 56.2465C110.749 56.3111 110.767 56.3481 110.795 56.3942C110.841 56.4773 110.934 56.5142 111.026 56.5142C111.091 56.5142 111.118 56.5142 111.164 56.4773L112.669 55.3975C112.743 55.3606 112.789 55.2776 112.789 55.1853ZM107.222 62.0696V59.4395C107.222 58.1107 106.548 57.1232 105.164 57.1232C104.342 57.1232 103.53 57.5385 103.207 58.286C102.911 57.6031 102.302 57.1232 101.388 57.1232C100.603 57.1232 100.012 57.4555 99.6247 58.0553V57.5201C99.6247 57.3263 99.4677 57.1694 99.2738 57.1694C99.08 57.1694 98.923 57.3263 98.923 57.5201V62.0696C98.923 62.2634 99.0707 62.411 99.2738 62.411C99.4769 62.411 99.6247 62.2634 99.6247 62.0696V59.4764C99.6247 58.5352 100.243 57.7415 101.249 57.7415C102.274 57.7415 102.736 58.489 102.736 59.458V62.0788C102.736 62.2726 102.883 62.4203 103.087 62.4203C103.29 62.4203 103.437 62.2726 103.437 62.0788V59.338C103.437 58.4152 104.102 57.7415 105.044 57.7415C106.142 57.7415 106.521 58.489 106.521 59.458V62.0788C106.521 62.2726 106.668 62.4203 106.872 62.4203C107.075 62.4203 107.222 62.2726 107.222 62.0696ZM94.5841 59.7994C94.5841 60.9161 93.744 61.8481 92.6085 61.8481C91.4822 61.8481 90.6237 60.9161 90.6237 59.7994C90.6237 58.6736 91.473 57.7508 92.6085 57.7508C93.744 57.7415 94.5841 58.6736 94.5841 59.7994ZM95.2857 62.0696V59.7994C95.2857 58.3229 94.0948 57.1325 92.6085 57.1325C91.1314 57.1325 89.9405 58.3229 89.9405 59.7994C89.9405 61.276 91.1499 62.4664 92.59 62.4664C93.4671 62.4664 94.2333 61.9866 94.5841 61.4698V62.0696C94.5841 62.2634 94.7318 62.411 94.9349 62.411C95.138 62.4203 95.2857 62.2726 95.2857 62.0696ZM89.8851 57.437C89.8851 57.2617 89.7559 57.1232 89.5805 57.1232C88.7127 57.1232 88.0203 57.4739 87.6049 58.1107V57.5108C87.6049 57.317 87.4387 57.1601 87.2541 57.1601C87.0602 57.1601 86.9125 57.317 86.9125 57.5108V62.0604C86.9125 62.2542 87.0694 62.4018 87.2541 62.4018C87.4387 62.4018 87.6049 62.2449 87.6049 62.0604V59.5226C87.6049 58.4521 88.5465 57.7415 89.5805 57.7415C89.7559 57.7415 89.8851 57.6123 89.8851 57.437ZM85.9893 57.437C85.9893 57.2617 85.8601 57.1232 85.6847 57.1232C84.8261 57.1232 84.1245 57.4739 83.7091 58.1107V57.5108C83.7091 57.317 83.5429 57.1601 83.3582 57.1601C83.1551 57.1601 83.0167 57.317 83.0167 57.5108V62.0604C83.0167 62.2542 83.1644 62.4018 83.3582 62.4018C83.5429 62.4018 83.7091 62.2449 83.7091 62.0604V59.5226C83.7091 58.4521 84.6599 57.7415 85.6847 57.7415C85.8601 57.7415 85.9893 57.6123 85.9893 57.437ZM81.1703 59.7994C81.1703 60.9161 80.321 61.8481 79.1855 61.8481C78.05 61.8481 77.2099 60.9161 77.2099 59.7994C77.2099 58.6736 78.05 57.7508 79.1855 57.7508C80.321 57.7415 81.1703 58.6736 81.1703 59.7994ZM81.8627 59.7994C81.8627 58.3229 80.6718 57.1325 79.1947 57.1325C77.7176 57.1325 76.5175 58.3229 76.5175 59.7994C76.5175 61.276 77.7084 62.4664 79.1947 62.4664C80.6718 62.4664 81.8627 61.276 81.8627 59.7994ZM75.5851 62.0696V59.4672C75.5851 58.1383 74.8004 57.1232 73.4156 57.1232C72.6309 57.1232 71.8739 57.5016 71.5046 58.1014V54.8069C71.5046 54.6039 71.3385 54.4562 71.1538 54.4562C70.9507 54.4562 70.803 54.6039 70.803 54.8069V62.0788C70.803 62.2726 70.9507 62.4203 71.1538 62.4203C71.3477 62.4203 71.5046 62.2726 71.5046 62.0788V59.4857C71.5046 58.5444 72.2709 57.7508 73.2771 57.7508C74.4034 57.7508 74.8927 58.4983 74.8927 59.4672V62.0881C74.8927 62.2819 75.0589 62.4295 75.2527 62.4295C75.4466 62.4203 75.5851 62.2726 75.5851 62.0696ZM68.7536 59.7994C68.7536 60.9161 67.9135 61.8481 66.7872 61.8481C65.6517 61.8481 64.8024 60.9161 64.8024 59.7994C64.8024 58.6736 65.6517 57.7508 66.7872 57.7508C67.9227 57.7415 68.7536 58.6736 68.7536 59.7994ZM69.4552 62.0696V59.7994C69.4552 58.3229 68.2643 57.1325 66.7872 57.1325C65.3009 57.1325 64.11 58.3229 64.11 59.7994C64.11 61.276 65.3286 62.4664 66.7595 62.4664C67.6365 62.4664 68.4028 61.9866 68.7536 61.4698V62.0696C68.7536 62.2634 68.9105 62.411 69.1044 62.411C69.3075 62.4203 69.4552 62.2726 69.4552 62.0696Z" fill="#E4EDF5"/>
</svg>
