<svg width="139" height="108" viewBox="0 0 139 108" fill="none" xmlns="http://www.w3.org/2000/svg">
<path d="M16.1201 35.9444C15.8278 36.9672 15.5681 37.9413 15.3408 38.8829C15.0486 40.0681 14.7888 41.1396 14.5453 42.1137C14.3017 43.0553 14.1394 43.8184 14.042 44.3704C13.8472 45.3607 13.1978 45.9777 12.175 46.1725C11.282 46.3511 10.3404 46.2699 9.35006 45.9614C8.37596 45.653 7.49926 45.101 6.73622 44.3379C5.92447 43.5262 5.51859 42.5196 5.51859 41.3344C5.51859 40.3603 5.76212 38.8342 6.2654 36.6587C6.75245 34.532 7.45056 31.9993 8.35972 29.1582C9.25265 26.3333 10.3404 23.2161 11.5743 19.8879C12.6458 17.0306 13.8309 14.1732 15.1297 11.3321C15.5518 10.4067 16.4285 9.77352 17.4513 9.64364C19.7405 9.38388 21.7374 9.44882 23.4258 9.83846C24.4486 10.082 24.9844 11.186 24.5623 12.1276C23.4745 14.5629 22.468 16.9819 21.575 19.336C20.8445 21.2517 20.1626 23.135 19.497 24.9695C19.432 25.1481 19.6106 25.3267 19.7892 25.2455C20.6659 24.8396 21.5263 24.3688 22.3706 23.8331C23.7505 22.9401 25.0169 21.8849 26.1209 20.6835C27.2248 19.4821 28.1178 18.1183 28.7996 16.6572C29.4653 15.196 29.8062 13.605 29.8062 11.9328C29.8062 9.78975 29.2055 8.19872 28.0366 7.22462C26.8514 6.23428 25.1792 5.73099 23.0687 5.73099C20.812 5.73099 18.7664 6.26675 16.9643 7.32203C15.1135 8.39354 13.5062 9.72481 12.2074 11.2671C10.8924 12.8095 9.85334 14.4654 9.12277 16.1864C8.35972 17.891 7.98632 19.3684 7.98632 20.6185C7.98632 21.5115 7.5155 22.1446 6.67128 22.4206C5.92447 22.6641 5.09648 22.6317 4.25226 22.307C3.4405 21.9985 2.67746 21.414 2.01182 20.5373C1.32995 19.6607 0.989014 18.4593 0.989014 16.9981C0.989014 15.7155 1.47606 14.2057 2.4664 12.3711C3.4405 10.5853 4.88542 8.86436 6.75245 7.22462C8.61948 5.58488 10.9573 4.17243 13.7335 3.00351C16.5259 1.83458 19.7567 1.23389 23.3284 1.23389C25.3578 1.23389 27.4034 1.47741 29.3841 1.94823C31.381 2.41904 33.1993 3.14962 34.7741 4.09125C36.3652 5.04912 37.6802 6.26675 38.6705 7.6792C39.6771 9.12412 40.1804 10.8126 40.1804 12.7121C40.1804 14.7577 39.7258 16.6734 38.8491 18.3943C37.9724 20.1152 36.771 21.6738 35.2612 23.0538C33.7676 24.4175 32.0142 25.6189 30.0173 26.6255C28.3775 27.4535 26.6241 28.1678 24.8221 28.736C24.7084 28.7685 24.6597 28.8335 24.6759 28.9471C24.7084 29.8563 24.7733 30.733 24.8708 31.5934C24.9682 32.5837 25.1143 33.5416 25.2766 34.4508C25.439 35.3437 25.6338 36.2204 25.8611 37.0484C26.0397 37.6815 26.2345 38.3147 26.4293 38.8992C26.5592 39.2726 26.7053 39.646 26.8352 39.9869C27.1112 40.685 27.4359 41.3507 27.7606 41.9676C28.0853 42.5683 28.4425 43.1528 28.8159 43.6885C29.173 44.208 29.5627 44.6951 29.9686 45.1334C30.3582 45.5555 30.7803 45.9614 31.2024 46.3186C31.6245 46.6595 32.0629 46.968 32.5175 47.244C32.9558 47.5037 33.4104 47.731 33.8812 47.9259C34.3358 48.1045 34.8228 48.2668 35.3099 48.3642C35.7969 48.4779 36.284 48.5428 36.7873 48.5753C37.2906 48.6077 37.8101 48.5915 38.3296 48.559C38.8654 48.5103 39.4011 48.4291 39.9369 48.2993C40.4889 48.1694 41.0409 47.9908 41.6091 47.7797C42.1773 47.5687 42.7618 47.3089 43.33 47.0005C43.5411 46.8868 43.7683 46.7732 43.9794 46.6433C44.6937 46.2374 45.6029 46.4322 46.0737 47.0979C46.5445 47.7635 46.4471 48.6889 45.8302 49.2247C45.5217 49.4844 45.2295 49.7442 44.921 50.0039C44.1905 50.6046 43.4599 51.1566 42.7455 51.6599C42.0637 52.1307 41.3656 52.5691 40.6837 52.9587C40.3427 53.1535 39.9856 53.3484 39.6122 53.527C38.9141 53.8841 38.1997 54.1926 37.5016 54.4523C36.8035 54.7121 36.1054 54.9232 35.4235 55.1017C34.7417 55.2641 34.0598 55.394 33.3779 55.4589C32.9071 55.5076 32.42 55.5401 31.9492 55.5401C31.7544 55.5401 31.5758 55.5401 31.381 55.5239C30.7316 55.4914 30.0822 55.4264 29.4653 55.2966C29.1568 55.2316 28.8483 55.1667 28.5399 55.0693C28.2476 54.9881 27.9392 54.8907 27.6469 54.777C27.0625 54.566 26.4943 54.3062 25.9423 53.9978C25.4065 53.7055 24.8708 53.3484 24.3675 52.975C23.9616 52.6665 23.5557 52.3256 23.1823 51.9684C22.7277 51.53 22.2731 51.0592 21.851 50.5397C21.4289 50.0364 21.0393 49.4844 20.6659 48.9162C20.2925 48.348 19.9353 47.731 19.6106 47.1141C19.2859 46.4809 18.9774 45.8153 18.7014 45.1334C18.4254 44.4516 18.1657 43.7372 17.9384 42.9904C17.7111 42.2598 17.5 41.4806 17.3215 40.685C17.1429 39.8895 16.9805 39.0615 16.8506 38.2173C16.737 37.4705 16.6396 36.7074 16.5584 35.9282C16.5259 35.7496 16.185 35.7171 16.1201 35.9444Z" fill="#E4EDF5"/>
<path d="M138.095 6.07191C138.095 9.43256 135.383 12.1438 132.023 12.1438C128.662 12.1438 125.951 9.43256 125.951 6.07191C125.951 2.71125 128.662 0 132.023 0C135.367 0 138.095 2.71125 138.095 6.07191Z" fill="#E4EDF5"/>
<path d="M136.731 30.5541C136.439 30.0995 135.87 29.7911 135.286 29.7911C134.734 29.7911 134.231 30.0508 133.922 30.5054C133.565 31.0249 133.11 31.6419 132.607 32.34C132.039 33.103 131.422 33.8498 130.789 34.5317C130.156 35.2136 129.539 35.798 128.954 36.2851C128.354 36.7884 127.964 36.8858 127.737 36.8858C127.574 36.8858 127.298 36.8858 127.233 36.1227C127.168 35.3272 127.282 34.2882 127.591 33.0218C127.899 31.7393 128.354 30.3106 128.922 28.7845C129.506 27.2259 130.091 25.7323 130.659 24.3686C131.26 22.9399 131.763 21.7547 132.218 20.7319C132.672 19.7253 132.948 19.0597 133.062 18.7675C133.419 17.9395 133.289 17.1115 132.672 16.3972C132.104 15.7315 131.357 15.2769 130.432 15.0172C129.522 14.7737 128.548 14.7574 127.526 14.9685C126.422 15.1958 125.561 15.8452 124.944 16.8517C124.392 17.7447 123.694 19.1409 122.834 21.0241C121.973 22.9074 121.145 24.9855 120.366 27.2097C119.895 28.5572 119.457 29.9372 119.067 31.3334C118.418 33.6388 117.07 35.6844 115.219 37.2105C114.554 37.7462 113.856 38.2658 113.125 38.7366C112.8 38.9476 112.476 39.1425 112.151 39.321C112.054 39.3697 111.94 39.2561 112.005 39.1587C112.573 38.4281 113.109 37.6164 113.661 36.7721C114.765 35.0188 115.771 32.9082 116.664 30.5216C117.606 27.989 118.19 25.6836 118.401 23.6542C118.629 21.6086 118.548 19.8228 118.174 18.3454C117.785 16.8193 117.103 15.6179 116.145 14.7899C115.154 13.9132 113.921 13.4749 112.508 13.4749C110.836 13.4749 109.277 13.9132 107.914 14.7899C106.988 15.3906 106.112 16.0562 105.332 16.7868C105.267 16.8517 105.219 16.8355 105.17 16.7706C104.991 16.4946 104.764 16.2348 104.472 15.9913C103.806 15.4393 103.011 15.0821 102.102 14.9035C101.192 14.725 100.267 14.7899 99.3578 15.0821C98.3837 15.4068 97.6693 16.0562 97.2148 17.0303C96.3381 18.9136 95.4127 21.1216 94.471 23.573C93.5294 26.0245 92.604 28.5897 91.7273 31.1873C91.6299 31.4795 91.5325 31.7717 91.4351 32.0477C90.7045 34.2719 89.3083 36.2201 87.4575 37.6326C86.9704 38.006 86.4672 38.3632 85.9476 38.7041C85.6229 38.9152 85.2982 39.11 84.9735 39.2886C84.8761 39.3373 84.7625 39.2236 84.8274 39.1262C85.3956 38.3956 85.9314 37.5839 86.4834 36.7397C87.5874 34.9863 88.594 32.892 89.4869 30.4892C90.4285 27.9565 91.013 25.6511 91.224 23.6218C91.4513 21.5761 91.3701 19.7903 90.9967 18.3129C90.6071 16.7868 89.9252 15.5854 88.9674 14.7574C87.977 13.8807 86.7432 13.4424 85.3307 13.4424C83.6423 13.4424 82.0999 13.8807 80.7362 14.7574C79.8108 15.3581 78.9341 16.0238 78.1548 16.7543C78.0899 16.8193 78.0412 16.803 77.9925 16.7381C77.8139 16.4621 77.5866 16.2023 77.2944 15.9588C76.6287 15.4068 75.8332 15.0497 74.924 14.8711C74.0149 14.6925 73.0895 14.7574 72.1803 15.0497C71.2062 15.3744 70.4919 16.0238 70.0373 16.9979C69.1606 18.8811 68.2352 21.0891 67.2936 23.5406C66.4006 25.846 65.5402 28.2325 64.7284 30.6515C64.1115 32.4699 63.1861 33.9472 61.8061 35.2947C61.449 35.6357 61.108 35.9604 60.7671 36.2364C60.1664 36.7397 59.7768 36.8371 59.5495 36.8371C59.3871 36.8371 59.1111 36.8371 59.0462 36.074C58.9812 35.2785 59.0949 34.2395 59.4033 32.9894C59.7118 31.7068 60.1664 30.2781 60.7346 28.752C61.3191 27.2097 61.9035 25.7161 62.4718 24.3361C63.0562 22.9399 63.5758 21.706 64.0303 20.6994C64.4849 19.6604 64.7771 19.0272 64.8746 18.735C65.2317 17.907 65.1018 17.079 64.4849 16.3647C63.9167 15.6991 63.1536 15.2445 62.1958 14.9847C61.2704 14.7412 60.28 14.725 59.2897 14.9522C58.2182 15.1958 57.3577 15.8289 56.7408 16.8355C56.6109 17.0303 56.481 17.2576 56.3512 17.5011C56.3025 17.5823 56.1726 17.5661 56.1563 17.4687C56.0427 16.9167 55.8479 16.3972 55.5881 15.9101C55.1985 15.1795 54.6302 14.5951 53.8834 14.1405C53.1204 13.6859 52.1625 13.4586 51.0261 13.4586C48.3473 13.4586 45.6198 14.6925 42.9248 17.144C40.2947 19.5468 38.103 23.3782 36.4308 28.5247C35.6515 31.0087 35.1807 33.3141 35.067 35.3597C34.9371 37.4378 35.1157 39.2236 35.5703 40.6685C36.0411 42.1622 36.7879 43.3473 37.7945 44.1753C38.8335 45.0358 40.0836 45.4741 41.4961 45.4741C42.5514 45.4741 43.5417 45.2955 44.4671 44.9384C45.36 44.5974 46.2043 44.1428 46.9348 43.6071C47.5031 43.2012 48.0388 42.7304 48.5259 42.2271C48.8668 41.8699 49.4837 42.0161 49.6136 42.4869C49.776 43.0226 49.987 43.5097 50.2793 43.9156C50.9774 44.9384 52.0976 45.4579 53.575 45.4579C55.2309 45.4579 56.8869 44.841 58.5267 43.6233C59.2897 43.0551 60.0365 42.4382 60.7509 41.7725C60.9132 41.6264 61.173 41.7888 61.108 41.9998C60.6859 43.396 60.3125 44.6948 59.9716 45.9125C59.4033 47.9581 58.9325 49.7277 58.5754 51.1564C58.1045 53.0721 58.0558 53.5916 58.0558 53.8352C58.0558 55.0203 58.4292 56.0107 59.1436 56.8224C59.8417 57.6017 60.6534 58.1537 61.5464 58.4622C62.1308 58.6732 62.7153 58.7706 63.2673 58.7706C63.5758 58.7706 63.868 58.7381 64.1602 58.6732C64.8096 58.5271 65.6214 58.105 65.8649 56.8874V56.8711C65.9623 56.2217 66.1409 55.3613 66.4006 54.2897C66.6766 53.1695 67.0013 51.9032 67.3747 50.5232C67.7482 49.1432 68.1703 47.6009 68.6898 45.8313C68.9171 45.0033 69.1768 44.1428 69.4366 43.2499C69.4853 43.0713 69.7451 43.0389 69.8262 43.2012C69.9399 43.4123 70.0698 43.6071 70.2159 43.8019C71.0439 44.9059 72.3427 45.4579 74.1123 45.4579C74.4695 45.4741 74.8266 45.4741 75.1676 45.4741C77.7489 45.4741 80.1842 45.0358 82.3922 44.1591C84.5027 43.3149 86.4347 42.3083 88.1556 41.1231C88.318 41.0095 88.5452 41.1718 88.4803 41.3667C87.9933 42.9902 87.5387 44.5163 87.149 45.9125C86.5646 47.9743 86.11 49.7439 85.7528 51.1564C85.282 53.0884 85.2333 53.6079 85.2333 53.8352C85.2333 55.0041 85.6067 56.0107 86.321 56.8224C87.0192 57.6017 87.8309 58.1537 88.7238 58.4622C89.3083 58.6732 89.8928 58.7706 90.4447 58.7706C90.7532 58.7706 91.0454 58.7381 91.3377 58.6732C91.9871 58.5271 92.7988 58.105 93.0424 56.8874V56.8711C93.1398 56.2217 93.3184 55.3613 93.5781 54.2897C93.8541 53.1695 94.1788 51.9032 94.5522 50.5232C94.9256 49.1432 95.364 47.6009 95.8672 45.8313C96.0945 45.0033 96.3543 44.1428 96.6141 43.2499C96.6628 43.0713 96.9225 43.0389 97.0037 43.2012C97.1173 43.4123 97.2472 43.6071 97.3933 43.8019C98.2051 44.9059 99.5201 45.4579 101.29 45.4579C101.647 45.4741 102.004 45.4741 102.345 45.4741C104.926 45.4741 107.362 45.0358 109.57 44.1591C112.037 43.185 114.278 41.9511 116.21 40.49C116.534 40.2464 116.859 39.9867 117.168 39.7432C117.314 39.6295 117.525 39.7269 117.525 39.9217C117.525 40.0029 117.525 40.0841 117.525 40.1653C117.525 41.7076 117.849 42.9739 118.483 43.9156C119.181 44.9384 120.301 45.4579 121.778 45.4579C123.418 45.4579 125.107 44.841 126.763 43.6233C128.337 42.4706 129.831 41.1069 131.195 39.5646C132.542 38.0385 133.711 36.5286 134.701 35.0675C135.692 33.5901 136.374 32.5673 136.747 31.9666C137.007 31.5445 137.023 31.0087 136.731 30.5541ZM52.7145 22.6477C52.6009 23.7354 52.3736 24.9693 52.0326 26.333C51.6917 27.6805 51.2371 29.1092 50.6689 30.5704C50.1007 32.0315 49.5 33.3952 48.8668 34.6291C48.2499 35.8467 47.6329 36.8858 47.016 37.7138C46.4153 38.5255 45.8633 39.1262 45.3438 39.4996C44.9704 39.7756 44.7593 39.8081 44.6944 39.8081C44.6619 39.8081 44.6295 39.8081 44.597 39.7919C44.532 39.7594 44.2885 39.597 44.1749 38.8665C44.0612 38.1846 44.045 37.3079 44.1424 36.2689C44.2398 35.1973 44.4509 33.9797 44.7918 32.6322C45.1165 31.2847 45.5873 29.856 46.1556 28.3949C46.74 26.9175 47.3407 25.5537 47.9576 24.3361C48.5746 23.1185 49.1915 22.0794 49.8084 21.219C50.4091 20.391 50.9611 19.7903 51.4644 19.4006C51.8378 19.1246 52.0489 19.0922 52.13 19.0922C52.1625 19.0922 52.195 19.0922 52.2112 19.1084C52.2762 19.1409 52.5359 19.3032 52.682 20.05C52.8282 20.7157 52.8444 21.5924 52.7145 22.6477ZM82.1324 22.7126C81.9376 23.7841 81.6454 25.018 81.2395 26.3655C80.8336 27.7292 80.3141 29.1579 79.6972 30.6028C79.0315 32.064 78.3334 33.444 77.6353 34.6778C76.9534 35.8954 76.2553 36.9507 75.6059 37.7949C74.9565 38.6229 74.3721 39.2399 73.8363 39.6133C73.4304 39.9055 73.2194 39.938 73.1382 39.938C73.1057 39.938 73.0733 39.938 73.0408 39.9217C72.9758 39.8893 72.7485 39.7432 72.6511 39.0126C72.5537 38.3469 72.6024 37.4702 72.7973 36.3987C72.9921 35.311 73.2843 34.0609 73.6902 32.7134C74.0961 31.3659 74.6156 29.9372 75.2325 28.4598C75.8494 26.9986 76.5313 25.6349 77.2457 24.4173C77.96 23.1834 78.6581 22.1444 79.3075 21.3326C79.9569 20.5209 80.5414 19.9202 81.0771 19.5305C81.483 19.2383 81.6941 19.2058 81.7752 19.2058C81.8077 19.2058 81.8402 19.2058 81.8726 19.2221C81.9376 19.2545 82.1649 19.4006 82.2623 20.1312C82.3597 20.8131 82.311 21.6735 82.1324 22.7126ZM109.326 22.7126C109.131 23.7841 108.839 25.018 108.433 26.3655C108.027 27.7292 107.508 29.1579 106.891 30.6028C106.225 32.064 105.527 33.444 104.829 34.6778C104.147 35.8954 103.449 36.9507 102.8 37.7949C102.15 38.6229 101.566 39.2399 101.03 39.6133C100.624 39.9055 100.413 39.938 100.332 39.938C100.299 39.938 100.267 39.938 100.234 39.9217C100.17 39.8893 99.9422 39.7432 99.8448 39.0126C99.7474 38.3469 99.7961 37.4702 99.991 36.3987C100.186 35.311 100.478 34.0609 100.884 32.7134C101.29 31.3659 101.809 29.9372 102.426 28.4598C103.043 26.9986 103.725 25.6349 104.439 24.4173C105.154 23.1834 105.852 22.1444 106.501 21.3326C107.134 20.5209 107.735 19.9202 108.271 19.5468C108.677 19.2545 108.888 19.2221 108.969 19.2221C109.001 19.2221 109.034 19.2221 109.066 19.2383C109.131 19.2708 109.359 19.4169 109.456 20.1475C109.553 20.8131 109.505 21.6735 109.326 22.7126Z" fill="#E4EDF5"/>
<path d="M136.763 78.3825C129.506 84.7467 123.061 85.1363 115.316 79.4378C111.761 76.824 108.579 73.7068 105.007 71.1092C102.247 69.0961 99.3249 67.0992 96.1753 65.8491C90.7203 63.6898 85.2004 64.4204 80.2162 67.4563C76.8394 69.5182 73.7547 72.0671 70.6213 74.5023C70.183 74.8433 69.8583 75.0219 69.5173 75.0056C69.1764 75.0219 68.8517 74.827 68.4134 74.5023C65.28 72.0671 62.1953 69.502 58.8185 67.4563C53.8505 64.4366 48.3144 63.706 42.8594 65.8491C39.7098 67.0992 36.7875 69.0961 34.0276 71.1092C30.4558 73.7068 27.2738 76.824 23.7183 79.4378C15.9904 85.1363 9.54511 84.7304 2.27182 78.3825C1.67112 77.863 1.07042 77.3272 0.469727 76.8077C1.60618 82.7985 3.92779 88.156 7.36962 93.0265C11.7693 99.2445 17.5165 103.693 24.7573 106.144C41.658 111.859 63.0071 103.888 69.5498 88.8704C76.0763 103.888 97.4254 111.859 114.326 106.144C121.551 103.693 127.314 99.2445 131.714 93.0265C135.156 88.156 137.493 82.7985 138.565 76.8077C137.964 77.3272 137.364 77.863 136.763 78.3825Z" fill="#E4EDF5"/>
</svg>
