<svg width="139" height="108" viewBox="0 0 139 108" fill="none" xmlns="http://www.w3.org/2000/svg">
<path d="M16.1203 35.9449C15.8281 36.9677 15.5683 37.9418 15.341 38.8834C15.0488 40.0686 14.789 41.1401 14.5455 42.1142C14.302 43.0558 14.1396 43.8189 14.0422 44.3709C13.8474 45.3612 13.198 45.9781 12.1752 46.173C11.2823 46.3516 10.3406 46.2704 9.3503 45.9619C8.3762 45.6534 7.49951 45.1015 6.73646 44.3384C5.92471 43.5267 5.51883 42.5201 5.51883 41.3349C5.51883 40.3608 5.76236 38.8347 6.26565 36.6592C6.7527 34.5324 7.4508 31.9998 8.35996 29.1586C9.25289 26.3337 10.3406 23.2166 11.5745 19.8884C12.646 17.0311 13.8312 14.1737 15.13 11.3326C15.5521 10.4072 16.4288 9.77401 17.4516 9.64413C19.7407 9.38437 21.7376 9.44931 23.4261 9.83895C24.4489 10.0825 24.9846 11.1865 24.5625 12.1281C23.4748 14.5633 22.4682 16.9824 21.5753 19.3364C20.8447 21.2522 20.1628 23.1354 19.4972 24.97C19.4323 25.1486 19.6108 25.3272 19.7894 25.246C20.6661 24.8401 21.5266 24.3693 22.3708 23.8335C23.7508 22.9406 25.0171 21.8853 26.1211 20.684C27.2251 19.4826 28.118 18.1188 28.7999 16.6577C29.4655 15.1965 29.8065 13.6055 29.8065 11.9333C29.8065 9.79024 29.2058 8.19921 28.0368 7.22511C26.8517 6.23477 25.1795 5.73148 23.0689 5.73148C20.8122 5.73148 18.7666 6.26724 16.9645 7.32252C15.1137 8.39403 13.5065 9.7253 12.2077 11.2676C10.8926 12.81 9.85359 14.4659 9.12301 16.1868C8.35997 17.8915 7.98656 19.3689 7.98656 20.619C7.98656 21.5119 7.51574 22.1451 6.67152 22.4211C5.92471 22.6646 5.09672 22.6322 4.2525 22.3075C3.44075 21.999 2.6777 21.4145 2.01207 20.5378C1.33019 19.6611 0.989258 18.4598 0.989258 16.9986C0.989258 15.716 1.47631 14.2062 2.46665 12.3716C3.44075 10.5858 4.88567 8.86484 6.7527 7.22511C8.61973 5.58537 10.9576 4.17292 13.7338 3.00399C16.5262 1.83507 19.757 1.23438 23.3287 1.23438C25.3581 1.23438 27.4037 1.4779 29.3843 1.94872C31.3813 2.41953 33.1996 3.15011 34.7744 4.09174C36.3654 5.04961 37.6804 6.26724 38.6708 7.67969C39.6774 9.1246 40.1806 10.813 40.1806 12.7125C40.1806 14.7582 39.7261 16.6739 38.8494 18.3948C37.9727 20.1157 36.7713 21.6743 35.2614 23.0543C33.7678 24.418 32.0144 25.6194 30.0175 26.626C28.3778 27.454 26.6244 28.1683 24.8223 28.7365C24.7087 28.769 24.6599 28.8339 24.6762 28.9476C24.7087 29.8568 24.7736 30.7334 24.871 31.5939C24.9684 32.5842 25.1145 33.5421 25.2769 34.4513C25.4392 35.3442 25.634 36.2209 25.8613 37.0489C26.0399 37.682 26.2347 38.3152 26.4296 38.8997C26.5594 39.2731 26.7056 39.6465 26.8354 39.9874C27.1114 40.6855 27.4361 41.3512 27.7608 41.9681C28.0855 42.5688 28.4427 43.1532 28.8161 43.689C29.1733 44.2085 29.5629 44.6956 29.9688 45.1339C30.3584 45.556 30.7806 45.9619 31.2027 46.3191C31.6248 46.66 32.0631 46.9685 32.5177 47.2445C32.9561 47.5042 33.4106 47.7315 33.8814 47.9263C34.336 48.1049 34.8231 48.2673 35.3101 48.3647C35.7972 48.4783 36.2842 48.5433 36.7875 48.5758C37.2908 48.6082 37.8103 48.592 38.3298 48.5595C38.8656 48.5108 39.4014 48.4296 39.9371 48.2998C40.4891 48.1699 41.0411 47.9913 41.6093 47.7802C42.1776 47.5692 42.762 47.3094 43.3302 47.001C43.5413 46.8873 43.7686 46.7737 43.9796 46.6438C44.694 46.2379 45.6031 46.4327 46.074 47.0984C46.5448 47.764 46.4474 48.6894 45.8304 49.2252C45.522 49.4849 45.2297 49.7447 44.9213 50.0044C44.1907 50.6051 43.4601 51.1571 42.7458 51.6604C42.0639 52.1312 41.3658 52.5696 40.6839 52.9592C40.343 53.154 39.9858 53.3489 39.6124 53.5274C38.9143 53.8846 38.2 54.1931 37.5019 54.4528C36.8038 54.7126 36.1056 54.9236 35.4238 55.1022C34.7419 55.2646 34.06 55.3945 33.3782 55.4594C32.9073 55.5081 32.4203 55.5406 31.9495 55.5406C31.7547 55.5406 31.5761 55.5406 31.3813 55.5243C30.7318 55.4919 30.0824 55.4269 29.4655 55.2971C29.1571 55.2321 28.8486 55.1672 28.5401 55.0698C28.2479 54.9886 27.9394 54.8912 27.6472 54.7775C27.0627 54.5665 26.4945 54.3067 25.9425 53.9983C25.4068 53.706 24.871 53.3489 24.3677 52.9754C23.9618 52.667 23.556 52.326 23.1826 51.9689C22.728 51.5305 22.2734 51.0597 21.8513 50.5402C21.4292 50.0369 21.0395 49.4849 20.6661 48.9167C20.2927 48.3485 19.9355 47.7315 19.6108 47.1146C19.2861 46.4814 18.9777 45.8158 18.7017 45.1339C18.4257 44.452 18.1659 43.7377 17.9386 42.9909C17.7113 42.2603 17.5003 41.481 17.3217 40.6855C17.1431 39.89 16.9808 39.062 16.8509 38.2178C16.7372 37.471 16.6398 36.7079 16.5587 35.9287C16.5262 35.7501 16.1853 35.7176 16.1203 35.9449Z" fill="#3822E4"/>
<path d="M138.094 6.07191C138.094 9.43256 135.383 12.1438 132.022 12.1438C128.661 12.1438 125.95 9.43256 125.95 6.07191C125.95 2.71125 128.661 0 132.022 0C135.367 0 138.094 2.71125 138.094 6.07191Z" fill="#3822E4"/>
<path d="M136.731 30.5541C136.438 30.0995 135.87 29.7911 135.286 29.7911C134.734 29.7911 134.23 30.0508 133.922 30.5054C133.565 31.0249 133.11 31.6419 132.607 32.34C132.039 33.103 131.422 33.8498 130.789 34.5317C130.155 35.2136 129.538 35.798 128.954 36.2851C128.353 36.7884 127.964 36.8858 127.736 36.8858C127.574 36.8858 127.298 36.8858 127.233 36.1227C127.168 35.3272 127.282 34.2882 127.59 33.0218C127.899 31.7393 128.353 30.3106 128.921 28.7845C129.506 27.2259 130.09 25.7323 130.659 24.3686C131.259 22.9399 131.763 21.7547 132.217 20.7319C132.672 19.7253 132.948 19.0597 133.061 18.7675C133.419 17.9395 133.289 17.1115 132.672 16.3972C132.104 15.7315 131.357 15.2769 130.431 15.0172C129.522 14.7737 128.548 14.7574 127.525 14.9685C126.421 15.1958 125.561 15.8452 124.944 16.8517C124.392 17.7447 123.694 19.1409 122.833 21.0241C121.973 22.9074 121.145 24.9855 120.366 27.2097C119.895 28.5572 119.456 29.9372 119.067 31.3334C118.417 33.6388 117.07 35.6844 115.219 37.2105C114.553 37.7462 113.855 38.2658 113.125 38.7366C112.8 38.9476 112.475 39.1425 112.151 39.321C112.053 39.3697 111.94 39.2561 112.005 39.1587C112.573 38.4281 113.109 37.6164 113.661 36.7721C114.765 35.0188 115.771 32.9082 116.664 30.5216C117.606 27.989 118.19 25.6836 118.401 23.6542C118.628 21.6086 118.547 19.8228 118.174 18.3454C117.784 16.8193 117.102 15.6179 116.145 14.7899C115.154 13.9132 113.92 13.4749 112.508 13.4749C110.836 13.4749 109.277 13.9132 107.913 14.7899C106.988 15.3906 106.111 16.0562 105.332 16.7868C105.267 16.8517 105.218 16.8355 105.17 16.7706C104.991 16.4946 104.764 16.2348 104.472 15.9913C103.806 15.4393 103.01 15.0821 102.101 14.9035C101.192 14.725 100.267 14.7899 99.3575 15.0821C98.3834 15.4068 97.669 16.0562 97.2144 17.0303C96.3378 18.9136 95.4124 21.1216 94.4707 23.573C93.5291 26.0245 92.6037 28.5897 91.727 31.1873C91.6296 31.4795 91.5322 31.7717 91.4348 32.0477C90.7042 34.2719 89.308 36.2201 87.4572 37.6326C86.9701 38.006 86.4669 38.3632 85.9473 38.7041C85.6226 38.9152 85.2979 39.11 84.9732 39.2886C84.8758 39.3373 84.7622 39.2236 84.8271 39.1262C85.3953 38.3956 85.9311 37.5839 86.4831 36.7397C87.5871 34.9863 88.5936 32.892 89.4866 30.4892C90.4282 27.9565 91.0127 25.6511 91.2237 23.6218C91.451 21.5761 91.3698 19.7903 90.9964 18.3129C90.6068 16.7868 89.9249 15.5854 88.967 14.7574C87.9767 13.8807 86.7429 13.4424 85.3304 13.4424C83.642 13.4424 82.0996 13.8807 80.7359 14.7574C79.8105 15.3581 78.9338 16.0238 78.1545 16.7543C78.0896 16.8193 78.0409 16.803 77.9922 16.7381C77.8136 16.4621 77.5863 16.2023 77.2941 15.9588C76.6284 15.4068 75.8329 15.0497 74.9237 14.8711C74.0146 14.6925 73.0892 14.7574 72.18 15.0497C71.2059 15.3744 70.4916 16.0238 70.037 16.9979C69.1603 18.8811 68.2349 21.0891 67.2933 23.5406C66.4003 25.846 65.5399 28.2325 64.7281 30.6515C64.1112 32.4699 63.1858 33.9472 61.8058 35.2947C61.4487 35.6357 61.1077 35.9604 60.7668 36.2364C60.1661 36.7397 59.7764 36.8371 59.5492 36.8371C59.3868 36.8371 59.1108 36.8371 59.0459 36.074C58.9809 35.2785 59.0946 34.2395 59.403 32.9894C59.7115 31.7068 60.1661 30.2781 60.7343 28.752C61.3188 27.2097 61.9032 25.7161 62.4715 24.3361C63.0559 22.9399 63.5754 21.706 64.03 20.6994C64.4846 19.6604 64.7768 19.0272 64.8742 18.735C65.2314 17.907 65.1015 17.079 64.4846 16.3647C63.9164 15.6991 63.1533 15.2445 62.1955 14.9847C61.2701 14.7412 60.2797 14.725 59.2894 14.9522C58.2179 15.1958 57.3574 15.8289 56.7405 16.8355C56.6106 17.0303 56.4807 17.2576 56.3509 17.5011C56.3021 17.5823 56.1723 17.5661 56.156 17.4687C56.0424 16.9167 55.8476 16.3972 55.5878 15.9101C55.1982 15.1795 54.6299 14.5951 53.8831 14.1405C53.1201 13.6859 52.1622 13.4586 51.0258 13.4586C48.347 13.4586 45.6195 14.6925 42.9245 17.144C40.2944 19.5468 38.1027 23.3782 36.4305 28.5247C35.6512 31.0087 35.1804 33.3141 35.0667 35.3597C34.9368 37.4378 35.1154 39.2236 35.57 40.6685C36.0408 42.1622 36.7876 43.3473 37.7942 44.1753C38.8332 45.0358 40.0833 45.4741 41.4958 45.4741C42.5511 45.4741 43.5414 45.2955 44.4668 44.9384C45.3597 44.5974 46.204 44.1428 46.9345 43.6071C47.5028 43.2012 48.0385 42.7304 48.5256 42.2271C48.8665 41.8699 49.4834 42.0161 49.6133 42.4869C49.7757 43.0226 49.9867 43.5097 50.2789 43.9156C50.9771 44.9384 52.0973 45.4579 53.5747 45.4579C55.2306 45.4579 56.8866 44.841 58.5263 43.6233C59.2894 43.0551 60.0362 42.4382 60.7505 41.7725C60.9129 41.6264 61.1727 41.7888 61.1077 41.9998C60.6856 43.396 60.3122 44.6948 59.9713 45.9125C59.403 47.9581 58.9322 49.7277 58.5751 51.1564C58.1042 53.0721 58.0555 53.5916 58.0555 53.8352C58.0555 55.0203 58.4289 56.0107 59.1433 56.8224C59.8414 57.6017 60.6531 58.1537 61.5461 58.4622C62.1305 58.6732 62.715 58.7706 63.267 58.7706C63.5754 58.7706 63.8677 58.7381 64.1599 58.6732C64.8093 58.5271 65.6211 58.105 65.8646 56.8874V56.8711C65.962 56.2217 66.1406 55.3613 66.4003 54.2897C66.6763 53.1695 67.001 51.9032 67.3744 50.5232C67.7478 49.1432 68.17 47.6009 68.6895 45.8313C68.9168 45.0033 69.1765 44.1428 69.4363 43.2499C69.485 43.0713 69.7448 43.0389 69.8259 43.2012C69.9396 43.4123 70.0695 43.6071 70.2156 43.8019C71.0436 44.9059 72.3424 45.4579 74.112 45.4579C74.4692 45.4741 74.8263 45.4741 75.1673 45.4741C77.7486 45.4741 80.1839 45.0358 82.3919 44.1591C84.5024 43.3149 86.4344 42.3083 88.1553 41.1231C88.3176 41.0095 88.5449 41.1718 88.48 41.3667C87.9929 42.9902 87.5384 44.5163 87.1487 45.9125C86.5643 47.9743 86.1097 49.7439 85.7525 51.1564C85.2817 53.0884 85.233 53.6079 85.233 53.8352C85.233 55.0041 85.6064 56.0107 86.3207 56.8224C87.0188 57.6017 87.8306 58.1537 88.7235 58.4622C89.308 58.6732 89.8925 58.7706 90.4444 58.7706C90.7529 58.7706 91.0451 58.7381 91.3374 58.6732C91.9868 58.5271 92.7985 58.105 93.042 56.8874V56.8711C93.1395 56.2217 93.318 55.3613 93.5778 54.2897C93.8538 53.1695 94.1785 51.9032 94.5519 50.5232C94.9253 49.1432 95.3637 47.6009 95.8669 45.8313C96.0942 45.0033 96.354 44.1428 96.6138 43.2499C96.6625 43.0713 96.9222 43.0389 97.0034 43.2012C97.117 43.4123 97.2469 43.6071 97.393 43.8019C98.2048 44.9059 99.5198 45.4579 101.289 45.4579C101.647 45.4741 102.004 45.4741 102.345 45.4741C104.926 45.4741 107.361 45.0358 109.569 44.1591C112.037 43.185 114.277 41.9511 116.209 40.49C116.534 40.2464 116.859 39.9867 117.167 39.7432C117.313 39.6295 117.524 39.7269 117.524 39.9217C117.524 40.0029 117.524 40.0841 117.524 40.1653C117.524 41.7076 117.849 42.9739 118.482 43.9156C119.18 44.9384 120.301 45.4579 121.778 45.4579C123.418 45.4579 125.106 44.841 126.762 43.6233C128.337 42.4706 129.831 41.1069 131.194 39.5646C132.542 38.0385 133.711 36.5286 134.701 35.0675C135.691 33.5901 136.373 32.5673 136.747 31.9666C137.007 31.5445 137.023 31.0087 136.731 30.5541ZM52.7142 22.6477C52.6006 23.7354 52.3733 24.9693 52.0323 26.333C51.6914 27.6805 51.2368 29.1092 50.6686 30.5704C50.1004 32.0315 49.4997 33.3952 48.8665 34.6291C48.2496 35.8467 47.6326 36.8858 47.0157 37.7138C46.415 38.5255 45.863 39.1262 45.3435 39.4996C44.9701 39.7756 44.759 39.8081 44.6941 39.8081C44.6616 39.8081 44.6292 39.8081 44.5967 39.7919C44.5317 39.7594 44.2882 39.597 44.1746 38.8665C44.0609 38.1846 44.0447 37.3079 44.1421 36.2689C44.2395 35.1973 44.4506 33.9797 44.7915 32.6322C45.1162 31.2847 45.587 29.856 46.1552 28.3949C46.7397 26.9175 47.3404 25.5537 47.9573 24.3361C48.5743 23.1185 49.1912 22.0794 49.8081 21.219C50.4088 20.391 50.9608 19.7903 51.4641 19.4006C51.8375 19.1246 52.0486 19.0922 52.1297 19.0922C52.1622 19.0922 52.1947 19.0922 52.2109 19.1084C52.2759 19.1409 52.5356 19.3032 52.6817 20.05C52.8278 20.7157 52.8441 21.5924 52.7142 22.6477ZM82.1321 22.7126C81.9373 23.7841 81.6451 25.018 81.2392 26.3655C80.8333 27.7292 80.3138 29.1579 79.6968 30.6028C79.0312 32.064 78.3331 33.444 77.635 34.6778C76.9531 35.8954 76.255 36.9507 75.6056 37.7949C74.9562 38.6229 74.3717 39.2399 73.836 39.6133C73.4301 39.9055 73.2191 39.938 73.1379 39.938C73.1054 39.938 73.0729 39.938 73.0405 39.9217C72.9755 39.8893 72.7482 39.7432 72.6508 39.0126C72.5534 38.3469 72.6021 37.4702 72.797 36.3987C72.9918 35.311 73.284 34.0609 73.6899 32.7134C74.0958 31.3659 74.6153 29.9372 75.2322 28.4598C75.8491 26.9986 76.531 25.6349 77.2454 24.4173C77.9597 23.1834 78.6578 22.1444 79.3072 21.3326C79.9566 20.5209 80.5411 19.9202 81.0768 19.5305C81.4827 19.2383 81.6938 19.2058 81.7749 19.2058C81.8074 19.2058 81.8399 19.2058 81.8723 19.2221C81.9373 19.2545 82.1646 19.4006 82.262 20.1312C82.3594 20.8131 82.3107 21.6735 82.1321 22.7126ZM109.326 22.7126C109.131 23.7841 108.839 25.018 108.433 26.3655C108.027 27.7292 107.507 29.1579 106.891 30.6028C106.225 32.064 105.527 33.444 104.829 34.6778C104.147 35.8954 103.449 36.9507 102.799 37.7949C102.15 38.6229 101.565 39.2399 101.03 39.6133C100.624 39.9055 100.413 39.938 100.332 39.938C100.299 39.938 100.267 39.938 100.234 39.9217C100.169 39.8893 99.9419 39.7432 99.8445 39.0126C99.7471 38.3469 99.7958 37.4702 99.9906 36.3987C100.185 35.311 100.478 34.0609 100.884 32.7134C101.289 31.3659 101.809 29.9372 102.426 28.4598C103.043 26.9986 103.725 25.6349 104.439 24.4173C105.153 23.1834 105.851 22.1444 106.501 21.3326C107.134 20.5209 107.735 19.9202 108.271 19.5468C108.676 19.2545 108.887 19.2221 108.969 19.2221C109.001 19.2221 109.034 19.2221 109.066 19.2383C109.131 19.2708 109.358 19.4169 109.456 20.1475C109.553 20.8131 109.504 21.6735 109.326 22.7126Z" fill="#3822E4"/>
<path d="M136.763 78.3823C129.506 84.7464 123.061 85.1361 115.316 79.4376C111.761 76.8237 108.579 73.7066 105.007 71.109C102.247 69.0958 99.3249 67.0989 96.1753 65.8488C90.7203 63.6896 85.2004 64.4201 80.2162 67.4561C76.8394 69.5179 73.7547 72.0668 70.6213 74.5021C70.183 74.843 69.8583 75.0216 69.5173 75.0054C69.1764 75.0216 68.8517 74.8268 68.4134 74.5021C65.28 72.0668 62.1953 69.5017 58.8185 67.4561C53.8505 64.4364 48.3144 63.7058 42.8594 65.8488C39.7098 67.0989 36.7875 69.0958 34.0276 71.109C30.4558 73.7066 27.2738 76.8237 23.7183 79.4376C15.9904 85.1361 9.54511 84.7302 2.27182 78.3823C1.67112 77.8628 1.07042 77.327 0.469727 76.8075C1.60618 82.7982 3.92779 88.1558 7.36962 93.0263C11.7693 99.2443 17.5165 103.693 24.7573 106.144C41.658 111.859 63.0071 103.888 69.5498 88.8701C76.0763 103.888 97.4254 111.859 114.326 106.144C121.551 103.693 127.314 99.2443 131.714 93.0263C135.156 88.1558 137.493 82.7982 138.565 76.8075C137.964 77.327 137.364 77.8628 136.763 78.3823Z" fill="#3822E4"/>
</svg>
