<svg width="141" height="39" viewBox="0 0 141 39" fill="none" xmlns="http://www.w3.org/2000/svg">
<path d="M97.0008 21.2814C96.917 21.1809 96.8723 21.0413 96.8723 20.9017C96.8723 20.7286 96.9337 20.5443 97.0566 20.4047C97.0566 20.4047 101.615 15.9373 102.045 15.5129H98.0286C97.9504 15.5911 96.0622 17.4506 96.0622 17.4506L95.2801 18.1822C95.1349 18.3218 94.945 18.5172 94.6657 18.2771L93.9339 17.4953L93.9059 15.8144V10.7998V10.3196H90.8949V10.7998C90.8949 12.168 90.8949 15.9596 90.8949 15.9596V18.7853L90.9284 22.8506C90.9284 22.8506 90.9396 27.7367 90.9396 27.9936H93.9562V24.7995L93.9339 22.6439C93.9395 22.6328 93.9395 22.5043 94.0512 22.5043C94.1629 22.5099 94.2411 22.5937 94.3585 22.7445C94.8556 23.4201 95.4645 24.1126 95.7103 24.3918C95.7103 24.3918 98.6767 27.9043 98.7549 27.9992H102.799C101.805 26.8433 97.0008 21.2814 97.0008 21.2814Z" fill="#3822E4"/>
<path d="M122.502 24.6487L122.446 21.7393C122.446 21.7393 122.474 18.6066 122.474 18.5954C122.474 17.6014 122.145 16.7694 121.497 16.116C120.631 15.2393 119.184 14.72 117.637 14.72C116.1 14.72 114.335 15.217 113.073 15.9597V17.9867V18.9081C113.073 18.9081 113.475 18.668 114.005 18.4111C114.581 18.1431 115.357 17.8304 116.218 17.6684C116.542 17.5958 116.86 17.5568 117.162 17.5568C119.195 17.5568 119.586 18.1766 119.586 19.3325V19.9021C119.586 20.2595 119.245 20.2595 119.078 20.2595H119C117.313 20.2595 114.162 20.2595 112.659 21.7617C111.972 22.4485 111.704 23.1968 111.704 24.4253C111.704 27.2286 113.335 28.5912 116.693 28.5912C117.793 28.5912 118.804 28.2505 119.547 28.0048L119.653 27.9657C119.653 27.9657 122.324 27.9825 122.569 27.9881C122.564 27.7424 122.502 24.6487 122.502 24.6487ZM119.659 23.9507C119.67 24.4253 119.514 24.8442 119.201 25.168C118.743 25.6427 117.989 25.8828 116.966 25.8828C115.436 25.8828 114.721 25.3914 114.721 24.3304C114.721 23.1075 116.067 22.5825 119.229 22.5825C119.435 22.5825 119.659 22.7054 119.659 23.0405V23.9507Z" fill="#3822E4"/>
<path d="M80.4038 24.6487L80.348 21.7393C80.348 21.7393 80.3703 18.6066 80.3703 18.5954C80.3703 17.6014 80.0463 16.7694 79.3927 16.116C78.5213 15.2393 77.08 14.72 75.5326 14.72C73.9963 14.72 72.2366 15.217 70.9741 15.9597V17.9867H70.9686V18.9081C70.9686 18.9081 71.3708 18.668 71.8959 18.4111C72.4657 18.1431 73.2534 17.8304 74.1081 17.6684C74.4321 17.5958 74.7505 17.5568 75.0522 17.5568C77.0856 17.5568 77.471 18.1766 77.471 19.3325V19.9021C77.471 20.2595 77.1303 20.2595 76.9683 20.2595H76.8901C75.1974 20.2595 72.0524 20.2595 70.5496 21.7617C69.8625 22.4485 69.5943 23.1968 69.5943 24.4253C69.5943 27.2286 71.2256 28.5912 74.5773 28.5912C75.6778 28.5912 76.6946 28.2505 77.4319 28.0048L77.5436 27.9657C77.5436 27.9657 80.2084 27.9825 80.4597 27.9881C80.4597 27.7424 80.4038 24.6487 80.4038 24.6487ZM77.5548 23.9507C77.566 24.4253 77.4096 24.8442 77.0968 25.168C76.6387 25.6427 75.8845 25.8828 74.8623 25.8828C73.3316 25.8828 72.6165 25.3914 72.6165 24.3304C72.6165 23.1075 73.9628 22.5825 77.1247 22.5825C77.3369 22.5825 77.5604 22.7054 77.5604 23.0405V23.9507H77.5548Z" fill="#3822E4"/>
<path d="M112.084 15.9932C112.084 15.9876 112.089 15.9821 112.089 15.9765C111.218 15.3064 109.983 14.949 109.184 14.949C108.207 14.949 107.419 15.1333 106.743 15.513H103.498V15.7699C103.492 16.0211 103.436 20.9408 103.436 20.9408L103.403 22.9679V22.9847V22.9902C103.403 22.9902 103.447 27.7759 103.453 28.0272H106.419V27.9993C106.414 27.7424 106.369 23.0238 106.369 22.9679C106.369 21.4602 106.391 21.248 106.391 21.2536C106.414 18.9752 106.794 17.8919 108.861 17.8919C109.486 17.8919 109.961 18.1376 110.654 18.629C110.777 18.4 111.983 16.1998 112.089 16.01C112.084 15.9988 112.084 15.9988 112.084 15.9932C112.084 15.9932 112.078 15.9932 112.084 15.9932Z" fill="#3822E4"/>
<path d="M68.9407 18.104V15.5241H65.8849V15.189H65.8793V12.8269H64.0806C64.0247 12.933 63.846 13.2681 63.846 13.2681C63.1533 14.5748 62.8516 15.122 61.1813 16.0267V18.0984H62.7622H62.8963L62.8404 22.7277L62.8348 23.3364C62.8181 24.9167 62.8013 26.5529 63.7286 27.4855C64.2593 28.0216 65.0526 28.284 66.1587 28.284C66.8011 28.284 67.4379 28.2393 68.2815 28.0495V25.0675C67.2424 25.235 66.8067 25.2574 66.6224 25.2462H66.6056C65.9799 25.2462 65.9017 24.5761 65.9017 23.9953L65.8961 23.3811L65.9017 18.0649C65.9073 18.0761 68.6893 18.0984 68.9407 18.104Z" fill="#3822E4"/>
<path d="M140.775 18.104V15.5241H137.725V15.189H137.719V12.8269H135.921C135.865 12.933 135.686 13.2681 135.686 13.2681C134.993 14.5748 134.692 15.122 133.016 16.0267V18.0984H134.597H134.731L134.68 22.7277L134.675 23.3364C134.658 24.9167 134.641 26.5529 135.569 27.4855C136.099 28.0216 136.893 28.284 138.004 28.284C138.647 28.284 139.284 28.2393 140.121 28.0495V25.0675C139.088 25.235 138.647 25.2574 138.462 25.2462H138.446C137.82 25.2462 137.742 24.5761 137.742 23.9953L137.736 23.3811L137.742 18.0649C137.742 18.0761 140.524 18.0984 140.775 18.104Z" fill="#3822E4"/>
<path d="M89.3252 18.104V15.5241H86.2694V15.189H86.2639V12.8269H84.4651C84.4092 12.933 84.2305 13.2681 84.2305 13.2681C83.5378 14.5748 83.2361 15.122 81.5658 16.0267V18.0984H83.1467H83.2808L83.2305 22.7277L83.2249 23.3364C83.2082 24.9167 83.1914 26.5529 84.1187 27.4855C84.6494 28.0216 85.4482 28.284 86.5487 28.284C87.1967 28.284 87.8336 28.2393 88.6716 28.0495V25.0675C87.6381 25.235 87.1968 25.2574 87.0124 25.2462H87.0013C86.3756 25.2462 86.2974 24.5761 86.2974 23.9953L86.2918 23.3811L86.2974 18.0649C86.2918 18.0761 89.0794 18.0984 89.3252 18.104Z" fill="#3822E4"/>
<path d="M128.457 18.104H131.67V15.6861V15.5409H128.457V13.9159C128.457 13.3016 128.614 12.8884 129.362 12.8884C129.468 12.8884 129.575 12.8939 129.692 12.9051C130.072 12.9219 130.67 12.9945 131.552 13.1843V10.3866C130.77 10.2247 129.86 10.1298 129.29 10.1298C126.653 10.1298 125.424 11.2634 125.424 13.6981V15.5464H123.837V15.647V18.1096H125.424V18.5619H125.43V19.0701L125.463 22.8618C125.463 22.8618 125.458 27.748 125.458 28.0048H128.497C128.497 27.748 128.485 22.7557 128.485 22.7557L128.497 20.0362L128.469 18.6736V18.104H128.457Z" fill="#3822E4"/>
<path d="M59.4328 19.2488C58.0865 17.8974 56.4609 17.3948 54.7459 16.8643C53.4778 16.4567 53.4051 16.4343 53.3884 16.4343C53.3884 16.4287 53.2655 16.3897 53.2655 16.3897C52.6454 16.183 51.7963 15.9038 51.7963 14.9322C51.7963 14.0387 52.6007 13.564 54.1202 13.564C54.5895 13.564 55.0978 13.6422 55.6173 13.7707C55.9302 13.8265 56.3715 13.927 56.9358 14.1057C57.1536 14.1727 57.3882 14.2565 57.6508 14.3458C57.7904 14.3961 57.9301 14.4519 58.0809 14.5134C58.2206 14.5636 58.3602 14.6251 58.5055 14.6865C58.539 14.6976 58.567 14.7144 58.6005 14.7256C58.6396 14.7423 58.6675 14.7535 58.6954 14.7647C58.796 14.8037 58.8909 14.8484 58.9915 14.8931V11.5035C57.5111 10.7552 55.9246 10.3699 54.2655 10.3699C51.45 10.3699 48.4333 11.5593 48.4333 14.9043C48.4333 16.4678 48.8691 17.5959 49.8411 18.5619C50.8578 19.5783 52.3717 20.0585 53.8353 20.5331L55.0196 20.924C56.6788 21.5104 57.5223 22.0185 57.5223 23.1968C57.5223 24.7548 56.4497 25.5422 54.3325 25.5422C52.8968 25.5422 50.9919 24.7827 49.6902 23.6994L49.5897 23.6156L47.9865 26.9047L48.0591 26.955C49.7015 28.15 51.8075 28.781 54.1426 28.781C58.6284 28.781 60.997 26.7763 60.997 22.979C61.0025 21.6277 60.416 20.2316 59.4328 19.2488Z" fill="#3822E4"/>
<path d="M19.2839 0.240112C15.921 0.240112 12.8317 0.837625 8.95482 3.27793C12.815 2.41796 15.4461 1.7311 18.122 1.85954C21.4179 2.0159 23.3843 3.2165 23.3843 3.2165C23.3843 3.2165 19.351 2.71951 16.2841 3.20534C13.9043 3.57948 6.04994 5.66239 5.81532 5.88017C4.65895 6.94676 3.89363 7.97984 3.03334 9.3033C3.72046 9.24187 4.72599 8.91798 5.57511 8.72254C7.26776 8.33164 13.5691 7.0752 17.0159 6.85183C20.7364 6.60612 26.1272 7.22597 28.4511 9.55459C28.4511 9.55459 24.3842 8.38191 19.1107 9.19162C14.597 9.88406 8.00515 11.6989 5.25668 12.5421C4.17852 12.8772 2.68139 13.162 1.20101 13.3909C0.653552 14.9936 0.335142 16.3673 0.234589 18.1319C1.60882 18.4726 4.76511 17.9979 5.69802 17.7913C6.82646 17.5456 17.893 15.6693 20.5353 15.6693C23.1776 15.6693 28.3673 15.6302 30.9537 18.3497C30.9537 18.3497 27.8031 17.4618 24.5071 18.171C22.9933 18.4949 18.3175 19.1874 9.24532 22.1191C5.21759 23.4202 2.16186 23.772 0.642379 23.4146C1.02225 25.034 1.52502 26.6479 2.29035 28.083C3.46906 28.3734 5.78738 28.2729 7.9437 27.8373C11.0776 27.2007 19.0605 25.5199 23.5128 25.7656C27.4902 25.9889 28.6187 26.9941 28.6187 26.9941C28.6187 26.9941 24.8032 26.9941 21.6749 27.6977C19.1722 28.2617 10.4296 31.0036 8.06103 31.7407C7.44653 31.9305 5.83766 32.4275 4.73157 31.7686C5.88794 33.0027 6.86556 34.2647 8.30683 35.1582C10.3179 35.5435 13.1613 35.242 14.5356 35.013C16.2226 34.7338 20.3006 33.9464 21.7084 34.5049C21.7084 34.5049 18.5577 34.9125 16.7589 35.6161C15.4685 36.1243 12.7424 37.1574 11.5301 36.9005C12.9547 37.4422 15.4182 38.3356 16.9824 38.5199C16.9824 38.5199 17.8538 38.6484 19.2839 38.6484C20.7084 38.6484 21.5855 38.5199 21.5855 38.5199C31.099 37.3807 38.4729 29.278 38.4729 19.4498C38.4785 8.83981 29.8868 0.240112 19.2839 0.240112Z" fill="#3822E4"/>
<path d="M19.418 38.8215C8.70907 38.8215 0 30.1157 0 19.4107C0 8.70579 8.70907 0 19.418 0C30.127 0 38.8361 8.70579 38.8361 19.4107C38.8361 30.1157 30.1214 38.8215 19.418 38.8215ZM19.418 0.485824C8.97722 0.485824 0.480415 8.97384 0.480415 19.4163C0.480415 29.8588 8.97163 38.3468 19.418 38.3468C29.8589 38.3468 38.3557 29.8532 38.3557 19.4163C38.3557 8.97942 29.8589 0.485824 19.418 0.485824Z" fill="#3822E4"/>
</svg>
