<svg width="197" height="55" viewBox="0 0 197 55" fill="none" xmlns="http://www.w3.org/2000/svg">
<path d="M139.93 32.2371L142.044 19.7974L135.213 32.2371H139.93Z" fill="#24FE7C"/>
<path d="M166.647 43.062C166.647 42.822 166.416 42.7759 166.213 42.7759H165.798V43.3757H166.158C166.416 43.3757 166.647 43.3573 166.647 43.062Z" fill="#24FE7C"/>
<path d="M80.8934 16.8904L79.3056 17.2042L77.21 23.4148H78.5116C79.961 23.4148 82.5275 22.6119 83.4783 20.3141C83.6999 19.7788 83.7922 19.3174 83.7922 18.9391C83.8015 17.2318 81.9736 16.8904 80.8934 16.8904Z" fill="#24FE7C"/>
<path d="M75.4742 29.93L73.3232 36.1038L75.8897 36.113C77.9022 36.113 79.7024 35.3655 80.2194 33.1968C80.7179 31.0005 78.7423 29.7823 75.4742 29.93Z" fill="#24FE7C"/>
<path d="M164.755 43.4957C164.755 44.3078 165.373 44.8984 166.167 44.8984C166.952 44.8984 167.571 44.2986 167.571 43.4957C167.571 42.6929 166.952 42.093 166.167 42.093C165.364 42.093 164.755 42.6929 164.755 43.4957ZM166.961 43.0805C166.961 43.4311 166.74 43.5788 166.444 43.6157L167.007 44.4739H166.666L166.14 43.6342H165.798V44.4739H165.493V42.5267H166.25C166.73 42.5175 166.961 42.6929 166.961 43.0805Z" fill="#24FE7C"/>
<path d="M196.226 18.5146L184.696 0.353292C184.363 -0.172722 183.726 -0.0988866 183.532 0.491725L181.197 7.60674C180.883 7.59752 180.56 7.60674 180.218 7.61597C178.344 7.67134 175.528 7.92051 173.304 9.01867C170.432 10.4398 168.171 12.2394 165.336 15.174L164.469 8.35424C164.423 8.06816 164.118 7.80055 163.822 7.80055L92.7747 7.76362C92.47 7.76362 92.1654 8.02202 92.1285 8.31733L91.9715 9.66465C89.7467 8.19735 86.8294 7.64367 84.1614 7.64367L44.2155 7.74518C43.9847 7.74518 43.6708 7.95742 43.597 8.17889L42.9046 9.69234C40.7074 8.52957 37.3748 7.5237 34.8453 7.41296C22.3639 6.86849 17.6741 15.9214 16.7879 19.5851C16.2155 21.9568 16.4186 25.6389 17.2772 27.8352C17.3233 27.9644 17.3787 28.1028 17.4433 28.2412L0.401473 35.0517C0.0229699 35.1994 -0.115507 35.6147 0.106056 35.9561L11.812 54.4404C12.1535 54.9664 12.7813 54.8926 12.9752 54.302L14.9969 48.2113C16.6125 48.5528 18.3111 48.7373 20.0467 48.7373C25.6227 48.7373 31.1618 46.744 34.7806 43.3111C36.3039 46.6148 39.812 48.7742 45.7757 48.7742C50.8162 48.7742 54.5828 47.2885 57.3985 45.2029L56.7707 47.2977C56.623 47.7407 56.9092 48.3959 57.38 48.3959H74.4681C77.9577 48.3959 83.8014 47.3438 88.0665 43.7725L87.6326 47.39C87.5864 47.7683 87.8818 48.0267 88.2696 48.0267L129.97 47.9437C130.145 47.9437 130.459 47.7407 130.542 47.593L133.367 42.5174H134.419L133.293 47.0209C133.191 47.4454 133.478 48.1283 133.921 48.1283L164.533 48.3959H166.158C168.54 48.3959 170.479 46.1811 170.479 43.8463C170.479 41.5208 168.503 39.4721 166.121 39.4721L166.14 39.3244L166.315 38.7708C166.961 36.8974 169.398 31.9326 171.309 29.4871C172.75 27.6599 174.181 26.0264 175.538 24.7068L174.965 26.5063C174.781 27.0969 175.233 27.503 175.824 27.2723L195.866 19.419C196.3 19.2898 196.448 18.8653 196.226 18.5146ZM32.2788 26.8662C34.2083 29.0626 35.7407 31.3512 35.7407 34.0828C35.7407 40.4503 28.7246 45.6089 20.0744 45.6089C17.4895 45.6089 15.0523 45.1475 12.9198 44.3354L11.6458 48.1744L4.47269 36.842L17.0925 31.8034L15.6801 36.0392C17.2218 36.962 19.0866 37.2573 20.7668 37.1466C22.2808 37.0635 24.0348 36.4175 24.5703 35.1809C24.9303 34.3412 24.4595 32.5601 23.2686 31.3604C21.9023 29.9669 20.8776 28.149 20.3144 26.7278C19.7051 25.159 19.5113 22.1229 19.9452 20.3141C20.6283 17.481 24.3764 10.1076 34.716 10.5598C36.9778 10.6521 40.292 11.741 41.926 12.7746L38.0856 19.8896C33.7097 17.3795 31.0879 18.2931 30.0817 20.6094C29.1123 22.8981 30.7648 25.1498 32.2788 26.8662ZM45.8126 45.6458C34.9099 45.6458 36.8116 37.6633 38.2241 33.5752L45.8495 11.6487H55.2752L47.9451 32.717C47.6313 33.6121 47.1881 34.6549 47.1512 35.5593C47.1051 36.5006 47.4559 37.165 48.7575 37.165C50.0962 37.165 50.9455 36.4083 51.4809 35.5132C52.081 34.5719 52.441 33.6398 52.7364 32.7816L60.0757 11.6487H69.5014L61.8759 33.5752C60.4634 37.6633 56.7061 45.6458 45.8126 45.6458ZM89.3497 35.1994C86.9587 42.176 79.2778 43.994 74.505 43.994H61.0081L72.6402 10.1722H84.1799C89.4697 10.1722 93.984 11.9256 91.833 19.299C91.076 21.9014 88.4173 25.1221 85.7031 26.0634C88.2234 27.3738 90.7345 31.1574 89.3497 35.1994ZM106.678 45.4705C106.678 45.4705 109.983 26.5709 110.463 24.2362L100.345 45.4705H91.1961L95.0919 10.1722H104.379L100.243 31.3604C101.388 28.8411 110.767 10.1722 110.767 10.1722H118.845C118.845 10.1722 115.559 28.7488 115.079 31.222L125.271 10.1722H134.465L115.78 45.4705H106.678ZM137.226 45.4705L138.537 39.5828H131.502L128.483 45.4705H119.741L138.454 10.1722H151.323L147.187 45.4705H137.226ZM167.912 43.4956C167.912 44.4738 167.1 45.1844 166.158 45.1844C165.207 45.1844 164.395 44.4738 164.395 43.4956C164.395 42.5267 165.207 41.8069 166.158 41.8069C167.109 41.8069 167.912 42.5174 167.912 43.4956ZM179.701 22.3997L181.021 18.2193C177.199 18.0809 172.593 22.7596 168.798 27.5676C166.62 30.3361 164.026 35.9469 163.296 38.0602C163.084 38.6785 160.785 45.4705 160.785 45.4705H150.307L155.597 30.0961L152.578 10.1722H161.459L163.112 22.815C163.112 22.815 165.733 19.2067 167.229 17.6379C170.183 14.5464 172.223 12.9961 174.771 11.741C177.892 10.2091 183.532 10.8182 183.532 10.8182L184.908 6.64701L191.869 17.6287L179.701 22.3997Z" fill="#24FE7C"/>
<path d="M83.7924 18.9299C83.7924 19.3175 83.6908 19.7697 83.4785 20.3049C83.7093 19.7512 83.8016 19.2991 83.7924 18.9299Z" fill="#24FE7C"/>
</svg>
