<svg width="19" height="20" viewBox="0 0 19 20" fill="none" xmlns="http://www.w3.org/2000/svg">
<path d="M3.46929 0C1.54745 0 0 1.6289 0 3.65187V16.3481C0 18.3711 1.54745 20 3.46929 20H10.0065V12.1812H8.04236V9.36624H10.0065V6.96125C10.0065 5.07175 11.167 3.33687 13.8403 3.33687C14.9227 3.33687 15.7231 3.44625 15.7231 3.44625L15.6602 6.07501C15.6602 6.07501 14.8439 6.06689 13.9531 6.06689C12.9891 6.06689 12.8345 6.53445 12.8345 7.31065V9.36626H15.7367L15.6103 12.1813H12.8345V20H15.5307C17.4525 20 19 18.3711 19 16.3481V3.65189C19 1.62892 17.4525 2e-05 15.5307 2e-05H3.46927L3.46929 0Z" fill="#3822E4"/>
</svg>
