<svg width="97" height="66" viewBox="0 0 97 66" fill="none" xmlns="http://www.w3.org/2000/svg">
<path d="M14.6194 33.4104C14.6194 33.3099 14.7199 33.215 14.8875 33.215C15.4238 33.215 17.608 34.9293 17.608 36.1355C17.608 37.3584 15.083 41.4796 13.1222 44.0818C11.2787 46.5333 8.36267 49.5488 7.50238 49.5488C7.21189 49.5488 7.06106 49.3533 6.77058 48.5939C6.30691 47.4882 5.64216 45.6733 5.22319 44.5453C4.83215 43.5625 2.06132 36.4985 1.32392 35.6162C1.0055 35.2532 0.787664 35.1527 0.513935 35.0745C0.122893 34.9516 -3.05176e-05 34.9014 -3.05176e-05 34.6557C-3.05176e-05 34.2871 0.614486 34.2871 0.860283 34.2871C1.1787 34.2871 3.84895 34.4323 4.34054 35.0242C4.58634 35.3425 4.83214 35.9791 5.00532 36.4482C6.17844 39.5865 7.53034 43.166 8.68112 45.7906C8.82636 46.1089 9.19504 46.9689 9.46318 46.9689C10.2732 46.9689 15.0551 39.983 15.0551 35.3928C15.0551 35.0019 15.0327 34.6836 14.7143 33.751L14.6194 33.4104Z" fill="#24FE7C"/>
<path d="M22.3452 38.4418C22.3452 38.6875 22.2279 38.7601 22.0771 38.7601C21.9598 38.7601 20.8034 38.4865 20.3118 38.2687C19.9934 38.1235 19.9934 37.8555 19.9934 37.66V36.5823C19.9934 36.4092 19.9431 35.7279 19.9431 35.5771C19.9431 35.404 19.9655 35.2867 20.1666 35.2867C20.3118 35.2867 22.105 35.605 22.3005 36.0183C22.3285 36.0909 22.3285 36.8056 22.3285 37.1965L22.3452 38.4418ZM22.2726 48.862C22.2446 49.1524 22.1217 49.2026 21.8536 49.2026C21.4402 49.2026 20.3341 48.9123 20.0157 48.6889C19.8425 48.566 19.7923 48.3929 19.7923 48.1249C19.7923 47.5329 19.8928 44.8637 19.8928 44.322C19.8928 43.49 19.8928 41.8705 19.5521 41.2563C19.4012 41.0385 19.351 40.9156 19.351 40.7425C19.351 40.642 19.3509 40.5248 19.7196 40.5248C20.3788 40.5248 21.2168 40.7705 21.8257 41.0162C22.3396 41.2116 22.4904 41.3847 22.4904 41.8203C22.4904 41.9431 22.3396 44.2997 22.3173 44.618C22.267 45.9917 22.2446 46.5278 22.2446 47.4157L22.2726 48.862Z" fill="#24FE7C"/>
<path d="M27.0322 44.0762C26.3674 42.4623 25.9764 41.7978 25.4624 41.5019C25.0434 41.2562 24.9987 41.2338 24.9987 41.0607C24.9987 40.7703 25.3172 40.7424 25.5127 40.7424C25.5127 40.7424 28.1885 40.8429 28.7025 41.4795C29.0432 41.9207 30.8141 47.7059 31.3783 47.7059C32.0655 47.7059 35.082 44.2214 35.082 40.5693C35.082 39.7093 35.0821 39.6591 35.2776 39.6591C35.5681 39.6591 36.0596 40.2231 36.4786 40.6866C36.6015 40.8373 37.1657 41.4739 37.0931 42.0379C36.9702 43.1157 35.0094 45.5728 33.6352 46.8236C31.9872 48.3425 30.0991 49.5208 29.5125 49.5208C29.3393 49.5208 29.1438 49.5208 28.5796 48.0745L27.0322 44.0762Z" fill="#24FE7C"/>
<path d="M47.2994 42.5574C46.9307 42.1665 45.8022 41.7253 44.7743 41.7253C42.227 41.7253 40.9701 43.9311 40.9701 45.7962C40.9701 46.0196 40.97 46.7288 41.4393 47.2425C41.9309 47.7786 42.6907 47.9517 43.3498 47.9517C44.8972 47.9517 46.048 47.2146 46.4167 46.9968C47.791 46.1145 47.7909 45.6733 47.7909 45.3997C47.7909 45.1819 47.7183 44.7408 47.6904 44.5174C47.5396 43.395 47.467 42.7584 47.2994 42.5574ZM49.8244 41.2786C49.9919 41.2786 50.0199 41.4014 50.0199 41.6527C50.0199 41.8705 50.0646 44.0037 50.4612 46.215C50.7293 47.706 50.8802 47.8065 51.2489 47.8065C51.4164 47.8065 51.612 47.8791 51.612 48.0746C51.612 48.4431 49.6512 49.5209 48.9362 49.5209C48.5675 49.5209 48.4445 49.4483 47.9809 46.7734C46.1877 48.2421 44.0816 49.1802 41.7466 49.1802C38.5121 49.1802 38.0708 47.4826 38.0708 46.7008C38.0708 43.9032 42.4839 40.6196 45.2827 40.6196C46.6793 40.6196 47.4669 41.5243 47.8077 41.9431C48.0814 41.8482 49.6735 41.2786 49.8244 41.2786Z" fill="#24FE7C"/>
<path d="M62.4047 40.7704C63.5555 40.7704 63.6561 41.2841 64.1924 44.1767C64.3153 44.9138 64.7566 47.2927 65.0973 47.6836C65.2705 47.879 65.4437 47.907 65.7118 47.9572C65.8347 47.9796 65.885 48.1024 65.885 48.175C65.885 48.6664 63.4829 49.5487 63.2371 49.5487C62.7232 49.5487 62.6952 49.331 62.1589 46.7566C61.7456 44.8189 61.55 43.9366 61.3545 43.3726C61.2316 43.0264 61.1087 42.736 60.6394 42.736C59.8574 42.736 57.472 45.2824 56.4721 48.376C56.2766 48.9624 56.2263 49.0852 55.9302 49.0852C55.7849 49.0852 55.0978 48.9903 54.6062 48.7893C54.3102 48.672 54.2096 48.5715 54.2096 48.2253C54.2096 48.2253 54.2599 46.9465 54.2823 46.5835C54.3325 45.6789 54.3828 44.5955 54.3828 43.6183C54.3828 42.5629 54.3102 41.9263 54.2599 41.6806C54.2375 41.5577 53.9638 41.0663 53.9638 40.9435C53.9638 40.6978 54.1593 40.6754 54.3325 40.6754C54.5504 40.6754 55.7291 40.7983 56.5112 41.1389C56.9302 41.3344 56.9525 41.6303 56.9525 42.0436C56.9525 42.7583 56.5614 45.8464 56.4888 46.4607C58.3602 42.4847 60.9579 40.7704 62.4047 40.7704Z" fill="#24FE7C"/>
<path d="M77.7894 42.9538C76.8565 41.971 75.1415 41.6527 74.136 41.6527C70.7004 41.6527 70.4323 45.0591 70.4323 45.4779C70.4323 47.8065 72.3483 47.8288 72.8623 47.8288C74.4823 47.8288 76.8398 46.8739 77.7671 46.1368C77.7894 44.9641 77.7894 44.7184 77.7894 42.9538ZM80.2195 37.9503C80.0966 39.3687 79.996 41.5298 79.996 44.0539C79.996 44.3722 80.0463 48.7111 80.1413 49.5711C80.1692 49.7666 80.1692 49.8894 80.1692 49.9397C80.1692 50.1351 80.0686 50.2356 79.8508 50.2356C79.4821 50.2356 78.6218 49.9676 78.0576 49.5488C77.6889 49.3031 77.6889 49.1076 77.6889 48.8172C77.6889 48.4487 77.7112 47.9349 77.7447 47.1978C76.4655 47.8344 73.6444 49.2305 70.8009 49.2305C68.1027 49.2305 67.5609 47.6836 67.5609 46.7287C67.5609 43.8584 71.5607 40.547 74.6499 40.547C76.2699 40.547 77.1303 41.2841 77.8118 41.9486C77.7894 39.2291 77.7894 36.2583 77.566 33.8571C77.5436 33.4886 77.5157 33.3154 77.4207 33.0977C77.4207 33.0697 77.2978 32.7794 77.2978 32.7068C77.2978 32.5616 77.4934 32.4387 77.7112 32.4387C78.376 32.4387 79.2586 32.8296 79.7 33.0251C80.1916 33.2708 80.482 33.4662 80.482 33.9576L80.2195 37.9503Z" fill="#24FE7C"/>
<path d="M92.2859 42.5574C91.9172 42.1665 90.7888 41.7253 89.7609 41.7253C87.2079 41.7253 85.9566 43.9311 85.9566 45.7962C85.9566 46.0196 85.9566 46.7288 86.4259 47.2425C86.9175 47.7786 87.6772 47.9517 88.3364 47.9517C89.8838 47.9517 91.0346 47.2146 91.4033 46.9968C92.7719 46.1145 92.7719 45.6733 92.7719 45.3997C92.7719 45.1819 92.6993 44.7408 92.6714 44.5174C92.5261 43.395 92.4591 42.7584 92.2859 42.5574ZM94.8109 41.2786C94.9841 41.2786 95.0064 41.4014 95.0064 41.6527C95.0064 41.8705 95.0567 44.0037 95.4478 46.215C95.7215 47.706 95.8667 47.8065 96.2354 47.8065C96.4086 47.8065 96.6041 47.8791 96.6041 48.0746C96.6041 48.4431 94.6433 49.5209 93.9283 49.5209C93.5596 49.5209 93.4367 49.4483 92.973 46.7734C91.1798 48.2421 89.0738 49.1802 86.7443 49.1802C83.5042 49.1802 83.0629 47.4826 83.0629 46.7008C83.0629 43.9032 87.4761 40.6196 90.2748 40.6196C91.6714 40.6196 92.4591 41.5243 92.7998 41.9431C93.068 41.8482 94.6657 41.2786 94.8109 41.2786Z" fill="#24FE7C"/>
<path d="M53.165 0C53.165 0 49.6177 2.41797 47.6066 5.62331C48.6457 6.39951 49.5283 7.29856 50.059 8.31489C51.5059 11.0791 50.4724 13.4747 49.5283 14.854C50.4724 14.491 51.4109 13.8433 52.2097 12.7488C55.0923 8.77838 53.165 0 53.165 0Z" fill="#24FE7C"/>
<path d="M47.897 16.5628C47.897 16.5628 51.7739 13.123 49.4947 8.76728C47.2155 4.40601 38.5009 2.22815 38.5009 2.22815C38.5009 2.22815 39.3221 8.23119 42.3219 11.3807C43.6012 12.7209 45.6178 13.9941 46.1038 14.4799C46.5898 14.9657 46.2491 13.3687 45.3776 11.3304C44.7352 9.83945 43.8246 8.42663 43.8246 8.42663C43.8246 8.42663 47.2658 11.0903 47.6512 15.0607C47.7685 16.2222 47.897 16.5628 47.897 16.5628Z" fill="#24FE7C"/>
<path d="M51.0701 14.3571C55.7068 15.4516 59.1256 19.2321 59.1256 23.7274C59.1256 29.0826 54.2823 33.4216 48.2993 33.4216C42.322 33.4216 37.4786 29.0826 37.4786 23.7274C37.4786 19.2321 40.8974 15.4516 45.5341 14.3571C39.5567 15.4571 35.0653 20.053 35.0653 25.559C35.0653 31.8803 40.9924 37.0122 48.2993 37.0122C55.6118 37.0122 61.5389 31.8859 61.5389 25.559C61.5389 20.053 57.0475 15.4627 51.0701 14.3571Z" fill="#24FE7C"/>
<path d="M26.25 55.6803C26.25 55.8031 26.1886 55.8366 26.1159 55.8366C26.0545 55.8366 25.4791 55.7026 25.2333 55.5909C25.0769 55.5183 25.0769 55.3843 25.0769 55.2838V54.7421C25.0769 54.6528 25.049 54.3121 25.049 54.2396C25.049 54.1558 25.0602 54.0944 25.1607 54.0944C25.2333 54.0944 26.1327 54.2507 26.2277 54.4629C26.2389 54.4964 26.2389 54.8538 26.2389 55.0493L26.25 55.6803ZM26.2165 60.9015C26.2053 61.0467 26.1383 61.0746 26.0042 61.0746C25.7919 61.0746 25.2445 60.9238 25.0825 60.8177C24.9987 60.7563 24.9708 60.667 24.9708 60.5329C24.9708 60.237 25.0211 58.8968 25.0211 58.6287C25.0211 58.2099 25.0211 57.4002 24.8479 57.0931C24.7753 56.9814 24.7473 56.92 24.7473 56.8362C24.7473 56.7859 24.7473 56.7301 24.9317 56.7301C25.2613 56.7301 25.6802 56.853 25.9875 56.9758C26.2444 57.0763 26.3226 57.1601 26.3226 57.3835C26.3226 57.4449 26.2444 58.6231 26.2333 58.7851C26.2109 59.4719 26.1998 59.7456 26.1998 60.1867L26.2165 60.9015Z" fill="#24FE7C"/>
<path d="M36.7523 56.6743C37.3277 56.6743 37.378 56.9312 37.6517 58.3831C37.7132 58.7517 37.931 59.9411 38.1042 60.1366C38.188 60.2371 38.2774 60.2426 38.4115 60.2706C38.4729 60.2817 38.4953 60.3432 38.4953 60.3823C38.4953 60.628 37.2886 61.0691 37.1713 61.0691C36.9088 61.0691 36.8976 60.9574 36.6294 59.6675C36.4227 58.6958 36.3222 58.2547 36.2272 57.9699C36.1658 57.7968 36.1043 57.6516 35.8697 57.6516C35.4787 57.6516 34.2832 58.9304 33.7804 60.4772C33.6799 60.7731 33.6575 60.8346 33.5123 60.8346C33.4396 60.8346 33.0933 60.7843 32.8475 60.6838C32.7022 60.6224 32.652 60.5721 32.652 60.4046C32.652 60.4046 32.6743 59.7624 32.6855 59.5781C32.7134 59.1258 32.7358 58.5841 32.7358 58.0927C32.7358 57.5622 32.6967 57.2439 32.6743 57.1211C32.6631 57.0597 32.5235 56.8139 32.5235 56.7469C32.5235 56.6241 32.624 56.6129 32.7078 56.6129C32.8195 56.6129 33.4117 56.6743 33.8028 56.8474C34.0094 56.9424 34.0262 57.0931 34.0262 57.2998C34.0262 57.6572 33.8307 59.204 33.7916 59.5111C34.7245 57.5343 36.0261 56.6743 36.7523 56.6743Z" fill="#24FE7C"/>
<path d="M19.1722 59.8908C19.6414 60.3822 20.5017 60.5442 21.0045 60.5442C22.7251 60.5442 22.8592 58.8354 22.8592 58.6288C22.8592 57.4617 21.8983 57.4505 21.6413 57.4505C20.8313 57.4505 19.647 57.9307 19.1834 58.2993C19.1722 58.8801 19.1722 59.0029 19.1722 59.8908ZM17.9544 62.3925C18.0158 61.6833 18.0661 60.6 18.0661 59.3324C18.0661 59.1704 18.0438 56.9982 17.9935 56.5682C17.9823 56.4677 17.9823 56.4063 17.9823 56.3839C17.9823 56.2834 18.0326 56.2332 18.1443 56.2332C18.3287 56.2332 18.7588 56.3672 19.0437 56.5794C19.2281 56.7022 19.2281 56.7972 19.2281 56.9479C19.2281 57.1322 19.2169 57.3891 19.2001 57.7632C19.837 57.4449 21.2503 56.7413 22.6804 56.7413C24.0323 56.7413 24.306 57.5119 24.306 57.9978C24.306 59.4329 22.3005 61.097 20.7531 61.097C19.9431 61.097 19.5129 60.7284 19.1666 60.3934C19.1778 61.7559 19.1778 63.2469 19.2895 64.4475C19.3007 64.6318 19.3119 64.7212 19.3621 64.8273C19.3621 64.8384 19.4236 64.9892 19.4236 65.0227C19.4236 65.0953 19.323 65.1567 19.2169 65.1567C18.8873 65.1567 18.4404 64.9613 18.2225 64.8608C17.9767 64.7379 17.8259 64.6374 17.8259 64.3973L17.9544 62.3925Z" fill="#24FE7C"/>
<path d="M48.2936 57.5846C48.1093 57.3891 47.5451 57.1657 47.0311 57.1657C45.7518 57.1657 45.1262 58.2714 45.1262 59.204C45.1262 59.3157 45.1262 59.6731 45.3608 59.9299C45.6066 60.198 45.9865 60.2873 46.3161 60.2873C47.0926 60.2873 47.668 59.9188 47.8523 59.8071C48.5394 59.3659 48.5394 59.1426 48.5394 59.0085C48.5394 58.8969 48.5003 58.6791 48.4891 58.5674C48.4165 58.0034 48.3774 57.6851 48.2936 57.5846ZM49.5561 56.948C49.6399 56.948 49.6511 57.0094 49.6511 57.1322C49.6511 57.2439 49.679 58.3105 49.8746 59.4162C50.0086 60.1645 50.0813 60.2147 50.2656 60.2147C50.3494 60.2147 50.4499 60.2482 50.4499 60.3487C50.4499 60.533 49.4668 61.0747 49.1092 61.0747C48.9249 61.0747 48.8634 61.0356 48.6288 59.6954C47.7294 60.4325 46.6736 60.9016 45.5061 60.9016C43.8804 60.9016 43.6626 60.0528 43.6626 59.6619C43.6626 58.2602 45.8747 56.6129 47.2769 56.6129C47.9752 56.6129 48.3718 57.0708 48.5394 57.2774C48.6847 57.2272 49.4835 56.948 49.5561 56.948Z" fill="#24FE7C"/>
<path d="M31.9034 59.701C31.9034 59.701 31.8755 59.5725 31.7805 59.6172C31.68 59.6619 31.5347 59.7289 31.2387 59.8908C30.937 60.0639 30.5124 60.3208 29.7359 60.4102C29.0209 60.4883 28.5404 60.0863 28.5181 59.5837C28.4958 59.0811 28.6801 58.9415 29.3393 58.7907C29.9985 58.64 31.652 58.5897 31.652 58.5897C31.7358 58.5841 31.7358 58.5729 31.7582 58.5394C31.8587 58.3719 31.9369 57.8805 31.8866 57.5008C31.842 57.1601 31.49 56.8362 30.775 56.7078C30.2108 56.6073 29.5851 56.7078 28.8589 57.0708C27.5796 57.7074 27.0042 58.6958 27.1215 59.5837C27.155 59.8182 27.3115 60.3376 27.736 60.5944C28.4623 61.0356 29.2276 61.0077 29.9426 60.8011C30.842 60.5386 31.1046 60.3878 31.3671 60.3878C31.5571 60.3878 31.5738 60.5218 31.6967 60.4772C31.8587 60.3096 31.8978 59.8964 31.8978 59.7568C31.909 59.7345 31.909 59.7177 31.9034 59.701ZM28.4846 58.0704C28.8644 57.3053 29.7974 57.0485 30.2387 57.0485C30.6688 57.0485 30.9593 57.3444 30.9817 57.646C31.004 57.9419 30.9593 57.9922 30.9593 57.9922C30.9538 58.0927 30.8643 58.1709 30.7526 58.182L28.7136 58.3552C28.6298 58.3607 28.5516 58.3328 28.5069 58.2714C28.4623 58.2156 28.4511 58.1374 28.4846 58.0704Z" fill="#24FE7C"/>
<path d="M65.3598 59.701C65.3598 59.701 65.3375 59.5725 65.2369 59.6172C65.1364 59.6619 64.9967 59.7289 64.7007 59.8908C64.3934 60.0639 63.9744 60.3208 63.1979 60.4102C62.4773 60.4883 61.9969 60.0863 61.9745 59.5837C61.9522 59.0811 62.1422 58.9415 62.8013 58.7907C63.4605 58.64 65.114 58.5897 65.114 58.5897C65.1978 58.5841 65.1978 58.5729 65.2202 58.5394C65.3207 58.3719 65.399 57.8805 65.3487 57.5008C65.304 57.1601 64.952 56.8362 64.237 56.7078C63.6728 56.6073 63.0471 56.7078 62.3209 57.0708C61.0416 57.7074 60.4663 58.6958 60.5892 59.5837C60.6227 59.8182 60.7791 60.3376 61.198 60.5944C61.9298 61.0356 62.6896 61.0077 63.4046 60.8011C64.304 60.5386 64.5666 60.3878 64.8291 60.3878C65.0191 60.3878 65.0358 60.5218 65.1587 60.4772C65.3207 60.3096 65.3654 59.8964 65.3654 59.7568C65.3654 59.7345 65.3598 59.7177 65.3598 59.701ZM61.941 58.0704C62.3209 57.3053 63.2538 57.0485 63.6951 57.0485C64.1253 57.0485 64.4158 57.3444 64.4437 57.646C64.4661 57.9419 64.4213 57.9922 64.4213 57.9922C64.4158 58.0927 64.3264 58.1709 64.2146 58.182L62.1756 58.3552C62.0974 58.3607 62.0136 58.3328 61.969 58.2714C61.9187 58.2156 61.9075 58.1374 61.941 58.0704Z" fill="#24FE7C"/>
<path d="M42.7464 60.2091C42.3163 60.4884 42.0705 60.5889 41.5845 60.7061C41.104 60.8234 40.5007 60.8681 39.8472 60.8402C38.6964 60.7899 38.674 60.5833 38.6629 60.4716V60.399C38.6629 60.399 38.7746 59.902 38.8416 59.7847C38.9143 59.6675 38.8919 59.8629 39.3165 60.0472C39.7466 60.2315 40.2605 60.332 40.6404 60.3376C41.0873 60.3487 41.59 60.3096 41.752 60.2482C42.1151 60.1142 42.3218 60.0304 42.361 59.7345C42.4056 59.3883 41.5789 59.2542 40.808 59.0811C39.7578 58.8298 39.4282 58.7349 39.2103 58.6065C38.9813 58.478 38.8807 58.344 38.864 58.1541C38.836 57.8303 39.1042 57.3724 39.903 57.0373C40.7074 56.7023 41.3778 56.6408 42.1319 56.6743C42.9419 56.7134 43.2659 56.8977 43.2715 56.987C43.2715 56.987 43.2715 56.9982 43.2715 56.9926C43.2715 56.9703 43.2827 57.0708 43.1989 57.3109C43.143 57.4841 43.076 57.6069 43.0034 57.6404C42.8693 57.6962 42.7855 57.1322 41.7967 57.0596C41.3443 57.0317 41.0873 57.0708 40.78 57.1546C40.389 57.2663 40.2103 57.3835 40.2047 57.5566C40.1935 57.8359 40.4058 57.9029 40.9365 58.1039C41.4727 58.3049 41.7186 58.344 42.2716 58.4836C42.8246 58.6232 43.495 58.8857 43.4559 59.2263C43.4112 59.5781 43.1765 59.9299 42.7464 60.2091Z" fill="#24FE7C"/>
<path d="M70.1417 60.2091C69.7116 60.4884 69.4658 60.5889 68.9798 60.7061C68.4994 60.8234 67.9016 60.8681 67.2425 60.8402C66.0917 60.7899 66.0749 60.5833 66.0638 60.4716V60.399C66.0638 60.399 66.1699 59.902 66.2481 59.7847C66.3207 59.6675 66.2984 59.8629 66.7229 60.0472C67.1531 60.2315 67.6614 60.332 68.0469 60.3376C68.4938 60.3487 68.9965 60.3096 69.1586 60.2482C69.5272 60.1142 69.7284 60.0304 69.7675 59.7345C69.8122 59.3883 68.9798 59.2542 68.2145 59.0811C67.1643 58.8298 66.8402 58.7349 66.6112 58.6065C66.3877 58.478 66.2816 58.344 66.2648 58.1541C66.2369 57.8303 66.5051 57.3724 67.3039 57.0373C68.1084 56.7023 68.7787 56.6408 69.5329 56.6743C70.3373 56.7134 70.6669 56.8977 70.6725 56.987V56.9926C70.6725 56.9703 70.6836 57.0708 70.5998 57.3109C70.544 57.4841 70.4714 57.6069 70.3987 57.6404C70.2702 57.6962 70.1809 57.1322 69.1921 57.0596C68.7396 57.0317 68.4771 57.0708 68.1754 57.1546C67.7899 57.2663 67.6056 57.3835 67.6 57.5566C67.5888 57.8359 67.7955 57.9029 68.3318 58.1039C68.8625 58.3049 69.1139 58.344 69.6669 58.4836C70.2144 58.6232 70.8903 58.8857 70.8512 59.2263C70.8065 59.5781 70.5719 59.9299 70.1417 60.2091Z" fill="#24FE7C"/>
<path d="M56.8575 57.0372C56.7067 57.0763 55.8855 57.3053 55.6397 57.1545C55.3436 56.9758 55.2822 56.8865 55.3045 56.4788C55.3213 56.1828 55.2933 55.8087 55.595 55.4569C55.8464 55.1665 56.2486 55.1163 56.4721 55.0939C56.9078 55.0437 56.8687 55.2559 56.9692 55.4122C57.0698 55.5686 57.2709 55.4681 57.3491 55.3787C57.4162 55.3061 57.4608 55.1889 57.377 54.9822C57.2932 54.7756 56.9134 54.6863 56.5112 54.6863C55.9358 54.6863 55.3157 54.8482 54.9414 55.1051C54.5671 55.3564 54.366 55.7138 54.366 56.1158C54.366 56.1661 54.366 56.2164 54.3716 56.2666L54.4107 56.5291C54.4163 56.5682 54.4722 56.7078 54.4777 56.8976C54.4889 57.1042 54.0643 57.1098 54.0755 57.2997C54.0811 57.4561 54.3213 57.4561 54.3939 57.6236C54.4666 57.7911 54.4386 57.9363 54.461 58.0871L54.4833 58.6902L54.4889 59.1872C54.4777 60.1756 54.461 60.5441 54.461 60.5441L54.4498 60.8289C54.461 60.9127 54.4777 61.03 54.7403 61.03C54.9693 61.03 55.3101 61.0132 55.69 60.8792C55.8743 60.8178 55.6173 60.505 55.5503 60.1867C55.4833 59.8684 55.4274 59.3379 55.4442 58.5841L55.4609 57.7129C55.4609 57.6683 55.4945 57.6292 55.5392 57.6236C55.5392 57.6236 55.9358 57.5231 56.271 57.484C56.6006 57.4393 56.8463 57.4337 56.9581 57.417C57.0642 57.4002 57.2877 57.4337 57.31 57.2829C57.3324 57.1378 57.1424 56.9591 56.8575 57.0372Z" fill="#24FE7C"/>
<path d="M59.5445 57.2215C59.7568 57.0205 60.1143 56.7524 60.3992 56.7524C60.6226 56.7524 60.7958 56.8865 60.8238 57.0819C60.8405 57.1992 60.7902 57.3388 60.6841 57.456C60.5668 57.5845 60.4327 57.685 60.2651 57.6682C60.0975 57.6459 60.1255 57.3946 59.8909 57.3946C59.5389 57.3946 59.0417 57.981 58.8742 58.3607C58.7401 58.6511 58.6507 59.2262 58.6619 59.5222C58.6786 60.2314 59.025 60.4269 59.0026 60.5441C58.9747 60.6614 58.6507 60.7842 58.1815 60.7842C58.025 60.7842 57.7066 60.7842 57.6787 60.5832L57.6731 60.4324L57.6899 60.075L57.7066 59.7958L57.7346 58.9805C57.7346 58.9805 57.7681 58.1261 57.6843 57.685C57.6396 57.4449 57.4999 57.1713 57.5055 57.1154C57.5055 57.0596 57.4776 57.0205 57.539 56.9591C57.5949 56.9032 58.1591 56.8027 58.4664 56.8027C58.7289 56.8027 58.8295 56.8194 58.8462 56.8865C58.863 56.9535 58.7848 57.1545 58.7848 57.3109C58.7848 57.4728 58.8015 57.618 58.9635 57.618C59.1367 57.618 59.3658 57.389 59.5445 57.2215Z" fill="#24FE7C"/>
<path d="M76.052 59.7065C76.052 59.7065 75.9068 59.7233 75.918 59.7233C75.918 59.7233 75.2588 59.9634 75.2588 59.9578C75.1973 59.9857 75.1527 59.9969 75.1191 60.0025C75.1303 60.0025 75.1471 60.0025 75.1582 59.9969C74.6946 60.1923 74.3147 60.2929 73.9963 60.2929C73.3985 60.2929 72.9907 59.9075 72.9125 59.2654C72.8567 58.8075 72.9963 58.2993 73.298 57.8972C73.6555 57.4449 74.1974 57.2327 75.0018 57.2327C75.4766 57.2327 75.756 57.3556 75.9236 57.5566C75.9347 57.5398 75.9459 57.5175 75.9459 57.5175C76.0967 57.216 76.1247 57.0652 76.1247 56.9591V56.9535C76.0856 56.6687 75.5605 56.6464 75.3985 56.6464C74.9404 56.6464 74.4767 56.7357 73.7952 56.9535C73.1528 57.1657 72.7226 57.3611 72.3986 57.5901C71.6389 58.1094 71.2813 58.8633 71.3875 59.7009C71.4434 60.1197 71.678 60.505 71.9908 60.667C72.326 60.8401 72.6612 60.9071 73.2421 60.9071C73.9572 60.9071 74.7728 60.7675 75.5381 60.5162L76.0018 60.399C76.0185 60.3934 76.0464 60.399 76.0744 60.4045C76.1358 60.2091 76.1861 59.9969 76.1861 59.8461L76.1805 59.7623C76.1805 59.7344 76.1805 59.7065 76.052 59.7065Z" fill="#24FE7C"/>
<path d="M81.4428 58.0257C81.3702 57.4784 81.1858 57.1211 80.8618 56.9089C80.6328 56.7637 80.3367 56.6799 80.0518 56.6799C79.8228 56.6799 79.0742 56.5738 78.1693 57.0373C77.5045 57.3779 77.1805 57.7521 76.985 58.0592C76.7168 58.4836 76.5995 59.0811 76.6777 59.6619C76.7671 60.3766 77.2978 60.8122 78.2419 60.8736C79.1078 60.9295 79.9066 60.7173 80.6105 60.1533C81.3702 59.5502 81.4708 59.0085 81.4708 58.3272C81.4652 58.2267 81.454 58.1262 81.4428 58.0257ZM80.0574 59.9243C79.7613 60.3487 79.3089 60.3878 78.7111 60.3208C77.9458 60.2314 77.6386 59.8629 77.6218 59.0197C77.6106 58.5674 77.7168 58.0648 77.8899 57.713C78.1302 57.2607 78.5994 57.0764 79.2865 57.1601C80.063 57.2551 80.4038 57.6069 80.4149 58.3384C80.4205 58.5283 80.4094 58.707 80.3926 58.8801C80.3479 59.3101 80.2306 59.6786 80.0574 59.9243Z" fill="#24FE7C"/>
</svg>
